<svg width="200" height="200" viewBox="0 0 200 200" fill="none" xmlns="http://www.w3.org/2000/svg">
<path d="M157.854 151.089H40.6468C39.9587 151.089 39.5 150.63 39.5 149.943C39.5 149.255 39.9587 148.797 40.6468 148.797H157.74C158.428 148.797 158.887 149.255 158.887 149.943C158.887 150.63 158.428 151.089 157.854 151.089Z" fill="#EBF0F6"/>
<path d="M124.822 148.911C116.106 149.14 105.67 148.911 98.33 148.796C90.9902 149.026 80.5539 149.14 71.8379 148.911C80.4392 143.984 83.421 134.932 83.8798 128.974H112.666C113.239 134.932 116.221 144.099 124.822 148.911Z" fill="url(#paint0_linear_1739_7173)"/>
<path d="M152.691 53.1204V128.057C152.691 129.891 151.2 131.266 149.48 131.266H47.5256C45.8054 131.266 44.3145 129.776 44.3145 128.057V53.1204C44.3145 51.4017 45.8054 49.9121 47.5256 49.9121H149.48C151.315 49.9121 152.691 51.4017 152.691 53.1204Z" fill="#F5F8FF"/>
<path d="M152.691 53.1204V117.63H44.3145V53.1204C44.3145 51.4017 45.8054 49.9121 47.5256 49.9121H149.48C151.315 49.9121 152.691 51.4017 152.691 53.1204Z" fill="#172D45"/>
<path d="M148.563 53.9219H47.9844V113.963H148.563V53.9219Z" fill="white"/>
<path d="M98.3331 127.485C99.7898 127.485 100.971 126.305 100.971 124.849C100.971 123.394 99.7898 122.214 98.3331 122.214C96.8763 122.214 95.6953 123.394 95.6953 124.849C95.6953 126.305 96.8763 127.485 98.3331 127.485Z" fill="#DBDFE6"/>
<path d="M142.944 110.756H127.461C126.2 110.756 125.053 109.725 125.053 108.35V59.3086C125.053 58.0482 126.085 56.9023 127.461 56.9023H142.944C144.205 56.9023 145.352 57.9336 145.352 59.3086V108.35C145.352 109.725 144.32 110.756 142.944 110.756Z" fill="#E6EDF5"/>
<path d="M140.422 60.6826H130.1C129.756 60.6826 129.412 60.3389 129.412 59.9951C129.412 59.6514 129.756 59.3076 130.1 59.3076H140.422C140.766 59.3076 141.11 59.6514 141.11 59.9951C141.11 60.3389 140.766 60.6826 140.422 60.6826Z" fill="#CED7E2"/>
<path d="M142.142 65.9564H128.38C128.036 65.9564 127.807 65.727 127.807 65.383C127.807 65.0389 128.036 64.8096 128.38 64.8096H142.142C142.486 64.8096 142.716 65.0389 142.716 65.383C142.716 65.727 142.486 65.9564 142.142 65.9564Z" fill="#CED7E2"/>
<path d="M142.142 69.1644H128.38C128.036 69.1644 127.807 68.935 127.807 68.591C127.807 68.2469 128.036 68.0176 128.38 68.0176H142.142C142.486 68.0176 142.716 68.2469 142.716 68.591C142.716 68.935 142.486 69.1644 142.142 69.1644Z" fill="#CED7E2"/>
<path d="M142.142 72.3705H128.38C128.036 72.3705 127.807 72.1411 127.807 71.7971C127.807 71.453 128.036 71.2236 128.38 71.2236H142.142C142.486 71.2236 142.716 71.453 142.716 71.7971C142.716 72.1411 142.486 72.3705 142.142 72.3705Z" fill="#CED7E2"/>
<path d="M142.142 75.5804H128.38C128.036 75.5804 127.807 75.3511 127.807 75.007C127.807 74.663 128.036 74.4336 128.38 74.4336H142.142C142.486 74.4336 142.716 74.663 142.716 75.007C142.716 75.3511 142.486 75.5804 142.142 75.5804Z" fill="#CED7E2"/>
<path d="M142.142 78.7894H128.38C128.036 78.7894 127.807 78.5601 127.807 78.216C127.807 77.8719 128.036 77.6426 128.38 77.6426H142.142C142.486 77.6426 142.716 77.8719 142.716 78.216C142.716 78.5601 142.486 78.7894 142.142 78.7894Z" fill="#CED7E2"/>
<path d="M142.142 81.9974H128.38C128.036 81.9974 127.807 81.7681 127.807 81.424C127.807 81.08 128.036 80.8506 128.38 80.8506H142.142C142.486 80.8506 142.716 81.08 142.716 81.424C142.716 81.7681 142.486 81.9974 142.142 81.9974Z" fill="#CED7E2"/>
<path d="M142.142 85.2035H128.38C128.036 85.2035 127.807 84.9741 127.807 84.6301C127.807 84.286 128.036 84.0566 128.38 84.0566H142.142C142.486 84.0566 142.716 84.286 142.716 84.6301C142.716 84.8594 142.486 85.2035 142.142 85.2035Z" fill="#CED7E2"/>
<path d="M142.142 88.4134H128.38C128.036 88.4134 127.807 88.1841 127.807 87.84C127.807 87.496 128.036 87.2666 128.38 87.2666H142.142C142.486 87.2666 142.716 87.496 142.716 87.84C142.716 88.0694 142.486 88.4134 142.142 88.4134Z" fill="#CED7E2"/>
<path d="M142.142 91.6224H128.38C128.036 91.6224 127.807 91.3931 127.807 91.049C127.807 90.705 128.036 90.4756 128.38 90.4756H142.142C142.486 90.4756 142.716 90.705 142.716 91.049C142.716 91.2784 142.486 91.6224 142.142 91.6224Z" fill="#CED7E2"/>
<path d="M56.8187 88.4132H82.3934C83.4255 88.4132 84.343 87.4965 84.343 86.4653V59.9967C84.343 58.9655 83.4255 58.0488 82.3934 58.0488H56.8187C55.7866 58.0488 54.8691 58.9655 54.8691 59.9967V86.4653C54.7544 87.4965 55.6719 88.4132 56.8187 88.4132Z" fill="#E6EDF5"/>
<path d="M69.554 75.4644C73.2277 75.4644 76.2058 72.489 76.2058 68.8186C76.2058 65.1483 73.2277 62.1729 69.554 62.1729C65.8804 62.1729 62.9023 65.1483 62.9023 68.8186C62.9023 72.489 65.8804 75.4644 69.554 75.4644Z" fill="#CED7E2"/>
<path d="M78.7271 80.1637H60.4922C60.0335 80.1637 59.6895 79.82 59.6895 79.3616C59.6895 78.9033 60.0335 78.5596 60.4922 78.5596H78.7271C79.1858 78.5596 79.5299 78.9033 79.5299 79.3616C79.5299 79.82 79.1858 80.1637 78.7271 80.1637Z" fill="#CED7E2"/>
<path d="M73.2232 83.8288H65.9981C65.5394 83.8288 65.1953 83.485 65.1953 83.0267C65.1953 82.5684 65.5394 82.2246 65.9981 82.2246H73.2232C73.682 82.2246 74.026 82.5684 74.026 83.0267C74.026 83.3704 73.682 83.8288 73.2232 83.8288Z" fill="#CED7E2"/>
<path d="M91.2231 88.4132H116.798C117.83 88.4132 118.747 87.4965 118.747 86.4653V59.9967C118.747 58.9655 117.83 58.0488 116.798 58.0488H91.2231C90.1909 58.0488 89.2734 58.9655 89.2734 59.9967V86.4653C89.2734 87.4965 90.1909 88.4132 91.2231 88.4132Z" fill="#E6EDF5"/>
<path d="M104.066 75.4634C107.739 75.4634 110.717 72.488 110.717 68.8177C110.717 65.1473 107.739 62.1719 104.066 62.1719C100.392 62.1719 97.4141 65.1473 97.4141 68.8177C97.4141 72.488 100.392 75.4634 104.066 75.4634Z" fill="#CED7E2"/>
<path d="M113.24 80.1618H94.8907C94.4319 80.1618 94.0879 79.818 94.0879 79.3597C94.0879 78.9014 94.4319 78.5576 94.8907 78.5576H113.126C113.584 78.5576 113.928 78.9014 113.928 79.3597C114.043 79.818 113.699 80.1618 113.24 80.1618Z" fill="#CED7E2"/>
<path d="M107.736 83.8278H100.397C99.9378 83.8278 99.5938 83.484 99.5938 83.0257C99.5938 82.5674 99.9378 82.2236 100.397 82.2236H107.622C108.08 82.2236 108.424 82.5674 108.424 83.0257C108.539 83.3695 108.195 83.8278 107.736 83.8278Z" fill="#CED7E2"/>
<path d="M84.3386 94.3717V113.965H54.75V94.3717C54.75 93.2259 55.6675 92.4238 56.6996 92.4238H82.2743C83.4211 92.4238 84.3386 93.3405 84.3386 94.3717Z" fill="#E6EDF5"/>
<path d="M69.5462 109.84C73.2199 109.84 76.1979 106.865 76.1979 103.195C76.1979 99.5242 73.2199 96.5488 69.5462 96.5488C65.8726 96.5488 62.8945 99.5242 62.8945 103.195C62.8945 106.865 65.8726 109.84 69.5462 109.84Z" fill="#CED7E2"/>
<path d="M79.5215 113.738C79.5215 113.853 79.5215 113.853 79.5215 113.968H59.5664C59.5664 113.853 59.5664 113.853 59.5664 113.738C59.5664 113.28 59.9105 112.936 60.3692 112.936H78.604C79.1775 112.936 79.5215 113.28 79.5215 113.738Z" fill="#CED7E2"/>
<path d="M118.862 94.3717V113.965H89.2734V94.3717C89.2734 93.2259 90.1909 92.4238 91.2231 92.4238H116.798C117.945 92.4238 118.862 93.3405 118.862 94.3717Z" fill="#E6EDF5"/>
<path d="M104.066 109.84C107.739 109.84 110.717 106.865 110.717 103.195C110.717 99.5242 107.739 96.5488 104.066 96.5488C100.392 96.5488 97.4141 99.5242 97.4141 103.195C97.4141 106.865 100.392 109.84 104.066 109.84Z" fill="#CED7E2"/>
<path d="M114.043 113.737C114.043 113.852 114.043 113.852 114.043 113.967H94.0879C94.0879 113.852 94.0879 113.852 94.0879 113.737C94.0879 113.279 94.4319 112.935 95.0054 112.935H113.24C113.699 112.935 114.043 113.279 114.043 113.737Z" fill="#CED7E2"/>
<g filter="url(#filter0_d_1739_7173)">
<path d="M77.463 123.589H33.8829C31.3598 123.589 29.4102 121.526 29.4102 119.12V66.4121C29.4102 63.8913 31.4745 61.9434 33.8829 61.9434H77.463C79.986 61.9434 81.9357 64.0058 81.9357 66.4121V119.12C81.9357 121.526 79.8713 123.589 77.463 123.589Z" fill="white"/>
</g>
<path opacity="0.7" d="M65.5367 106.401H37.2096C36.4069 106.401 35.7188 105.714 35.7188 104.911C35.7188 104.109 36.4069 103.422 37.2096 103.422H65.5367C66.3395 103.422 67.0276 104.109 67.0276 104.911C67.0276 105.714 66.3395 106.401 65.5367 106.401Z" fill="url(#paint1_linear_1739_7173)"/>
<path opacity="0.7" d="M49.7103 114.994H37.2096C36.4069 114.994 35.7188 114.306 35.7188 113.504C35.7188 112.702 36.4069 112.015 37.2096 112.015H49.7103C50.5131 112.015 51.2012 112.702 51.2012 113.504C51.0865 114.306 50.5131 114.994 49.7103 114.994Z" fill="url(#paint2_linear_1739_7173)"/>
<path d="M71.7642 87.559C71.6495 87.3299 71.8789 86.6117 71.7642 86.3826C71.3055 85.6951 70.5581 85.5499 69.4112 85.2061C67.8057 84.7478 66.7983 84.0576 65.5368 83.943C65.1927 83.943 64.8487 83.8284 64.6193 83.8284C61.0641 83.4847 58.0823 82.9118 51.5453 74.891C50.8572 74.0889 50.5131 73.2869 49.825 72.4848C49.1369 71.7973 47.9901 72.5994 46.4992 72.9431C46.1551 73.0577 45.9257 73.0577 45.5817 73.0577C44.4348 73.0577 43.0586 72.9431 41.7971 72.8285C40.0768 72.5994 41.109 71.6827 39.0447 84.8597C38.93 85.8909 38.8153 86.8076 38.7006 87.8388C38.5859 88.6409 38.5859 89.5576 38.5859 90.3596C38.5859 90.7034 38.7006 91.2763 39.0447 91.2763C44.5495 91.8492 48.1048 91.62 56.8208 91.5055C61.1788 91.5055 65.5368 91.5055 69.8948 90.7034L70.927 90.5888C71.8444 90.4742 72.7619 90.1305 72.7619 89.5576C72.7619 88.7555 71.9936 88.3611 71.7642 87.559Z" fill="url(#paint3_linear_1739_7173)"/>
<path d="M65.5371 84.0579L64.5049 87.0371C58.8854 86.8079 53.1512 83.2559 50.1694 78.6726C49.1372 77.0684 48.3344 75.3497 47.1876 73.9747C47.1876 73.9747 46.8435 73.5163 46.3848 73.1726C47.8757 72.8289 49.0225 72.0268 49.7106 72.7143C50.284 73.2872 50.5134 73.7455 50.9721 74.3184C51.0868 74.5476 51.2015 74.6622 51.3162 74.8913C51.3162 75.0059 51.4309 75.0059 51.4309 75.1205C51.7749 75.5788 52.2337 76.0372 52.5777 76.4955C52.6924 76.6101 52.8071 76.7247 52.9218 76.9538C53.3805 77.4122 53.7246 77.8705 54.1833 78.3288C54.298 78.4434 54.4127 78.558 54.5274 78.7871C54.9861 79.2455 55.3302 79.7038 55.7889 80.0475C55.9036 80.1621 56.133 80.2767 56.2476 80.5059C56.7064 80.8496 57.0504 81.1934 57.3945 81.5371C57.6239 81.6517 57.7385 81.7663 57.9679 81.9954C58.312 82.2246 58.5413 82.4538 58.8854 82.5684C59.1147 82.6829 59.3441 82.7975 59.4588 82.9121C60.0322 83.2559 60.6056 83.485 61.1791 83.7142C61.4084 83.8288 61.6378 83.8288 61.8672 83.9433C62.7847 84.1725 63.5874 84.2871 64.5049 84.4017C64.849 83.9433 65.193 83.9433 65.5371 84.0579Z" fill="#F32083"/>
<path d="M72.7619 89.6728C72.7619 90.2457 71.7298 90.5895 70.927 90.7041L69.8948 90.8187C65.6515 91.6207 61.1788 91.6207 56.8208 91.6207C48.1048 91.6207 44.6642 91.8499 39.0447 91.3916C38.5859 91.3916 38.5859 90.8187 38.5859 90.4749C38.5859 89.5582 38.5859 88.7562 38.7006 87.9541C41.7971 88.1833 54.8711 88.8707 64.8487 87.8395C67.6011 87.4958 70.1242 87.152 72.0738 86.5791C72.1885 86.8083 72.3032 87.0374 72.4179 87.2666C72.6472 87.9541 72.7619 88.7562 72.7619 89.6728Z" fill="#E5ECF4"/>
<path d="M72.4171 87.153C70.3528 87.8405 68.2885 88.2988 66.1095 88.4134C65.7654 88.4134 65.4214 88.4134 65.192 88.2988C64.848 88.1842 64.848 87.955 64.7333 87.7259C64.7333 87.6113 64.7333 87.4967 64.7333 87.3821C64.6186 86.2363 64.5039 84.9759 64.5039 83.8301C65.9948 83.9447 67.6004 84.0592 69.55 84.7467C70.6969 85.0905 71.4997 85.6634 71.9584 86.4655C72.1878 86.6946 72.3025 86.9238 72.4171 87.153Z" fill="#E5ECF4"/>
<path d="M51.316 74.7777C51.316 74.8922 51.316 74.8922 51.316 74.7777L49.8251 75.9235C49.7104 75.9235 49.7104 76.0381 49.5957 76.0381C49.481 76.0381 49.3663 76.0381 49.3663 75.9235C49.2517 75.8089 49.2517 75.5797 49.481 75.4652L50.9719 74.3193H51.0866C51.0866 74.4339 51.2013 74.6631 51.316 74.7777Z" fill="#DFECFD"/>
<path d="M53.0381 76.7233C53.0381 76.8379 53.0381 76.8379 52.9234 76.9525C52.4647 77.4108 52.0059 77.8691 51.4325 78.3275C51.3178 78.3275 51.3178 78.442 51.2031 78.442C51.0885 78.442 50.9738 78.442 50.9738 78.3275C50.8591 78.2129 50.8591 77.9837 51.0885 77.8691C51.5472 77.5254 52.0059 77.0671 52.4647 76.6087C52.5794 76.4941 52.5794 76.4941 52.694 76.4941C52.694 76.4941 52.9234 76.6087 53.0381 76.7233Z" fill="#DFECFD"/>
<path d="M54.5253 78.5566C54.5253 78.6712 54.5253 78.6712 54.4106 78.7858C53.9519 79.2441 53.3785 79.817 52.9198 80.2754C52.8051 80.39 52.8051 80.39 52.6904 80.39C52.5757 80.39 52.461 80.39 52.461 80.2754C52.3463 80.1608 52.3463 79.9316 52.461 79.817C52.9198 79.3587 53.4932 78.7858 53.9519 78.3275C54.0666 78.2129 54.0666 78.2129 54.1813 78.2129C54.296 78.2129 54.4106 78.4421 54.5253 78.5566Z" fill="#DFECFD"/>
<path d="M56.248 80.1624C56.248 80.277 56.248 80.277 56.1333 80.3916C55.5599 80.8499 54.9865 81.4228 54.6424 81.9957C54.5277 82.1103 54.5277 82.1103 54.413 82.1103C54.2984 82.1103 54.2984 82.1103 54.1837 81.9957C54.069 81.8812 53.9543 81.652 54.069 81.5374C54.5277 80.9645 55.1011 80.3916 55.6746 79.8187C55.6746 79.8187 55.7893 79.8187 55.7893 79.7041C56.0186 79.9333 56.1333 80.0478 56.248 80.1624Z" fill="#DFECFD"/>
<path d="M57.967 81.5358C57.967 81.5358 57.967 81.6504 57.967 81.5358C57.6229 82.2233 57.2789 82.9108 56.8201 83.5983C56.7055 83.7129 56.5908 83.8275 56.4761 83.8275H56.3614C56.2467 83.7129 56.132 83.4837 56.2467 83.3691C56.5908 82.6816 56.9348 81.9941 57.2789 81.4212L57.3936 81.3066C57.6229 81.3066 57.7376 81.4212 57.967 81.5358Z" fill="#DFECFD"/>
<path d="M59.4579 82.5687L59.1139 84.6312C59.1139 84.8603 58.8845 84.9749 58.7698 84.9749C58.5405 84.9749 58.4258 84.7457 58.4258 84.5166L58.7698 82.2249C58.7698 82.1104 58.7698 82.1104 58.8845 82.1104C59.1139 82.3395 59.2286 82.4541 59.4579 82.5687Z" fill="#DFECFD"/>
<path d="M61.8662 83.4853C61.7515 84.0583 61.6368 84.7458 61.5222 85.3187C61.5222 85.4332 61.2928 85.5478 61.1781 85.5478C61.1781 85.5478 61.1781 85.5478 61.0634 85.5478C60.8341 85.5478 60.7194 85.3187 60.8341 85.0895C60.9487 84.5166 61.0634 83.8291 61.1781 83.2562C61.1781 83.2562 61.1781 83.2562 61.1781 83.1416C61.4075 83.3708 61.6368 83.4853 61.8662 83.4853Z" fill="#DFECFD"/>
<path d="M44.7792 81.652C46.3627 81.652 47.6463 80.3695 47.6463 78.7874C47.6463 77.2054 46.3627 75.9229 44.7792 75.9229C43.1958 75.9229 41.9121 77.2054 41.9121 78.7874C41.9121 80.3695 43.1958 81.652 44.7792 81.652Z" fill="white"/>
<path d="M44.7758 79.9342C45.4091 79.9342 45.9226 79.4212 45.9226 78.7884C45.9226 78.1556 45.4091 77.6426 44.7758 77.6426C44.1424 77.6426 43.6289 78.1556 43.6289 78.7884C43.6289 79.4212 44.1424 79.9342 44.7758 79.9342Z" fill="url(#paint4_linear_1739_7173)"/>
<path d="M80.4422 115.11C80.3275 115.339 80.2128 115.453 79.9835 115.568L76.887 116.828C76.4283 117.058 75.9695 117.287 75.6255 117.63C75.2814 117.974 75.052 118.318 74.9374 118.776L73.6758 121.87C73.5611 122.328 72.9877 122.558 72.6437 122.328C72.529 122.214 72.2996 122.099 72.2996 121.985L66.336 108.922C66.2213 108.693 66.2213 108.464 66.336 108.349C66.4507 108.12 66.7948 108.006 67.1388 108.12L80.2128 114.078C80.4422 114.308 80.5569 114.766 80.4422 115.11Z" fill="#172D45"/>
<path d="M82.734 123.131C82.6193 123.131 82.5046 123.131 82.39 123.016L78.1466 118.662C77.9173 118.433 77.9173 118.089 78.1466 117.975C78.376 117.745 78.7201 117.745 78.8347 117.975L83.0781 122.214C83.3074 122.443 83.3074 122.787 83.0781 122.902C83.0781 123.131 82.8487 123.131 82.734 123.131Z" fill="#172D45"/>
<path d="M78.3759 123.131C78.2612 123.131 78.1465 123.131 78.0318 123.016L76.0822 121.068C75.8528 120.839 75.8528 120.495 76.0822 120.381C76.3116 120.152 76.6556 120.152 76.7703 120.381L78.7199 122.329C78.9493 122.558 78.9493 122.902 78.7199 123.016C78.7199 123.131 78.6052 123.131 78.3759 123.131Z" fill="#172D45"/>
<path d="M75.5102 117.631C75.1662 117.975 74.9368 118.318 74.8221 118.777L73.5606 121.87C73.4459 122.329 72.8725 122.558 72.5284 122.329C72.4137 122.214 72.1844 122.099 72.1844 121.985L66.2208 108.923C66.1061 108.693 66.1061 108.464 66.2208 108.35L75.5102 117.631Z" fill="#172D45"/>
<g filter="url(#filter1_d_1739_7173)">
<path d="M166.345 137.682H128.499C126.205 137.682 124.256 135.849 124.256 133.443V80.2767C124.256 77.985 126.091 76.0371 128.499 76.0371H166.345C168.639 76.0371 170.588 77.8704 170.588 80.2767V133.443C170.588 135.849 168.753 137.682 166.345 137.682Z" fill="white"/>
</g>
<g filter="url(#filter2_d_1739_7173)">
<path d="M153.598 104.492C151.832 105.626 149.687 106.383 147.415 106.383C141.233 106.383 136.186 101.34 136.186 95.1631C136.186 88.9859 141.233 83.9434 147.415 83.9434C153.598 83.9434 158.645 88.9859 158.645 95.1631C158.771 99.0711 156.752 102.475 153.598 104.492Z" fill="url(#paint5_linear_1739_7173)"/>
</g>
<path d="M155.997 100.205C155.24 101.466 154.105 102.6 152.843 103.483C152.212 103.987 151.455 104.239 150.698 104.617L143.506 96.4229L144.263 95.7926L146.786 96.9272L147.544 93.2713L148.301 90.75L155.745 99.9527L155.997 100.205Z" fill="url(#paint6_linear_1739_7173)"/>
<path d="M146.788 99.4488L143.634 96.2972C143.255 95.919 143.255 95.2887 143.634 94.9105C144.012 94.5323 144.643 94.5323 145.021 94.9105L146.409 96.2972V91.2546C146.409 90.7504 146.914 90.2461 147.419 90.2461C147.924 90.2461 148.428 90.7504 148.428 91.2546V96.2972L149.816 94.9105C150.195 94.5323 150.826 94.5323 151.204 94.9105C151.456 95.1626 151.456 95.4147 151.456 95.6669C151.456 95.919 151.33 96.1711 151.204 96.4233L148.05 99.5749C147.924 99.7009 147.545 99.827 147.293 99.827C147.166 99.7009 146.914 99.7009 146.788 99.4488Z" fill="url(#paint7_linear_1739_7173)"/>
<path d="M162.902 116.94L160.265 130.461C160.035 131.607 159.003 132.524 157.856 132.524H136.984C135.837 132.524 134.805 131.607 134.575 130.461L131.938 116.94" fill="white"/>
<g filter="url(#filter3_d_1739_7173)">
<path d="M162.902 116.94L162.673 118.201L160.265 130.461C160.035 131.607 159.003 132.524 157.856 132.524H136.984C135.837 132.524 134.805 131.607 134.575 130.461L132.167 118.201L131.938 116.94H162.902Z" fill="url(#paint8_linear_1739_7173)"/>
</g>
<path d="M162.901 116.941L162.557 118.775H132.395L132.051 116.941H162.901Z" fill="#526DFF"/>
<path d="M132.97 116.94H132.168C131.25 116.94 130.447 116.252 130.447 115.45V113.846C130.447 113.044 131.25 112.356 132.168 112.356H162.788C163.706 112.356 164.509 113.044 164.509 113.846V115.45C164.509 116.252 163.706 116.94 162.788 116.94H161.986" fill="url(#paint9_linear_1739_7173)"/>
<path d="M138.478 120.492C138.363 120.148 138.019 119.919 137.675 119.919C137.331 120.034 137.102 120.377 137.102 120.721L138.707 128.856C138.822 129.658 140.198 129.429 139.969 128.627L138.478 120.492Z" fill="white"/>
<path d="M142.948 120.492C142.948 120.148 142.604 119.919 142.146 119.919C141.802 119.919 141.572 120.263 141.572 120.721C141.802 122.44 142.49 127.138 142.719 128.856C142.834 129.773 144.095 129.544 143.981 128.627C143.981 127.94 143.178 121.523 142.948 120.492Z" fill="white"/>
<path d="M146.85 120.606V128.742C146.85 129.658 148.226 129.658 148.226 128.742V120.606C148.111 119.69 146.85 119.69 146.85 120.606Z" fill="white"/>
<path d="M152.01 120.493C151.436 124.733 151.666 122.785 150.863 128.629C150.748 129.545 152.01 129.66 152.124 128.858L152.812 124.16C152.812 124.045 152.812 124.045 152.812 124.045L153.271 120.837C153.386 119.806 152.124 119.691 152.01 120.493Z" fill="white"/>
<path d="M156.484 120.491C156.255 121.637 154.993 128.283 154.878 128.627C154.764 129.429 156.025 129.772 156.14 128.856L157.746 120.72C157.86 119.918 156.599 119.689 156.484 120.491Z" fill="white"/>
<path d="M160.147 58.277C160.78 58.277 161.294 57.764 161.294 57.1312C161.294 56.4984 160.78 55.9854 160.147 55.9854C159.513 55.9854 159 56.4984 159 57.1312C159 57.764 159.513 58.277 160.147 58.277Z" fill="url(#paint10_linear_1739_7173)"/>
<path d="M60.6019 137.797C61.2353 137.797 61.7488 137.284 61.7488 136.651C61.7488 136.018 61.2353 135.505 60.6019 135.505C59.9685 135.505 59.4551 136.018 59.4551 136.651C59.4551 137.284 59.9685 137.797 60.6019 137.797Z" fill="url(#paint11_linear_1739_7173)"/>
<path d="M39.6156 143.756C40.249 143.756 40.7624 143.243 40.7624 142.611C40.7624 141.978 40.249 141.465 39.6156 141.465C38.9822 141.465 38.4688 141.978 38.4688 142.611C38.4688 143.243 38.9822 143.756 39.6156 143.756Z" fill="url(#paint12_linear_1739_7173)"/>
<defs>
<filter id="filter0_d_1739_7173" x="3.52781" y="49.0022" width="104.29" height="113.41" filterUnits="userSpaceOnUse" color-interpolation-filters="sRGB">
<feFlood flood-opacity="0" result="BackgroundImageFix"/>
<feColorMatrix in="SourceAlpha" type="matrix" values="0 0 0 0 0 0 0 0 0 0 0 0 0 0 0 0 0 0 127 0" result="hardAlpha"/>
<feOffset dy="12.9412"/>
<feGaussianBlur stdDeviation="12.9412"/>
<feColorMatrix type="matrix" values="0 0 0 0 0.397708 0 0 0 0 0.47749 0 0 0 0 0.575 0 0 0 0.18 0"/>
<feBlend mode="normal" in2="BackgroundImageFix" result="effect1_dropShadow_1739_7173"/>
<feBlend mode="normal" in="SourceGraphic" in2="effect1_dropShadow_1739_7173" result="shape"/>
</filter>
<filter id="filter1_d_1739_7173" x="98.3735" y="63.0959" width="98.0967" height="113.41" filterUnits="userSpaceOnUse" color-interpolation-filters="sRGB">
<feFlood flood-opacity="0" result="BackgroundImageFix"/>
<feColorMatrix in="SourceAlpha" type="matrix" values="0 0 0 0 0 0 0 0 0 0 0 0 0 0 0 0 0 0 127 0" result="hardAlpha"/>
<feOffset dy="12.9412"/>
<feGaussianBlur stdDeviation="12.9412"/>
<feColorMatrix type="matrix" values="0 0 0 0 0.397708 0 0 0 0 0.47749 0 0 0 0 0.575 0 0 0 0.18 0"/>
<feBlend mode="normal" in2="BackgroundImageFix" result="effect1_dropShadow_1739_7173"/>
<feBlend mode="normal" in="SourceGraphic" in2="effect1_dropShadow_1739_7173" result="shape"/>
</filter>
<filter id="filter2_d_1739_7173" x="126.774" y="80.4139" width="41.2884" height="41.263" filterUnits="userSpaceOnUse" color-interpolation-filters="sRGB">
<feFlood flood-opacity="0" result="BackgroundImageFix"/>
<feColorMatrix in="SourceAlpha" type="matrix" values="0 0 0 0 0 0 0 0 0 0 0 0 0 0 0 0 0 0 127 0" result="hardAlpha"/>
<feOffset dy="5.88235"/>
<feGaussianBlur stdDeviation="4.70588"/>
<feColorMatrix type="matrix" values="0 0 0 0 0.968627 0 0 0 0 0.254902 0 0 0 0 0.564706 0 0 0 0.3 0"/>
<feBlend mode="normal" in2="BackgroundImageFix" result="effect1_dropShadow_1739_7173"/>
<feBlend mode="normal" in="SourceGraphic" in2="effect1_dropShadow_1739_7173" result="shape"/>
</filter>
<filter id="filter3_d_1739_7173" x="122.526" y="113.411" width="49.7884" height="34.4065" filterUnits="userSpaceOnUse" color-interpolation-filters="sRGB">
<feFlood flood-opacity="0" result="BackgroundImageFix"/>
<feColorMatrix in="SourceAlpha" type="matrix" values="0 0 0 0 0 0 0 0 0 0 0 0 0 0 0 0 0 0 127 0" result="hardAlpha"/>
<feOffset dy="5.88235"/>
<feGaussianBlur stdDeviation="4.70588"/>
<feColorMatrix type="matrix" values="0 0 0 0 0.1125 0 0 0 0 0.295916 0 0 0 0 1 0 0 0 0.22 0"/>
<feBlend mode="normal" in2="BackgroundImageFix" result="effect1_dropShadow_1739_7173"/>
<feBlend mode="normal" in="SourceGraphic" in2="effect1_dropShadow_1739_7173" result="shape"/>
</filter>
<linearGradient id="paint0_linear_1739_7173" x1="98.3186" y1="148.421" x2="98.3186" y2="130.548" gradientUnits="userSpaceOnUse">
<stop stop-color="#F5F8FF"/>
<stop offset="0.9913" stop-color="#D8E0EB"/>
</linearGradient>
<linearGradient id="paint1_linear_1739_7173" x1="73.4341" y1="104.896" x2="28.2285" y2="104.896" gradientUnits="userSpaceOnUse">
<stop offset="0.00651336" stop-color="#9CA6BD" stop-opacity="0"/>
<stop offset="1" stop-color="#929EBD"/>
</linearGradient>
<linearGradient id="paint2_linear_1739_7173" x1="73.4341" y1="113.424" x2="28.2285" y2="113.424" gradientUnits="userSpaceOnUse">
<stop offset="0.00651336" stop-color="#9CA6BD" stop-opacity="0"/>
<stop offset="1" stop-color="#929EBD"/>
</linearGradient>
<linearGradient id="paint3_linear_1739_7173" x1="38.5526" y1="82.0725" x2="72.7369" y2="82.0725" gradientUnits="userSpaceOnUse">
<stop stop-color="#FF66A9"/>
<stop offset="1" stop-color="#F53689"/>
</linearGradient>
<linearGradient id="paint4_linear_1739_7173" x1="43.5523" y1="78.8222" x2="45.9461" y2="78.8222" gradientUnits="userSpaceOnUse">
<stop stop-color="#FF66A9"/>
<stop offset="1" stop-color="#F53689"/>
</linearGradient>
<linearGradient id="paint5_linear_1739_7173" x1="139.913" y1="87.3225" x2="155.047" y2="102.935" gradientUnits="userSpaceOnUse">
<stop stop-color="#FF66A9"/>
<stop offset="1" stop-color="#F53689"/>
</linearGradient>
<linearGradient id="paint6_linear_1739_7173" x1="146.819" y1="94.8669" x2="153.027" y2="101.08" gradientUnits="userSpaceOnUse">
<stop stop-color="#E81778"/>
<stop offset="1" stop-color="#E01F79" stop-opacity="0"/>
</linearGradient>
<linearGradient id="paint7_linear_1739_7173" x1="148.872" y1="97.9345" x2="145.154" y2="91.8536" gradientUnits="userSpaceOnUse">
<stop offset="0.0113208" stop-color="#FFC9E3"/>
<stop offset="1" stop-color="white"/>
</linearGradient>
<linearGradient id="paint8_linear_1739_7173" x1="131.999" y1="124.697" x2="162.95" y2="124.697" gradientUnits="userSpaceOnUse">
<stop stop-color="#83A6FF"/>
<stop offset="1" stop-color="#5A78FF"/>
</linearGradient>
<linearGradient id="paint9_linear_1739_7173" x1="130.461" y1="114.564" x2="164.511" y2="114.564" gradientUnits="userSpaceOnUse">
<stop stop-color="#83A6FF"/>
<stop offset="1" stop-color="#5A78FF"/>
</linearGradient>
<linearGradient id="paint10_linear_1739_7173" x1="158.983" y1="57.1338" x2="161.338" y2="57.1338" gradientUnits="userSpaceOnUse">
<stop stop-color="#83A6FF"/>
<stop offset="1" stop-color="#5A78FF"/>
</linearGradient>
<linearGradient id="paint11_linear_1739_7173" x1="59.3828" y1="136.609" x2="61.7382" y2="136.609" gradientUnits="userSpaceOnUse">
<stop stop-color="#FF66A9"/>
<stop offset="1" stop-color="#F53689"/>
</linearGradient>
<linearGradient id="paint12_linear_1739_7173" x1="38.4572" y1="142.563" x2="40.8126" y2="142.563" gradientUnits="userSpaceOnUse">
<stop stop-color="#83A6FF"/>
<stop offset="1" stop-color="#5A78FF"/>
</linearGradient>
</defs>
</svg>
