<svg width="120" height="97" viewBox="0 0 120 97" fill="none" xmlns="http://www.w3.org/2000/svg">
<path d="M94.0854 43.8532C94.0854 54.335 90.1331 63.8279 83.6118 70.9476C83.6118 70.9476 83.6118 70.9475 83.6118 71.1453C74.3239 82.0226 56.9337 88.3512 38.5555 81.8249C31.639 79.0561 24.7224 73.5185 24.1296 72.1342C-0.374734 46.622 17.4106 3.31055 53.3767 3.31055C75.9048 3.31055 94.0854 21.5053 94.0854 43.8532Z" fill="#EAEEF9"/>
<path d="M83.4135 71.1455C69.9757 87.3634 41.7167 90.1323 24.1289 72.1344L83.4135 71.1455Z" fill="#E9F0F8"/>
<path d="M83.6111 71.146C74.3232 82.2211 56.9331 88.3519 38.5548 81.8256C31.6383 79.0568 24.7218 73.5193 24.1289 72.1349C25.9074 70.1572 31.0454 68.7728 41.5191 64.4219C45.0761 63.0375 44.2857 59.2799 44.2857 51.7647C43.4952 50.7758 42.7048 49.1937 42.5071 47.4137L41.7167 47.0182C39.5429 47.6115 39.7405 45.2383 39.1477 40.6896C38.9501 38.7119 39.1477 38.5141 40.1357 38.1186L40.0455 37.8122C37.2789 31.4836 36.7763 23.1773 42.9024 20.2108C42.5071 19.4197 41.5191 16.8487 41.5191 16.0576C44.4833 16.4532 49.7287 17.442 52.8905 16.8487C57.6333 15.8598 62.9689 17.6398 64.9451 22.1885C74.0354 25.7483 69.4902 34.4501 68.5021 38.01C68.3045 38.2078 68.3045 38.6033 68.3045 38.6033C68.3045 38.6033 68.3045 38.8011 68.5021 38.8011C69.095 38.9988 69.9757 38.9097 69.778 40.4918C69.3828 44.8427 69.3828 47.4137 67.2091 46.8204L65.2329 50.1825C65.2329 51.7647 64.6401 59.4777 65.2329 61.2576C65.6281 62.642 66.6162 63.6308 67.8019 64.0263C77.8803 68.575 81.4374 69.5639 83.6111 71.146Z" fill="white"/>
<path d="M83.6111 71.1456C74.3232 82.2207 56.9331 88.3515 38.5548 81.8252C31.6383 79.0564 24.7218 73.5189 24.1289 72.1345C26.8955 69.1679 41.3214 65.6081 43.2976 63.0371C48.8308 70.5523 60.2925 70.5523 65.8257 63.0371C66.221 63.6304 66.8138 64.026 67.4067 64.2237C77.8803 68.5746 81.4374 69.5635 83.6111 71.1456Z" fill="url(#paint0_linear_1794_8486)"/>
<path d="M68.61 38.1169C68.8128 37.0992 68.2044 35.6744 67.7988 34.6567C67.7988 34.4531 67.5959 34.2496 67.5959 34.2496C65.7706 30.7894 61.9171 29.3646 58.2664 29.161C48.734 28.754 47.9228 30.5858 44.8805 27.7362C46.3002 29.7717 45.8946 35.4709 39.8101 37.3027C35.551 27.5327 37.5791 21.2229 41.8383 19.1875C40.4186 16.1343 40.4186 14.9131 40.4186 14.9131C40.4186 14.9131 49.5453 16.5414 52.5875 15.7273C56.6439 14.9131 62.7284 15.9308 64.9593 21.2229C75.1001 24.8867 69.4213 35.0638 68.61 38.1169Z" fill="#1C3754"/>
<path d="M44.014 51.4306C43.8078 51.2245 43.8078 51.0185 43.6016 50.8125V50.4004C44.8388 52.4608 45.6636 52.6668 52.4685 57.4057C54.1181 58.848 56.3864 58.848 58.0361 57.4057C58.2423 57.1997 65.0471 51.2245 65.2533 50.8125C65.2533 51.6366 65.0471 60.2902 65.4595 61.3204H43.8078C44.014 60.7023 44.014 52.6668 44.014 51.4306Z" fill="url(#paint1_linear_1794_8486)"/>
<path d="M70.568 46.6221H68.5918V35.3486H70.568C72.1489 35.3486 73.5322 36.7331 73.5322 38.3153V43.6554C73.5322 45.4354 72.3465 46.6221 70.568 46.6221Z" fill="#2D5887"/>
<path d="M67.2093 52.3571C55.3524 52.3571 53.7715 52.9504 53.7715 51.3682C53.7715 50.7748 54.1667 50.3793 54.5619 50.3793H67.2093C68.395 50.3793 69.3831 49.3904 69.3831 48.2037V46.6215C69.3831 45.4348 71.1616 45.4348 71.1616 46.6215V48.2037C71.1616 50.577 69.3831 52.3571 67.2093 52.3571Z" fill="#1C3754"/>
<path d="M56.1427 52.9501H53.7713C53.1784 52.9501 52.7832 52.5545 52.7832 51.9612V50.9723C52.7832 50.379 53.1784 49.9834 53.7713 49.9834H56.1427C56.7355 49.9834 57.1307 50.379 57.1307 50.9723V51.9612C57.3284 52.5545 56.7355 52.9501 56.1427 52.9501Z" fill="#1C3754"/>
<g filter="url(#filter0_d_1794_8486)">
<path d="M106.757 71.7586C106.757 72.1541 106.56 72.3519 106.56 72.7474C106.362 73.7362 105.967 74.7251 105.571 75.7139C105.571 75.9117 105.374 76.1091 105.374 76.3069V76.5048C103.793 79.4714 101.619 81.8448 98.8523 83.6247C98.457 83.8225 98.2594 84.0198 97.8642 84.2176C97.6666 84.4154 97.4689 84.4158 97.2713 84.6135C96.876 84.8113 96.4811 85.0087 96.0859 85.2065C94.9002 85.7998 93.7142 85.9977 92.3309 86.3933C89.9595 86.7888 87.3906 86.7888 85.0192 86.3933C74.9408 84.2178 68.4197 74.329 70.3958 64.2427C72.5696 54.1565 82.4503 47.6303 92.5287 49.608C96.0858 50.3991 99.4453 52.1792 102.014 54.7502C106.164 59.1011 108.14 65.4299 106.757 71.7586Z" fill="url(#paint2_linear_1794_8486)"/>
</g>
<path d="M106.534 72.7279C106.336 73.7167 105.941 74.7055 105.546 75.6944C105.546 75.8922 105.348 76.0899 105.348 76.2877C105.15 76.4855 105.15 76.4855 104.953 76.6832C103.372 79.6498 101.198 82.023 98.6292 83.8029C98.2339 84.0007 98.0363 84.1985 97.6411 84.3962C97.4435 84.594 97.2459 84.594 97.0482 84.7918C96.653 84.9895 96.2578 85.1873 95.8626 85.3851C94.6769 85.9784 91.4334 86.1762 90.0501 86.5717L78.1523 74.9698L81.5118 68.8276L78.1523 64.8722L83.561 62.6854L86.9699 63.6305L90.7246 67.5859C90.7246 67.5859 93.8864 71.5412 93.8864 71.3435C93.6888 71.1457 91.7126 67.7836 91.7126 67.7836L96.0602 62.2461L106.534 72.7279Z" fill="url(#paint3_linear_1794_8486)"/>
<path d="M78.0781 75.102V72.1353L83.2161 66.5974C83.809 66.0041 84.0066 65.6086 84.0066 65.0152C84.0066 64.2241 83.6114 63.6308 82.8209 63.6308C82.2281 63.6308 81.4376 63.8285 81.4376 65.0152H78.0781C78.0781 62.2463 80.2519 60.6641 82.6233 60.6641C85.1923 60.6641 87.1684 62.2463 87.1684 65.0152C87.1684 66.5974 86.5756 67.3886 85.3899 68.5752L82.0304 72.1353H87.1684V75.102H78.0781Z" fill="url(#paint4_linear_1794_8486)"/>
<path d="M97.6411 73.1242V75.102H94.4792V73.1242H88.5508V69.9597L93.2936 60.6641H96.8506L92.1079 69.9597H94.4792V67.9819H97.6411V69.9597H98.6292V73.1242H97.6411Z" fill="url(#paint5_linear_1794_8486)"/>
<path d="M16.211 68.7645C16.8976 68.7645 17.5079 68.2313 17.5079 67.4697C17.5079 66.7841 16.9739 66.1748 16.211 66.1748C15.5244 66.1748 14.9141 66.708 14.9141 67.4697C14.9141 68.2313 15.4481 68.7645 16.211 68.7645Z" fill="url(#paint6_linear_1794_8486)"/>
<path d="M88.4609 21.3397C89.1475 21.3397 89.6815 20.8065 89.6815 20.121C89.6815 19.4355 89.1475 18.9023 88.4609 18.9023C87.7743 18.9023 87.2402 19.4355 87.2402 20.121C87.2402 20.8065 87.8505 21.3397 88.4609 21.3397Z" fill="url(#paint7_linear_1794_8486)"/>
<path d="M16.3691 14.621C17.0557 14.621 17.5897 14.0878 17.5897 13.4023C17.5897 12.7168 17.0557 12.1836 16.3691 12.1836C15.6825 12.1836 15.1484 12.7168 15.1484 13.4023C15.1484 14.0878 15.6825 14.621 16.3691 14.621Z" fill="url(#paint8_linear_1794_8486)"/>
<defs>
<filter id="filter0_d_1794_8486" x="63.7502" y="46.8951" width="49.738" height="50.0202" filterUnits="userSpaceOnUse" color-interpolation-filters="sRGB">
<feFlood flood-opacity="0" result="BackgroundImageFix"/>
<feColorMatrix in="SourceAlpha" type="matrix" values="0 0 0 0 0 0 0 0 0 0 0 0 0 0 0 0 0 0 127 0" result="hardAlpha"/>
<feOffset dy="3.933"/>
<feGaussianBlur stdDeviation="3.1464"/>
<feColorMatrix type="matrix" values="0 0 0 0 0.1125 0 0 0 0 0.295916 0 0 0 0 1 0 0 0 0.22 0"/>
<feBlend mode="normal" in2="BackgroundImageFix" result="effect1_dropShadow_1794_8486"/>
<feBlend mode="normal" in="SourceGraphic" in2="effect1_dropShadow_1794_8486" result="shape"/>
</filter>
<linearGradient id="paint0_linear_1794_8486" x1="24.1305" y1="73.6761" x2="83.5732" y2="73.6761" gradientUnits="userSpaceOnUse">
<stop stop-color="#FF66A9"/>
<stop offset="1" stop-color="#F53689"/>
</linearGradient>
<linearGradient id="paint1_linear_1794_8486" x1="54.4883" y1="60.9804" x2="54.4883" y2="55.2604" gradientUnits="userSpaceOnUse">
<stop stop-color="white"/>
<stop offset="0.9913" stop-color="#D6DEEA"/>
</linearGradient>
<linearGradient id="paint2_linear_1794_8486" x1="69.6342" y1="67.8757" x2="107.186" y2="67.8757" gradientUnits="userSpaceOnUse">
<stop stop-color="#83A6FF"/>
<stop offset="1" stop-color="#5A78FF"/>
</linearGradient>
<linearGradient id="paint3_linear_1794_8486" x1="87.6026" y1="67.8325" x2="96.294" y2="76.5171" gradientUnits="userSpaceOnUse">
<stop stop-color="#4F6AFF"/>
<stop offset="1" stop-color="#657EFF" stop-opacity="0"/>
</linearGradient>
<linearGradient id="paint4_linear_1794_8486" x1="93.8955" y1="78.3879" x2="77.8579" y2="64.9963" gradientUnits="userSpaceOnUse">
<stop offset="0.0113208" stop-color="#C2D1FF"/>
<stop offset="1" stop-color="white"/>
</linearGradient>
<linearGradient id="paint5_linear_1794_8486" x1="99.0546" y1="72.2084" x2="83.0169" y2="58.8166" gradientUnits="userSpaceOnUse">
<stop offset="0.0113208" stop-color="#C2D1FF"/>
<stop offset="1" stop-color="white"/>
</linearGradient>
<linearGradient id="paint6_linear_1794_8486" x1="14.9141" y1="67.5352" x2="17.3802" y2="67.5352" gradientUnits="userSpaceOnUse">
<stop stop-color="#83A6FF"/>
<stop offset="1" stop-color="#5A78FF"/>
</linearGradient>
<linearGradient id="paint7_linear_1794_8486" x1="87.3143" y1="20.1392" x2="89.6305" y2="20.1392" gradientUnits="userSpaceOnUse">
<stop stop-color="#83A6FF"/>
<stop offset="1" stop-color="#5A78FF"/>
</linearGradient>
<linearGradient id="paint8_linear_1794_8486" x1="15.1876" y1="13.4478" x2="17.5037" y2="13.4478" gradientUnits="userSpaceOnUse">
<stop stop-color="#FF66A9"/>
<stop offset="1" stop-color="#F53689"/>
</linearGradient>
</defs>
</svg>
