<svg xmlns="http://www.w3.org/2000/svg" width="200" height="200" viewBox="0 0 200 200" fill="none">
<path d="M170.589 105.262C170.589 119.229 165.912 132.18 158.076 142.592C153.779 148.179 148.597 153.131 142.657 156.94C133.051 163.289 121.55 166.971 109.164 166.971C75.1647 166.844 47.6118 139.164 47.6118 105.135C47.4854 71.106 75.1647 43.5527 109.037 43.5527C121.423 43.5527 132.925 47.235 142.53 53.4567C148.471 57.2659 153.653 62.2179 157.95 67.8047C165.786 78.2165 170.589 91.1679 170.589 105.262Z" fill="#EAEEF9"/>
<path d="M64.8081 41.9014H58.9941V45.7106H64.8081V41.9014Z" fill="#B3BFCF"/>
<path d="M64.8081 41.9014H58.9941V43.552H64.8081V41.9014Z" fill="#9FADBF"/>
<path d="M42.5621 49.6475L39.4023 52.8218L41.6774 55.1073L44.8371 51.933L42.5621 49.6475Z" fill="#B3BFCF"/>
<path d="M79.7188 51.6781L82.8785 54.8524L84.9007 52.8208L81.741 49.6465L79.7188 51.6781Z" fill="#B3BFCF"/>
<path d="M62.2786 101.706C77.8246 101.706 90.4635 89.0091 90.4635 73.3913C90.4635 57.7735 77.8246 45.0762 62.2786 45.0762C46.7327 45.0762 34.0938 57.7735 34.0938 73.3913C34.0938 89.0091 46.7327 101.706 62.2786 101.706Z" fill="#DAE1ED" stroke="#D3DAE6" stroke-width="0.64965" stroke-miterlimit="10"/>
<path d="M84.2707 73.3903C84.2707 73.6442 84.2707 73.8982 84.2707 74.1521C83.8915 85.9607 74.1595 95.4837 62.2789 95.4837C50.3983 95.4837 40.6663 85.9607 40.2871 74.1521C40.2871 73.8982 40.2871 73.6442 40.2871 73.3903C40.2871 61.4548 49.6399 51.6778 61.5206 51.2969C61.7733 51.2969 62.0261 51.2969 62.2789 51.2969C74.2859 51.2969 84.0179 60.9469 84.2707 73.0094C84.2707 73.1363 84.2707 73.2633 84.2707 73.3903Z" fill="#EDF0FC"/>
<path d="M84.2707 74.1529C83.8915 85.9614 74.1595 95.4844 62.2789 95.4844C50.3983 95.4844 40.6663 85.9614 40.2871 74.1529C40.6663 62.3443 50.3983 52.8213 62.2789 52.8213C74.2859 52.8213 83.8915 62.2173 84.2707 74.1529Z" fill="white"/>
<path d="M68.2218 87.4838H55.5828C54.9509 87.4838 54.4453 86.9759 54.4453 86.3411V79.9924C54.4453 79.3575 54.9509 78.8496 55.5828 78.8496H68.2218C68.8537 78.8496 69.3593 79.3575 69.3593 79.9924V86.3411C69.2329 86.9759 68.7273 87.4838 68.2218 87.4838Z" fill="#F2F5FC"/>
<path d="M81.3653 74.5345H77.7C77.0681 74.5345 76.5625 74.0267 76.5625 73.3918C76.5625 72.7569 77.0681 72.249 77.7 72.249H81.3653C81.9973 72.249 82.5028 72.7569 82.5028 73.3918C82.5028 74.0267 81.8709 74.5345 81.3653 74.5345Z" fill="#DAE1ED"/>
<path d="M45.7208 74.5336H42.0555C41.4235 74.5336 40.918 74.0257 40.918 73.3908C40.918 72.7559 41.4235 72.248 42.0555 72.248H45.7208C46.3527 72.248 46.8583 72.7559 46.8583 73.3908C46.8583 74.0257 46.3527 74.5336 45.7208 74.5336Z" fill="#DAE1ED"/>
<path d="M61.7742 94.2148C61.1423 94.2148 60.6367 93.7069 60.6367 93.0721V89.3898C60.6367 88.755 61.1423 88.2471 61.7742 88.2471C62.4062 88.2471 62.9117 88.755 62.9117 89.3898V93.0721C62.7853 93.8339 62.2798 94.2148 61.7742 94.2148Z" fill="#DAE1ED"/>
<path d="M61.7742 58.5341C61.1423 58.5341 60.6367 58.0263 60.6367 57.3914V53.8361C60.6367 53.2013 61.1423 52.6934 61.7742 52.6934C62.4062 52.6934 62.9117 53.2013 62.9117 53.8361V57.5184C62.7853 58.0263 62.2798 58.5341 61.7742 58.5341Z" fill="#DAE1ED"/>
<path d="M62.0264 76.4395C63.9222 76.4395 65.3125 74.9159 65.3125 73.1382C65.3125 71.2336 63.7958 69.8369 62.0264 69.8369C60.1305 69.8369 58.7402 71.3606 58.7402 73.1382C58.7402 74.9159 60.1305 76.4395 62.0264 76.4395Z" fill="#F2F5FC"/>
<path d="M76.1827 59.8052C75.8035 59.4243 75.1715 59.4243 74.7924 59.8052L63.0381 72.2486C62.9117 72.2486 62.9117 72.2486 62.9117 72.2486C62.027 72.2486 61.3951 72.8835 61.3951 73.7723C61.3951 73.8993 61.3951 73.8993 61.3951 74.0263L59.4992 76.0578C59.1201 76.4388 59.1201 77.0736 59.4992 77.4546C59.752 77.7085 59.8784 77.7085 60.1312 77.7085C60.3839 77.7085 60.6367 77.5815 60.7631 77.4546L62.659 75.423C62.7854 75.423 62.7854 75.423 62.7854 75.423C63.6701 75.423 64.302 74.7881 64.302 73.8993C64.302 73.7723 64.302 73.7723 64.302 73.6454L76.0563 61.3289C76.5618 60.821 76.5618 60.1861 76.1827 59.8052Z" fill="#DAE1ED"/>
<path d="M75.2959 59.0435C74.9168 58.6626 74.2848 58.6626 73.9056 59.0435L62.1514 71.4869C62.025 71.4869 62.025 71.4869 62.025 71.4869C61.1403 71.4869 60.5083 72.1218 60.5083 73.0106C60.5083 73.1376 60.5083 73.1376 60.5083 73.2646L58.6125 75.2961C58.2333 75.6771 58.2333 76.3119 58.6125 76.6928C58.8653 76.9468 58.9917 76.9468 59.2444 76.9468C59.4972 76.9468 59.75 76.8198 59.8764 76.6928L61.7722 74.6613C61.8986 74.6613 61.8986 74.6613 61.8986 74.6613C62.7834 74.6613 63.4153 74.0264 63.4153 73.1376C63.4153 73.0106 63.4153 73.0106 63.4153 72.8836L75.1695 60.5672C75.6751 60.0593 75.6751 59.4244 75.2959 59.0435Z" fill="#EB358A"/>
<path d="M74.9146 59.4243L58.8631 76.1848C58.7368 76.1848 58.7368 76.1848 58.6104 76.1848C58.484 75.9308 58.484 75.6769 58.7368 75.5499L74.1563 59.2973C74.4091 59.0433 74.6618 59.0433 74.9146 59.1703C74.9146 59.1703 74.9146 59.2973 74.9146 59.4243Z" fill="#FF4FA2"/>
<path d="M67.588 36.5688V40.251C67.588 41.6477 66.4505 42.7905 65.0602 42.7905H58.7407C57.3504 42.7905 56.2129 41.6477 56.2129 40.251V36.5688C56.2129 35.1721 57.3504 34.0293 58.7407 34.0293H65.0602C66.4505 34.0293 67.588 35.1721 67.588 36.5688Z" fill="#1C3754"/>
<path d="M67.588 36.5688V40.251C67.588 41.6477 66.4505 42.7905 65.0602 42.7905H58.7407C57.3504 42.7905 56.2129 41.6477 56.2129 40.251V39.6161C56.5921 41.3938 58.2351 41.3938 58.2351 41.3938H64.681C65.5657 41.3938 66.3241 40.6319 66.3241 39.7431V37.0767C66.3241 35.1721 65.9449 34.5372 65.0602 34.0293C66.4505 34.0293 67.588 35.1721 67.588 36.5688Z" fill="#172D45"/>
<path d="M43.1962 49.9003L39.7837 53.3286C39.0253 54.0904 37.7614 54.0904 37.0031 53.3286L34.9809 51.297C34.2225 50.5352 34.2225 49.2654 34.9809 48.5036L38.3934 45.0753C39.1517 44.3134 40.4156 44.3134 41.174 45.0753L43.1962 47.1069C43.9545 47.8687 43.9545 49.1384 43.1962 49.9003Z" fill="#1C3754"/>
<path d="M81.1087 49.9013L84.5212 53.3296C85.2796 54.0914 86.5435 54.0914 87.3018 53.3296L89.3241 51.298C90.0824 50.5361 90.0824 49.2664 89.3241 48.5046L85.9115 45.0763C85.1532 44.3144 83.8893 44.3144 83.131 45.0763L81.1087 47.1078C80.4768 47.8697 80.4768 49.1394 81.1087 49.9013Z" fill="#1C3754"/>
<path d="M62.0243 73.3884C62.1507 73.3884 62.277 73.262 62.277 73.1356C62.277 73.0092 62.1507 72.8828 62.0243 72.8828C61.8979 72.8828 61.7715 73.0092 61.7715 73.1356C61.7715 73.262 61.8979 73.3884 62.0243 73.3884Z" fill="#1C3754"/>
<path opacity="0.4" d="M84.2716 73.0103H61.5215V51.2979C61.7743 51.2979 62.027 51.2979 62.2798 51.2979C74.4132 51.2979 84.1452 61.0748 84.2716 73.0103Z" fill="url(#paint0_linear_1739_7171)"/>
<path d="M37.881 112.373C39.0186 112.373 40.0297 111.484 40.0297 110.214C40.0297 109.071 39.1449 108.056 37.881 108.056C36.7435 108.056 35.7324 108.944 35.7324 110.214C35.8588 111.484 36.7435 112.373 37.881 112.373Z" fill="url(#paint1_linear_1739_7171)"/>
<path d="M167.431 68.2098C169.327 66.4322 169.453 63.5118 167.684 61.6072C165.914 59.7026 163.007 59.5756 160.985 61.3533C159.089 63.1309 158.963 66.0513 160.732 67.9559C162.502 69.8605 165.535 69.9875 167.431 68.2098Z" fill="#EAEEF9"/>
<path d="M168.007 49.8219C169.144 49.8219 170.029 48.9331 170.029 47.7904C170.029 46.6476 169.144 45.7588 168.007 45.7588C166.869 45.7588 165.984 46.6476 165.984 47.7904C166.111 48.9331 166.995 49.8219 168.007 49.8219Z" fill="url(#paint2_linear_1739_7171)"/>
<path d="M119.278 54.2194C120.416 54.2194 121.3 53.3306 121.3 52.1878C121.3 51.0451 120.416 50.1562 119.278 50.1562C118.141 50.1562 117.256 51.0451 117.256 52.1878C117.256 53.3306 118.141 54.2194 119.278 54.2194Z" fill="url(#paint3_linear_1739_7171)"/>
<path d="M31.4363 103.739C32.5738 103.739 33.4585 102.85 33.4585 101.707C33.4585 100.565 32.5738 99.6758 31.4363 99.6758C30.2988 99.6758 29.4141 100.565 29.4141 101.707C29.4141 102.85 30.2988 103.739 31.4363 103.739Z" fill="url(#paint4_linear_1739_7171)"/>
<path d="M122.689 139.799C127.785 139.799 131.916 135.535 131.916 130.276C131.916 125.017 127.785 120.753 122.689 120.753C117.594 120.753 113.463 125.017 113.463 130.276C113.463 135.535 117.594 139.799 122.689 139.799Z" fill="#1C3754"/>
<path d="M124.333 136.118H122.689V139.8H124.333V136.118Z" fill="#1C3754"/>
<path d="M52.4179 139.8C57.5135 139.8 61.6443 135.536 61.6443 130.277C61.6443 125.018 57.5135 120.754 52.4179 120.754C47.3222 120.754 43.1914 125.018 43.1914 130.277C43.1914 135.536 47.3222 139.8 52.4179 139.8Z" fill="#1C3754"/>
<path d="M55.1991 134.085H52.5449V139.799H55.1991V134.085Z" fill="#1C3754"/>
<path d="M158.206 77.4567V118.342H71.25V79.8692C71.25 76.3139 74.0306 73.5205 77.5695 73.5205H154.288C156.437 73.5205 158.206 75.2981 158.206 77.4567Z" fill="url(#paint5_linear_1739_7171)"/>
<path opacity="0.7" d="M99.3056 87.1055H87.6777V120.753H99.3056V87.1055Z" fill="url(#paint6_linear_1739_7171)"/>
<path d="M166.04 77.4557V118.341H98.8008V79.8682C98.8008 76.3129 101.581 73.5195 105.12 73.5195H162.122C164.271 73.5195 166.04 75.2972 166.04 77.4557Z" fill="#EAEEF9"/>
<path d="M166.04 77.4557V118.341H98.8008V79.8682C98.8008 76.3129 101.581 73.5195 105.12 73.5195H162.122C164.271 73.5195 166.04 75.2972 166.04 77.4557Z" fill="url(#paint7_linear_1739_7171)"/>
<path d="M124.459 139.799C129.554 139.799 133.685 135.535 133.685 130.276C133.685 125.017 129.554 120.753 124.459 120.753C119.363 120.753 115.232 125.017 115.232 130.276C115.232 135.535 119.363 139.799 124.459 139.799Z" fill="#112133"/>
<path d="M55.3202 139.8C60.4158 139.8 64.5466 135.536 64.5466 130.277C64.5466 125.018 60.4158 120.754 55.3202 120.754C50.2246 120.754 46.0938 125.018 46.0938 130.277C46.0938 135.536 50.2246 139.8 55.3202 139.8Z" fill="#112133"/>
<path d="M135.202 118.213V130.403H35.2279C34.2168 130.403 33.332 129.514 33.332 128.498V114.277C33.332 112.246 33.964 110.341 35.1015 108.69L51.0266 85.0732H84.2671L69.1003 118.213H135.202Z" fill="#EAEEF9"/>
<path d="M166.042 118.213V130.403H58.4844V114.658C58.4844 112.373 59.1163 110.087 60.5066 108.182L75.1678 86.47C75.7998 85.5812 76.8109 84.9463 77.9484 84.9463H92.3568C93.1151 84.9463 93.6207 85.4542 93.6207 86.216V118.213H166.042Z" fill="#CAD1E0"/>
<path opacity="0.4" d="M136.718 118.213H114.727V128.498H136.718V118.213Z" fill="url(#paint8_linear_1739_7171)"/>
<path d="M157.699 128.5C156.941 123.294 152.517 119.23 147.209 119.23C141.901 119.23 137.477 123.294 136.719 128.5H88.6907C87.806 123.294 83.3823 119.23 77.9476 119.23C72.5128 119.23 67.9628 123.294 67.2045 128.5H33.332V128.627C33.332 129.642 34.2168 130.531 35.2279 130.531H66.9517H88.8171H136.466H157.699H165.915V128.627H157.699V128.5Z" fill="#ACB7CF"/>
<path d="M36.1132 121.134C37.0904 121.134 37.8827 119.769 37.8827 118.086C37.8827 116.403 37.0904 115.039 36.1132 115.039C35.136 115.039 34.3438 116.403 34.3438 118.086C34.3438 119.769 35.136 121.134 36.1132 121.134Z" fill="#4C5463"/>
<path d="M53.6796 121.134C54.6569 121.134 55.4491 119.769 55.4491 118.086C55.4491 116.403 54.6569 115.039 53.6796 115.039C52.7024 115.039 51.9102 116.403 51.9102 118.086C51.9102 119.769 52.7024 121.134 53.6796 121.134Z" fill="#4C5463"/>
<path d="M48.8779 125.833H40.5362C39.6515 125.833 39.0195 125.071 39.0195 124.309V117.072C39.0195 116.183 39.7779 115.548 40.5362 115.548H48.8779C49.7626 115.548 50.3946 116.31 50.3946 117.072V124.309C50.3946 125.198 49.7626 125.833 48.8779 125.833Z" fill="#CAD1E0"/>
<path d="M72.3844 87.4863L67.076 95.2317L63.2843 100.819L58.4815 107.675H38.1328L40.2814 104.628L42.0509 102.088L43.8203 99.5488L47.3593 94.4699L52.1621 87.4863H72.3844Z" fill="white"/>
<path d="M91.2179 88.629V107.675H64.2969L77.1886 88.2481C77.315 87.9942 77.5678 87.8672 77.8206 87.8672H90.4595C90.8387 87.8672 91.2179 88.2481 91.2179 88.629Z" fill="white"/>
<path d="M87.5544 112.627H90.5877C90.8405 112.627 91.0933 112.373 91.0933 112.119C91.0933 111.865 90.8405 111.611 90.5877 111.611H87.5544C87.3016 111.611 87.0488 111.865 87.0488 112.119C87.0488 112.5 87.3016 112.627 87.5544 112.627Z" fill="#4C5463"/>
<path d="M85.1518 130.404C85.0254 135.61 80.8546 139.8 75.6726 139.8C70.4906 139.8 66.3197 135.61 66.1934 130.404H85.1518Z" fill="#112133"/>
<path d="M78.1997 131.166H75.6719V139.927H78.1997V131.166Z" fill="#112133"/>
<path d="M77.8191 139.799C83.0543 139.799 87.2983 135.535 87.2983 130.276C87.2983 125.017 83.0543 120.753 77.8191 120.753C72.5838 120.753 68.3398 125.017 68.3398 130.276C68.3398 135.535 72.5838 139.799 77.8191 139.799Z" fill="#1C3754"/>
<path d="M77.8221 134.72C80.2652 134.72 82.2457 132.731 82.2457 130.276C82.2457 127.822 80.2652 125.832 77.8221 125.832C75.379 125.832 73.3984 127.822 73.3984 130.276C73.3984 132.731 75.379 134.72 77.8221 134.72Z" fill="#112133"/>
<path d="M154.035 130.404C153.909 135.61 149.864 139.8 144.808 139.8C139.753 139.8 135.708 135.61 135.582 130.404H154.035Z" fill="#112133"/>
<path d="M147.082 135.863H144.807V139.799H147.082V135.863Z" fill="#112133"/>
<path d="M147.084 139.799C152.179 139.799 156.31 135.535 156.31 130.276C156.31 125.017 152.179 120.753 147.084 120.753C141.988 120.753 137.857 125.017 137.857 130.276C137.857 135.535 141.988 139.799 147.084 139.799Z" fill="#1C3754"/>
<path d="M147.084 134.72C149.458 134.72 151.382 132.731 151.382 130.276C151.382 127.822 149.458 125.832 147.084 125.832C144.711 125.832 142.787 127.822 142.787 130.276C142.787 132.731 144.711 134.72 147.084 134.72Z" fill="#112133"/>
<path d="M116.621 122.276H91.2168V125.959H116.621V122.276Z" fill="#DAE1ED"/>
<path d="M116.118 125.831H91.7246V140.941H116.118V125.831Z" fill="#DAE1ED"/>
<path d="M99.0549 122.276V140.941H91.7243V125.832H91.2188V122.276H99.0549Z" fill="white"/>
<path opacity="0.4" d="M107.521 122.276H105.246V140.941H107.521V122.276Z" fill="white"/>
<path opacity="0.15" d="M116.623 122.276V125.832H116.117V128.625L111.314 126.34L110.43 125.832L107.523 124.435L105.248 123.419L103.857 122.657L102.973 122.276H116.623Z" fill="#4C5463"/>
<path d="M116.118 125.831H91.7246V126.21H116.118V125.831Z" fill="#ACB7CF"/>
<path d="M121.174 103.485H95.7695V107.168H121.174V103.485Z" fill="#DAE1ED"/>
<path d="M120.542 107.165H96.1484V122.275H120.542V107.165Z" fill="#DAE1ED"/>
<path d="M103.604 103.483V122.275H96.1467V107.166H95.7676V103.483H103.604Z" fill="white"/>
<path opacity="0.4" d="M112.07 103.483H109.795V122.149H112.07V103.483Z" fill="white"/>
<path d="M120.542 107.165H96.1484V107.544H120.542V107.165Z" fill="#ACB7CF"/>
<path d="M118.139 95.4857C117.254 96.2476 117.001 97.5173 117.76 98.5331C117.886 98.66 118.012 98.787 118.139 98.914L128.25 106.913C129.135 107.675 130.399 107.421 131.157 106.532C131.41 106.151 131.536 105.771 131.536 105.263V102.215H151.758C152.138 102.215 152.39 101.961 152.39 101.58V100.184V92.9462C152.39 92.5653 152.138 92.3114 151.758 92.3114H131.536V89.264C131.536 88.1212 130.651 87.2324 129.514 87.2324C129.008 87.2324 128.629 87.3594 128.25 87.6133L118.139 95.4857Z" fill="url(#paint9_linear_1739_7171)"/>
<path d="M40.5391 140.309H169.709" stroke="#1C3754" stroke-width="1.17648" stroke-miterlimit="10" stroke-linecap="round" stroke-linejoin="round"/>
<path d="M33.459 140.309H35.8604" stroke="#1C3754" stroke-width="1.17648" stroke-miterlimit="10" stroke-linecap="round" stroke-linejoin="round"/>
<path opacity="0.3" d="M63.5371 87.4863L43.8203 99.5488L47.3592 94.4699L58.6079 87.4863H63.5371Z" fill="#EAEEF9"/>
<path opacity="0.3" d="M68.3437 87.4863L40.2852 104.628L42.0546 102.088L65.9423 87.4863H68.3437Z" fill="#EAEEF9"/>
<path opacity="0.3" d="M67.0767 95.2314L63.285 100.818L51.9099 107.675H46.6016L67.0767 95.2314Z" fill="#EAEEF9"/>
<defs>
<linearGradient id="paint0_linear_1739_7171" x1="59.9928" y1="55.6624" x2="80.4052" y2="75.991" gradientUnits="userSpaceOnUse">
<stop stop-color="#EF4896"/>
<stop offset="1" stop-color="#F14D9A" stop-opacity="0"/>
</linearGradient>
<linearGradient id="paint1_linear_1739_7171" x1="35.8055" y1="110.292" x2="39.891" y2="110.292" gradientUnits="userSpaceOnUse">
<stop stop-color="#83A6FF"/>
<stop offset="1" stop-color="#5A78FF"/>
</linearGradient>
<linearGradient id="paint2_linear_1739_7171" x1="166.107" y1="47.7902" x2="169.944" y2="47.7902" gradientUnits="userSpaceOnUse">
<stop stop-color="#83A6FF"/>
<stop offset="1" stop-color="#5A78FF"/>
</linearGradient>
<linearGradient id="paint3_linear_1739_7171" x1="117.305" y1="52.2258" x2="121.142" y2="52.2258" gradientUnits="userSpaceOnUse">
<stop stop-color="#FF66A9"/>
<stop offset="1" stop-color="#F53689"/>
</linearGradient>
<linearGradient id="paint4_linear_1739_7171" x1="29.4495" y1="101.717" x2="33.2866" y2="101.717" gradientUnits="userSpaceOnUse">
<stop stop-color="#FF66A9"/>
<stop offset="1" stop-color="#F53689"/>
</linearGradient>
<linearGradient id="paint5_linear_1739_7171" x1="111.457" y1="72.9194" x2="116.12" y2="108.273" gradientUnits="userSpaceOnUse">
<stop stop-color="#83A6FF"/>
<stop offset="1" stop-color="#5A78FF"/>
</linearGradient>
<linearGradient id="paint6_linear_1739_7171" x1="93.5292" y1="87.0492" x2="93.5292" y2="120.507" gradientUnits="userSpaceOnUse">
<stop offset="0.00289017" stop-color="#0F2F73" stop-opacity="0"/>
<stop offset="1" stop-color="#0A1D47"/>
</linearGradient>
<linearGradient id="paint7_linear_1739_7171" x1="167.476" y1="109.901" x2="92.9535" y2="81.5973" gradientUnits="userSpaceOnUse">
<stop stop-color="#83A6FF"/>
<stop offset="1" stop-color="#5A78FF"/>
</linearGradient>
<linearGradient id="paint8_linear_1739_7171" x1="130.572" y1="123.56" x2="110.266" y2="122.842" gradientUnits="userSpaceOnUse">
<stop offset="0.00289017" stop-color="#0F2F73" stop-opacity="0"/>
<stop offset="1" stop-color="#0A1D47"/>
</linearGradient>
<linearGradient id="paint9_linear_1739_7171" x1="117.267" y1="97.207" x2="152.475" y2="97.207" gradientUnits="userSpaceOnUse">
<stop stop-color="white"/>
<stop offset="1" stop-color="white" stop-opacity="0"/>
</linearGradient>
</defs>
</svg>