<svg width="120" height="90" viewBox="0 0 120 90" fill="none" xmlns="http://www.w3.org/2000/svg">
<path d="M105.32 45.0002C105.32 54.1691 102.263 62.6712 97.1395 69.5062C94.33 73.1737 90.9421 76.4245 87.0585 78.9251C80.7785 83.0928 73.2591 85.5101 65.1612 85.5101C42.9335 85.4267 24.9199 67.2556 24.9199 44.9168C24.9199 22.578 42.9335 4.49023 65.0786 4.49023C73.1764 4.49023 80.6959 6.90749 86.9758 10.9918C90.8595 13.4924 94.2474 16.7432 97.0568 20.4108C102.263 27.3292 105.32 35.7479 105.32 45.0002Z" fill="#EAEEF9"/>
<path d="M114.079 32.5806C115.318 31.4136 115.401 29.4965 114.244 28.2462C113.087 26.9958 111.187 26.9125 109.865 28.0794C108.625 29.2464 108.542 31.1635 109.699 32.4138C110.939 33.6642 112.839 33.7475 114.079 32.5806Z" fill="#EAEEF9"/>
<path d="M113.502 19.0775C114.245 19.0775 114.824 18.494 114.824 17.7438C114.824 16.9936 114.245 16.4102 113.502 16.4102C112.758 16.4102 112.18 16.9936 112.18 17.7438C112.18 18.494 112.758 19.0775 113.502 19.0775Z" fill="url(#paint0_linear_1794_8455)"/>
<path d="M67.9702 82.4273C68.9618 82.4273 69.7881 81.5938 69.7881 80.5936C69.7881 79.5933 68.9618 78.7598 67.9702 78.7598C66.9787 78.7598 66.1523 79.5933 66.1523 80.5936C66.1523 81.6772 66.9787 82.4273 67.9702 82.4273Z" fill="url(#paint1_linear_1794_8455)"/>
<path d="M110.443 46.5013C111.187 46.5013 111.765 45.9178 111.765 45.1676C111.765 44.4175 111.187 43.834 110.443 43.834C109.7 43.834 109.121 44.4175 109.121 45.1676C109.121 45.9178 109.7 46.5013 110.443 46.5013Z" fill="url(#paint2_linear_1794_8455)"/>
<path d="M59.2948 14.2425C60.0384 14.2425 60.6169 13.659 60.6169 12.9089C60.6169 12.1587 60.0384 11.5752 59.2948 11.5752C58.5511 11.5752 57.9727 12.1587 57.9727 12.9089C57.9727 13.659 58.6337 14.2425 59.2948 14.2425Z" fill="url(#paint3_linear_1794_8455)"/>
<path d="M101.354 33.5806L98.2964 62.5877C98.2964 62.7544 98.2964 62.9211 98.2138 63.0045L98.2964 62.421C98.0485 64.9216 96.7264 67.2555 94.8259 68.8393C93.1733 70.2563 91.0249 71.0898 88.7938 71.0898H36.4884C34.8358 71.0898 33.3484 70.5897 32.1089 69.8395C31.6958 69.5894 31.2826 69.256 30.9521 68.8393C30.2084 68.0891 29.5474 67.0888 29.2169 66.0052C29.0516 65.5051 28.969 65.0883 28.8863 64.5882C28.8863 64.5882 28.8863 64.5882 28.8863 64.5049C28.8863 64.0881 28.8037 63.588 28.8863 63.0879L32.5221 28.0793C32.5221 27.9959 32.5221 27.9959 32.5221 27.9126C32.9353 26.4956 33.5963 25.2452 34.5052 24.1616C36.3231 22.0778 38.8847 20.7441 41.6941 20.7441H94.0822C96.8917 20.7441 99.2053 22.0778 100.61 24.245C101.271 25.3286 101.767 26.5789 101.85 27.9959C101.85 28.1626 101.85 28.4127 101.85 28.5794C101.85 28.8295 101.85 29.1629 101.767 29.4129L101.354 33.5806Z" fill="#526DFF"/>
<path d="M101.767 29.3294L98.2964 62.3375C98.0485 64.8381 96.7264 67.172 94.8259 68.7557C93.1733 70.1728 91.0249 71.0063 88.7938 71.0063H36.4884C34.8358 71.0063 33.3484 70.5062 32.1089 69.756C31.6958 69.5059 31.2826 69.1725 30.9521 68.7557C30.2084 68.0056 29.5474 67.0053 29.2169 65.9217C29.0516 65.4216 28.969 65.0048 28.8863 64.5047C28.8863 64.5047 28.8863 64.5047 28.8863 64.4213C28.8863 64.0046 28.8037 63.5045 28.8863 63.0043L32.5221 27.9958C32.5221 27.9124 32.5221 27.9124 32.5221 27.829C32.9353 26.412 33.5963 25.1617 34.5052 24.0781L61.5256 45.3333L61.7735 45.5L64.2524 47.4172L65.244 46.7503L66.1529 46.1669L100.61 24.0781C101.271 25.1617 101.767 26.412 101.85 27.829C101.85 27.9958 101.85 28.2458 101.85 28.4125C101.85 28.7459 101.767 29.0793 101.767 29.3294Z" fill="#738DFF"/>
<path d="M94.9085 68.7557C93.2559 70.1728 91.1075 71.0063 88.8765 71.0063H36.4884C34.8358 71.0063 33.3484 70.5062 32.1089 69.756C31.6958 69.5059 31.2826 69.1725 30.9521 68.7557C30.2084 68.0056 29.5474 67.0053 29.2169 65.9217C29.0516 65.4216 28.969 65.0048 28.8863 64.5047C28.8863 64.5047 28.8863 64.5047 28.8863 64.4213C28.8863 64.0046 28.8037 63.5045 28.8863 63.0043L32.5221 27.9958C32.5221 27.9124 32.5221 27.9124 32.5221 27.829C32.9353 26.412 33.5963 25.1617 34.5052 24.0781L37.48 26.3287L62.3519 44.7499L65.1614 46.8337L65.9877 47.4172L66.0703 47.5005L68.5492 49.3343L69.3755 49.9178L72.6808 52.3351L76.895 55.4191L79.4565 57.3363L91.9338 66.5885L94.9085 68.7557Z" fill="url(#paint4_linear_1794_8455)"/>
<path d="M66.1523 46.2507L65.8217 49.0847L64.0865 50.1683L62.5165 51.1686L61.6076 51.7521L58.3023 53.7526L57.2281 54.4194L32.1909 69.7565C31.7778 69.5064 31.3646 69.173 31.0341 68.7562C30.2904 68.006 29.6294 67.0058 29.2988 65.9222L53.9229 50.1683L57.7239 47.7511L58.7155 47.0842L61.6076 45.2505L62.5165 44.667L63.0949 45.0838L64.9954 46.5841L65.2433 46.6675H65.326L66.1523 46.2507Z" fill="url(#paint5_linear_1794_8455)"/>
<path d="M62.3516 50.085C62.269 50.335 62.1863 50.5851 62.1037 50.8351C62.0211 51.0852 61.8558 51.3353 61.7732 51.5853C61.1947 52.5856 60.3684 53.5858 59.4595 54.336L58.3853 53.6692L56.65 52.3355L53.8406 50.2517L31.9434 33.5809L32.5218 28.1629C32.5218 28.0796 32.5218 28.0796 32.5218 27.9962L33.8439 27.4961L58.6332 47.2509L61.36 49.4181L62.1037 50.0016L62.3516 50.085Z" fill="url(#paint6_linear_1794_8455)"/>
<path d="M34.5039 24.1621L37.5613 26.3293L62.4332 44.7505L63.0116 45.1673L65.16 46.8343H65.2427" stroke="#A6BDFF" stroke-width="0.371905" stroke-miterlimit="10"/>
<g filter="url(#filter0_d_1794_8455)">
<path d="M101.768 29.33L98.2974 62.3381C98.0495 64.8387 96.7274 67.1727 94.8269 68.7564C93.1743 70.1734 91.0259 71.0069 88.7949 71.0069H36.4894C34.8368 71.0069 33.3494 70.5068 32.11 69.7566C31.6968 69.5066 31.2836 69.1731 30.9531 68.7564L34.341 66.5892L55.0814 53.2526L56.5687 52.3357L59.7087 50.3352L60.3698 49.9184L61.2787 49.3349L64.1708 47.5012L65.1624 46.8343L66.0713 46.2509L100.528 24.1621C101.19 25.2457 101.685 26.496 101.768 27.913C101.768 28.0797 101.768 28.3298 101.768 28.4965C101.851 28.7466 101.768 29.08 101.768 29.33Z" fill="url(#paint7_linear_1794_8455)"/>
</g>
<path d="M101.766 29.3299L101.353 33.4976L77.3072 49.3348L74.4151 51.2519L72.6799 52.3355L69.5399 54.4194C64.4994 57.5035 59.5416 55.8364 57.2279 54.336C56.4016 53.8359 55.9884 53.3358 55.9058 53.0857C55.6579 53.1691 55.41 53.2524 55.1621 53.3358L56.6495 52.4189L59.7894 50.4184C60.2852 50.2517 60.6158 50.085 60.6158 50.085C60.5331 49.9183 61.1942 49.9183 62.1857 50.0016C62.7642 50.0016 63.5078 50.085 64.2515 50.1683C65.9868 50.335 67.6394 50.4184 67.5568 50.1683L68.7136 49.4181L100.774 27.4961L101.931 27.9129C101.931 28.0796 101.931 28.3296 101.931 28.4963C101.849 28.7464 101.766 29.0798 101.766 29.3299Z" fill="url(#paint8_linear_1794_8455)"/>
<path d="M101.766 29.3299L101.353 33.4976L77.3072 49.3348L74.4151 51.2519L72.6799 52.3355L69.5399 54.4194C64.4994 57.5035 59.5416 55.8364 57.2279 54.336C56.4016 53.8359 55.9884 53.3358 55.9058 53.0857C55.6579 53.1691 55.41 53.2524 55.1621 53.3358L56.6495 52.4189L59.7894 50.4184C60.2852 50.2517 60.6158 50.085 60.6158 50.085C60.5331 49.9183 61.1942 49.9183 62.1857 50.0016C62.7642 50.0016 63.5078 50.085 64.2515 50.1683C65.9868 50.335 67.6394 50.4184 67.5568 50.1683L68.7136 49.4181L100.774 27.4961L101.931 27.9129C101.931 28.0796 101.931 28.3296 101.931 28.4963C101.849 28.7464 101.766 29.0798 101.766 29.3299Z" fill="url(#paint9_linear_1794_8455)"/>
<path d="M100.611 24.1621L66.1539 46.2509L65.245 46.8343L64.2534 47.5012L61.3613 49.3349L60.3698 49.9184L59.7087 50.3352L56.6514 52.3357L55.164 53.3359L34.4236 66.5892L30.9531 68.7564" stroke="#99B3FF" stroke-width="0.371905" stroke-miterlimit="10"/>
<path d="M93.505 54.7527H74.9956C74.5825 54.7527 74.252 54.336 74.252 53.8358C74.3346 53.3357 74.7477 52.9189 75.1609 52.9189H93.5876C94.0008 52.9189 94.3313 53.3357 94.3313 53.8358C94.3313 54.336 93.9181 54.7527 93.505 54.7527Z" fill="url(#paint10_linear_1794_8455)"/>
<path d="M92.8423 60.9207H74.4156C74.0024 60.9207 73.6719 60.5039 73.6719 60.0038C73.7545 59.5037 74.1677 59.0869 74.5808 59.0869H93.0075C93.4207 59.0869 93.7512 59.5037 93.7512 60.0038C93.6686 60.5039 93.2554 60.9207 92.8423 60.9207Z" fill="url(#paint11_linear_1794_8455)"/>
<path d="M101.767 27.9122C101.767 28.0789 101.767 28.329 101.767 28.4957L69.4582 49.9176C67.9708 50.9179 66.4008 51.3346 64.7482 51.3346C64.0045 51.3346 63.2608 51.2513 62.5998 51.0012C62.5171 51.0012 62.5172 51.0012 62.4345 51.0012C62.3519 51.0012 62.1866 50.9179 62.104 50.8345H62.0214C61.9387 50.8345 61.8561 50.7511 61.7735 50.7511C61.6082 50.6678 61.3603 50.5844 61.1951 50.5011C61.1124 50.4177 61.0298 50.4177 60.9472 50.3344C60.7819 50.251 60.6993 50.1677 60.534 50.0843C60.4514 50.0843 60.4514 50.001 60.3687 50.001L57.6419 47.8338L32.4395 28.4957V28.1623C32.4395 28.0789 32.4395 28.0789 32.4395 27.9956C32.8526 26.5786 33.5137 25.3283 34.4226 24.2447C36.2405 22.1608 38.802 20.8271 41.6115 20.8271H93.9996C96.809 20.8271 99.1227 22.1608 100.527 24.328C101.271 25.2449 101.684 26.4952 101.767 27.9122Z" fill="url(#paint12_linear_1794_8455)"/>
<path d="M101.85 28.4961L69.4582 49.918C67.9708 50.9183 66.4008 51.335 64.7482 51.335C64.0045 51.335 63.2608 51.2517 62.5998 51.0016C62.5172 51.0016 62.5172 51.0016 62.4345 51.0016C62.3519 51.0016 62.1866 50.9183 62.104 50.8349H62.0214C61.9387 50.8349 61.8561 50.7515 61.7735 50.7515C61.6082 50.6682 61.3603 50.5848 61.1951 50.5015C61.1124 50.4181 61.0298 50.4181 60.9472 50.3348C60.7819 50.2514 60.6993 50.1681 60.534 50.0847C60.4514 50.0847 60.4514 50.0014 60.3687 50.0014L57.6419 47.8342L32.4395 28.4961" stroke="#99B3FF" stroke-width="0.371905" stroke-miterlimit="10"/>
<path d="M6.53669 35.2779H25.0416C25.9554 35.2779 26.6408 34.5063 26.6408 33.6575C26.6408 32.7316 25.8793 32.0371 25.0416 32.0371H6.53669C5.62287 32.0371 4.9375 32.8087 4.9375 33.6575C4.9375 34.5834 5.69902 35.2779 6.53669 35.2779Z" fill="url(#paint13_linear_1794_8455)"/>
<path d="M13.0253 45.8111H24.1873C25.1305 45.8111 25.838 45.0395 25.838 44.1907C25.838 43.2648 25.0519 42.5703 24.1873 42.5703H13.0253C12.082 42.5703 11.3746 43.3419 11.3746 44.1907C11.296 45.1167 12.082 45.8111 13.0253 45.8111Z" fill="url(#paint14_linear_1794_8455)"/>
<path d="M20.2956 56.3433H23.3475C24.3113 56.3433 25.0341 55.5717 25.0341 54.7229C25.0341 53.797 24.231 53.1025 23.3475 53.1025H20.2956C19.3319 53.1025 18.6091 53.8742 18.6091 54.7229C18.5287 55.6489 19.3319 56.3433 20.2956 56.3433Z" fill="url(#paint15_linear_1794_8455)"/>
<defs>
<filter id="filter0_d_1794_8455" x="24.6603" y="21.8023" width="83.4372" height="59.4303" filterUnits="userSpaceOnUse" color-interpolation-filters="sRGB">
<feFlood flood-opacity="0" result="BackgroundImageFix"/>
<feColorMatrix in="SourceAlpha" type="matrix" values="0 0 0 0 0 0 0 0 0 0 0 0 0 0 0 0 0 0 127 0" result="hardAlpha"/>
<feOffset dy="3.933"/>
<feGaussianBlur stdDeviation="3.1464"/>
<feColorMatrix type="matrix" values="0 0 0 0 0.1125 0 0 0 0 0.295916 0 0 0 0 1 0 0 0 0.22 0"/>
<feBlend mode="normal" in2="BackgroundImageFix" result="effect1_dropShadow_1794_8455"/>
<feBlend mode="normal" in="SourceGraphic" in2="effect1_dropShadow_1794_8455" result="shape"/>
</filter>
<linearGradient id="paint0_linear_1794_8455" x1="112.198" y1="17.7734" x2="114.706" y2="17.7734" gradientUnits="userSpaceOnUse">
<stop stop-color="#83A6FF"/>
<stop offset="1" stop-color="#5A78FF"/>
</linearGradient>
<linearGradient id="paint1_linear_1794_8455" x1="66.1656" y1="80.6658" x2="69.6238" y2="80.6658" gradientUnits="userSpaceOnUse">
<stop stop-color="#FF66A9"/>
<stop offset="1" stop-color="#F53689"/>
</linearGradient>
<linearGradient id="paint2_linear_1794_8455" x1="109.178" y1="45.1786" x2="111.687" y2="45.1786" gradientUnits="userSpaceOnUse">
<stop stop-color="#FF66A9"/>
<stop offset="1" stop-color="#F53689"/>
</linearGradient>
<linearGradient id="paint3_linear_1794_8455" x1="58.0351" y1="12.9407" x2="60.5959" y2="12.9407" gradientUnits="userSpaceOnUse">
<stop stop-color="#FF66A9"/>
<stop offset="1" stop-color="#F53689"/>
</linearGradient>
<linearGradient id="paint4_linear_1794_8455" x1="31.2558" y1="47.5816" x2="97.775" y2="54.5121" gradientUnits="userSpaceOnUse">
<stop stop-color="#83A6FF"/>
<stop offset="1" stop-color="#5A78FF"/>
</linearGradient>
<linearGradient id="paint5_linear_1794_8455" x1="49.1622" y1="58.7937" x2="47.2491" y2="55.8265" gradientUnits="userSpaceOnUse">
<stop stop-color="#4F6AFF"/>
<stop offset="1" stop-color="#657EFF" stop-opacity="0"/>
</linearGradient>
<linearGradient id="paint6_linear_1794_8455" x1="47.4968" y1="39.5243" x2="44.3855" y2="42.9962" gradientUnits="userSpaceOnUse">
<stop stop-color="#4F6AFF"/>
<stop offset="1" stop-color="#657EFF" stop-opacity="0"/>
</linearGradient>
<linearGradient id="paint7_linear_1794_8455" x1="97.0171" y1="47.5981" x2="31.7175" y2="40.7946" gradientUnits="userSpaceOnUse">
<stop stop-color="#83A6FF"/>
<stop offset="1" stop-color="#5A78FF"/>
</linearGradient>
<linearGradient id="paint8_linear_1794_8455" x1="79.1053" y1="41.8915" x2="81.0387" y2="45.3274" gradientUnits="userSpaceOnUse">
<stop stop-color="#4F6AFF"/>
<stop offset="1" stop-color="#657EFF" stop-opacity="0"/>
</linearGradient>
<linearGradient id="paint9_linear_1794_8455" x1="68.0445" y1="59.2444" x2="70.8541" y2="54.4308" gradientUnits="userSpaceOnUse">
<stop stop-color="#718CFF"/>
<stop offset="1" stop-color="#7894FF" stop-opacity="0"/>
</linearGradient>
<linearGradient id="paint10_linear_1794_8455" x1="74.3074" y1="53.8176" x2="94.1778" y2="55.8879" gradientUnits="userSpaceOnUse">
<stop stop-color="#83A6FF"/>
<stop offset="1" stop-color="#5A78FF"/>
</linearGradient>
<linearGradient id="paint11_linear_1794_8455" x1="73.6671" y1="59.9471" x2="93.5375" y2="62.0174" gradientUnits="userSpaceOnUse">
<stop stop-color="#83A6FF"/>
<stop offset="1" stop-color="#5A78FF"/>
</linearGradient>
<linearGradient id="paint12_linear_1794_8455" x1="64.7816" y1="51.0169" x2="64.7816" y2="20.8205" gradientUnits="userSpaceOnUse">
<stop stop-color="#87A9FF"/>
<stop offset="1" stop-color="#91A6FF"/>
</linearGradient>
<linearGradient id="paint13_linear_1794_8455" x1="20.9109" y1="32.1347" x2="20.5723" y2="35.937" gradientUnits="userSpaceOnUse">
<stop stop-color="#FF66A9"/>
<stop offset="1" stop-color="#F53689"/>
</linearGradient>
<linearGradient id="paint14_linear_1794_8455" x1="22.0181" y1="42.6679" x2="21.5151" y2="46.4332" gradientUnits="userSpaceOnUse">
<stop stop-color="#FF66A9"/>
<stop offset="1" stop-color="#F53689"/>
</linearGradient>
<linearGradient id="paint15_linear_1794_8455" x1="23.3364" y1="53.2001" x2="22.28" y2="56.7151" gradientUnits="userSpaceOnUse">
<stop stop-color="#FF66A9"/>
<stop offset="1" stop-color="#F53689"/>
</linearGradient>
</defs>
</svg>
