<svg width="223" height="50" viewBox="0 0 223 50" fill="none" xmlns="http://www.w3.org/2000/svg">
<path fill-rule="evenodd" clip-rule="evenodd" d="M8.44857 2.93318C7.91092 3.56349 7.05068 4.06064 6.19044 3.98962C6.08291 3.13737 6.50407 2.23185 6.99692 1.67256C7.53457 1.02449 8.47545 0.562854 9.23713 0.527344C9.32673 1.41511 8.97726 2.28511 8.44857 2.93318ZM9.22808 4.15824C8.47022 4.11503 7.77871 4.38404 7.22016 4.60133C6.86072 4.74116 6.55634 4.85958 6.32477 4.85958C6.06491 4.85958 5.74796 4.73483 5.3921 4.59478C4.92581 4.41126 4.3927 4.20144 3.83366 4.21151C2.55226 4.22926 1.36047 4.94835 0.70633 6.09356C-0.637794 8.38399 0.356858 11.7752 1.65618 13.6395C2.2924 14.5628 3.05407 15.5749 4.05768 15.5393C4.49921 15.5228 4.81682 15.3893 5.14552 15.2511C5.52394 15.0921 5.91705 14.9268 6.53087 14.9268C7.12341 14.9268 7.49933 15.0877 7.86019 15.2423C8.20331 15.3892 8.53282 15.5302 9.02198 15.5216C10.0614 15.5038 10.7156 14.5983 11.3518 13.675C12.0384 12.6841 12.3401 11.717 12.3859 11.5703L12.3913 11.5533C12.3902 11.5522 12.3817 11.5484 12.3667 11.5416C12.1372 11.4375 10.3829 10.6418 10.3661 8.50828C10.3492 6.71746 11.7575 5.81013 11.9792 5.66729C11.9927 5.6586 12.0018 5.65274 12.0059 5.64968C11.1099 4.3358 9.71197 4.19375 9.22808 4.15824ZM16.4237 15.424V1.58375H21.6658C24.372 1.58375 26.2627 3.43029 26.2627 6.12909C26.2627 8.82788 24.3361 10.6922 21.5941 10.6922H18.5922V15.424H16.4237ZM18.592 3.39488H21.0921C22.9739 3.39488 24.0492 4.38917 24.0492 6.13806C24.0492 7.88695 22.9739 8.89012 21.0831 8.89012H18.592V3.39488ZM33.4225 13.7638C32.849 14.8469 31.5855 15.5304 30.2235 15.5304C28.2073 15.5304 26.8004 14.3408 26.8004 12.5476C26.8004 10.772 28.1625 9.75112 30.6805 9.6002L33.3867 9.44041V8.67693C33.3867 7.54947 32.6429 6.93692 31.3167 6.93692C30.2235 6.93692 29.426 7.49621 29.2647 8.34846H27.3112C27.3739 6.55518 29.0765 5.25017 31.3794 5.25017C33.8616 5.25017 35.4745 6.53743 35.4745 8.53489V15.4239H33.4673V13.7638H33.4225ZM30.8058 13.8882C29.6499 13.8882 28.9151 13.3378 28.9151 12.4944C28.9151 11.6244 29.623 11.1184 30.9761 11.0385L33.3865 10.8876V11.6688C33.3865 12.9649 32.2754 13.8882 30.8058 13.8882ZM42.1324 15.9655C41.2631 18.3891 40.2685 19.1881 38.1537 19.1881C37.9924 19.1881 37.4548 19.1703 37.3293 19.1348V17.4747C37.4638 17.4925 37.7953 17.5102 37.9656 17.5102C38.9244 17.5102 39.462 17.1107 39.7936 16.072L39.9907 15.4595L36.3168 5.38338H38.5839L41.1377 13.5597H41.1825L43.7363 5.38338H45.9407L42.1324 15.9655Z" fill="white"/>
<path d="M79.9748 2.36872H71.6392V17.3476H79.9748V2.36872Z" fill="#FF5F00"/>
<path d="M72.1685 9.85818C72.1672 8.41561 72.4941 6.99163 73.1245 5.69407C73.7549 4.39651 74.6722 3.25937 75.807 2.36873C74.4017 1.26413 72.7139 0.577192 70.9366 0.386438C69.1593 0.195684 67.3642 0.508801 65.7564 1.29001C64.1487 2.07122 62.7932 3.28901 61.8448 4.80417C60.8965 6.31932 60.3936 8.07072 60.3936 9.85818C60.3936 11.6456 60.8965 13.397 61.8448 14.9122C62.7932 16.4274 64.1487 17.6451 65.7564 18.4264C67.3642 19.2076 69.1593 19.5207 70.9366 19.3299C72.7139 19.1392 74.4017 18.4522 75.807 17.3476C74.6722 16.457 73.7549 15.3198 73.1245 14.0223C72.4941 12.7247 72.1672 11.3008 72.1685 9.85818Z" fill="#EB001B"/>
<path d="M91.2201 9.85818C91.2201 11.6456 90.7173 13.397 89.769 14.9122C88.8207 16.4273 87.4652 17.6451 85.8575 18.4263C84.2498 19.2075 82.4547 19.5207 80.6774 19.3299C78.9001 19.1392 77.2124 18.4522 75.807 17.3476C76.9409 16.4561 77.8575 15.3188 78.4878 14.0214C79.1181 12.7241 79.4456 11.3005 79.4456 9.85818C79.4456 8.41583 79.1181 6.99231 78.4878 5.69495C77.8575 4.39759 76.9409 3.26027 75.807 2.36873C77.2124 1.26412 78.9001 0.577187 80.6774 0.386435C82.4547 0.195684 84.2498 0.508814 85.8575 1.29003C87.4652 2.07125 88.8207 3.28904 89.769 4.8042C90.7173 6.31936 91.2201 8.07075 91.2201 9.85818Z" fill="#F79E1B"/>
<path d="M90.3112 15.7611V15.4545H90.4349V15.392H90.1199V15.4545H90.2436V15.7611H90.3112ZM90.9226 15.7611V15.3914H90.8261L90.7151 15.6457L90.604 15.3914H90.5074V15.7611H90.5756V15.4822L90.6797 15.7227H90.7504L90.8545 15.4816V15.7611H90.9226Z" fill="#F79E1B"/>
<path fill-rule="evenodd" clip-rule="evenodd" d="M116.867 17.1002H112.992L110.086 5.6882C109.948 5.16325 109.656 4.69916 109.225 4.48043C108.15 3.93075 106.965 3.49329 105.673 3.27266V2.8333H111.915C112.777 2.8333 113.423 3.49329 113.531 4.2598L115.038 12.4917L118.912 2.8333H122.679L116.867 17.1002ZM124.833 17.1002H121.173L124.187 2.8333H127.847L124.833 17.1002ZM132.582 6.78336C132.69 6.01495 133.336 5.57559 134.09 5.57559C135.274 5.46527 136.565 5.6859 137.642 6.23368L138.288 3.16195C137.211 2.72259 136.026 2.50195 134.951 2.50195C131.399 2.50195 128.814 4.47813 128.814 7.22082C128.814 9.30731 130.645 10.4029 131.938 11.0629C133.336 11.7209 133.874 12.1603 133.766 12.8184C133.766 13.8055 132.69 14.2449 131.614 14.2449C130.322 14.2449 129.03 13.9159 127.847 13.3662L127.201 16.4398C128.493 16.9876 129.891 17.2082 131.184 17.2082C135.167 17.3166 137.642 15.3424 137.642 12.379C137.642 8.64732 132.582 8.42859 132.582 6.78336ZM150.448 17.1002L147.542 2.8333H144.421C143.775 2.8333 143.129 3.27266 142.914 3.93075L137.533 17.1002H141.3L142.052 15.0156H146.681L147.112 17.1002H150.448ZM144.959 6.67419L146.034 12.0511H143.021L144.959 6.67419Z" fill="white"/>
<path d="M172.415 6.26037C172.203 7.84776 170.933 7.84776 169.769 7.84776H169.134L169.664 4.77881C169.664 4.56716 169.875 4.46133 170.087 4.46133H170.404C171.251 4.46133 171.992 4.46134 172.415 4.88464C172.415 5.30794 172.415 5.73124 172.415 6.26037ZM171.886 2.02734H167.335C167.018 2.02734 166.806 2.239 166.7 2.55647L164.901 14.1973C164.901 14.409 165.007 14.6206 165.325 14.6206H167.441C167.759 14.6206 167.97 14.409 168.076 14.0915L168.605 10.9167C168.605 10.5992 168.923 10.3876 169.24 10.3876H170.722C173.685 10.3876 175.378 8.90601 175.907 6.04872C176.119 4.77881 175.907 3.82638 175.378 3.0856C174.532 2.45065 173.367 2.02734 171.886 2.02734Z" fill="white"/>
<path d="M182.363 10.4916C182.151 11.7615 181.199 12.6081 179.929 12.6081C179.294 12.6081 178.765 12.3964 178.448 11.9731C178.13 11.5498 178.024 11.0207 178.13 10.4916C178.342 9.22165 179.294 8.37504 180.564 8.37504C181.199 8.37504 181.728 8.58669 182.046 9.00999C182.257 9.32747 182.469 9.8566 182.363 10.4916ZM185.326 6.25853H183.21C182.998 6.25853 182.892 6.36435 182.786 6.576L182.681 7.21096L182.575 6.99931C182.151 6.36435 181.093 6.04688 180.035 6.04688C177.601 6.04688 175.59 7.84591 175.167 10.3857C174.955 11.6556 175.273 12.8197 176.014 13.6663C176.648 14.4071 177.601 14.7246 178.765 14.7246C180.67 14.7246 181.728 13.4547 181.728 13.4547L181.622 14.0896C181.622 14.3013 181.728 14.5129 182.046 14.5129H183.95C184.268 14.5129 184.48 14.3013 184.585 13.9838L185.749 6.576C185.749 6.47018 185.644 6.25853 185.326 6.25853Z" fill="white"/>
<path d="M196.861 6.26172H194.639C194.427 6.26172 194.215 6.36754 194.109 6.5792L191.146 11.0239L189.876 6.79085C189.771 6.47337 189.559 6.36754 189.241 6.36754H187.125C186.913 6.36754 186.702 6.57919 186.807 6.89667L189.241 13.8812L187.019 17.0559C186.807 17.2676 187.019 17.6909 187.337 17.6909H189.559C189.771 17.6909 189.982 17.5851 190.088 17.3734L197.284 6.89667C197.39 6.57919 197.178 6.26172 196.861 6.26172Z" fill="white"/>
<path d="M204.587 6.26037C204.375 7.84776 203.105 7.84776 201.941 7.84776H201.306L201.835 4.77881C201.835 4.56716 202.047 4.46133 202.259 4.46133H202.576C203.423 4.46133 204.164 4.46134 204.587 4.88464C204.693 5.30794 204.693 5.73124 204.587 6.26037ZM204.058 2.02734H199.507C199.19 2.02734 198.978 2.239 198.872 2.55647L197.073 14.1973C197.073 14.409 197.179 14.6206 197.497 14.6206H199.825C200.036 14.6206 200.248 14.5148 200.248 14.1973L200.777 10.9167C200.777 10.5992 201.095 10.3876 201.412 10.3876H202.894C205.857 10.3876 207.55 8.90601 208.079 6.04872C208.291 4.77881 208.079 3.82638 207.55 3.0856C206.809 2.45065 205.645 2.02734 204.058 2.02734Z" fill="#2199D6"/>
<path d="M214.639 10.4916C214.428 11.7615 213.475 12.6081 212.205 12.6081C211.57 12.6081 211.041 12.3964 210.724 11.9731C210.406 11.5498 210.301 11.0207 210.406 10.4916C210.618 9.22165 211.57 8.37504 212.84 8.37504C213.475 8.37504 214.004 8.58669 214.322 9.00999C214.534 9.32747 214.745 9.8566 214.639 10.4916ZM217.603 6.25853H215.486C215.274 6.25853 215.169 6.36435 215.063 6.576L214.957 7.21096L214.851 6.99931C214.428 6.36435 213.37 6.04688 212.311 6.04688C209.877 6.04688 207.867 7.84591 207.443 10.3857C207.232 11.6556 207.549 12.8197 208.29 13.6663C208.925 14.4071 209.877 14.7246 211.041 14.7246C212.946 14.7246 214.004 13.4547 214.004 13.4547L213.899 14.0896C213.899 14.3013 214.004 14.5129 214.322 14.5129H216.227C216.544 14.5129 216.756 14.3013 216.862 13.9838L218.026 6.576C218.026 6.47018 217.814 6.25853 217.603 6.25853Z" fill="#2199D6"/>
<path d="M220.142 2.34482L218.237 14.1973C218.237 14.409 218.343 14.6206 218.661 14.6206H220.565C220.883 14.6206 221.095 14.409 221.2 14.0915L222.999 2.45065C222.999 2.239 222.894 2.02734 222.576 2.02734H220.46C220.354 2.02734 220.248 2.23899 220.142 2.34482Z" fill="#2199D6"/>
<rect x="0.0664062" y="40.3203" width="50" height="0.410288" fill="white"/>
<path d="M77.4561 34.6141C75.8857 33.0491 73.7918 32.1797 71.5816 32.1797C66.9867 32.1797 63.2642 35.8892 63.2642 40.4682C63.2642 41.9172 63.6714 43.3662 64.3693 44.5834L63.2061 48.8726L67.6265 47.7133C68.8479 48.3509 70.1857 48.6987 71.5816 48.6987C76.1765 48.6987 79.8989 44.9892 79.8989 40.4102C79.8408 38.2656 79.0265 36.179 77.4561 34.6141ZM75.5948 43.4242C75.4204 43.8879 74.6061 44.3516 74.1989 44.4095C73.8499 44.4675 73.3846 44.4675 72.9193 44.3516C72.6285 44.2357 72.2214 44.1197 71.7561 43.8879C69.6622 43.0185 68.3244 40.9319 68.2081 40.758C68.0918 40.642 67.3357 39.6567 67.3357 38.6134C67.3357 37.5701 67.8591 37.1064 68.0336 36.8746C68.2081 36.6427 68.4408 36.6427 68.6152 36.6427C68.7316 36.6427 68.9061 36.6427 69.0224 36.6427C69.1387 36.6427 69.3132 36.5848 69.4877 36.9905C69.6622 37.3962 70.0693 38.4395 70.1275 38.4975C70.1857 38.6134 70.1857 38.7293 70.1275 38.8452C70.0693 38.9612 70.0112 39.0771 69.8948 39.193C69.7785 39.3089 69.6622 39.4828 69.604 39.5408C69.4877 39.6567 69.3714 39.7726 69.4877 39.9465C69.604 40.1784 70.0112 40.8159 70.651 41.3955C71.4652 42.0911 72.105 42.3229 72.3377 42.4389C72.5703 42.5548 72.6867 42.4968 72.803 42.3809C72.9193 42.265 73.3265 41.8013 73.4428 41.5694C73.5591 41.3376 73.7336 41.3955 73.9081 41.4535C74.0826 41.5115 75.1295 42.0331 75.304 42.149C75.5367 42.265 75.653 42.3229 75.7112 42.3809C75.7693 42.5548 75.7693 42.9605 75.5948 43.4242Z" fill="white"/>
<path d="M100.988 34.0127C103.095 34.0127 103.382 34.0127 104.244 34.0127C105.01 34.0127 105.394 34.2043 105.681 34.3C106.064 34.4916 106.351 34.5874 106.639 34.8747C106.926 35.162 107.117 35.4493 107.213 35.8324C107.309 36.1197 107.405 36.5028 107.5 37.2689C107.5 38.1309 107.5 38.3224 107.5 40.5252C107.5 42.7279 107.5 42.9194 107.5 43.7814C107.5 44.5475 107.309 44.9306 107.213 45.2179C107.022 45.601 106.926 45.8883 106.639 46.1756C106.351 46.463 106.064 46.6545 105.681 46.7503C105.394 46.846 105.01 46.9418 104.244 47.0376C103.382 47.0376 103.191 47.0376 100.988 47.0376C98.7853 47.0376 98.5938 47.0376 97.7318 47.0376C96.9657 47.0376 96.5826 46.846 96.2953 46.7503C95.9122 46.5587 95.6249 46.463 95.3376 46.1756C95.0503 45.8883 94.8587 45.601 94.7629 45.2179C94.6672 44.9306 94.5714 44.5475 94.4756 43.7814C94.4756 42.9194 94.4756 42.7279 94.4756 40.5252C94.4756 38.3224 94.4756 38.1309 94.4756 37.2689C94.4756 36.5028 94.6672 36.1197 94.7629 35.8324C94.9545 35.4493 95.0503 35.162 95.3376 34.8747C95.6249 34.5874 95.9122 34.3958 96.2953 34.3C96.5826 34.2043 96.9657 34.1085 97.7318 34.0127C98.5938 34.0127 98.8811 34.0127 100.988 34.0127ZM100.988 32.5762C98.7853 32.5762 98.5938 32.5762 97.7318 32.5762C96.8699 32.5762 96.2953 32.7677 95.8164 32.9593C95.3376 33.1508 94.8587 33.4381 94.3799 33.917C93.901 34.3958 93.7095 34.7789 93.4221 35.3535C93.2306 35.8324 93.1348 36.407 93.0391 37.2689C93.0391 38.1309 93.0391 38.4182 93.0391 40.5252C93.0391 42.7279 93.0391 42.9194 93.0391 43.7814C93.0391 44.6433 93.2306 45.2179 93.4221 45.6968C93.6137 46.1756 93.901 46.6545 94.3799 47.1334C94.8587 47.6122 95.2418 47.8038 95.8164 48.0911C96.2953 48.2826 96.8699 48.3784 97.7318 48.4741C98.5938 48.4741 98.8811 48.4741 100.988 48.4741C103.095 48.4741 103.382 48.4741 104.244 48.4741C105.106 48.4741 105.681 48.2826 106.16 48.0911C106.639 47.8995 107.117 47.6122 107.596 47.1334C108.075 46.6545 108.267 46.2714 108.554 45.6968C108.745 45.2179 108.841 44.6433 108.937 43.7814C108.937 42.9194 108.937 42.6321 108.937 40.5252C108.937 38.4182 108.937 38.1309 108.937 37.2689C108.937 36.407 108.745 35.8324 108.554 35.3535C108.362 34.8747 108.075 34.3958 107.596 33.917C107.117 33.4381 106.734 33.2466 106.16 32.9593C105.681 32.7677 105.106 32.6719 104.244 32.5762C103.382 32.5762 103.191 32.5762 100.988 32.5762Z" fill="white"/>
<path d="M100.988 36.407C98.6895 36.407 96.8699 38.2267 96.8699 40.5252C96.8699 42.8237 98.6895 44.6433 100.988 44.6433C103.287 44.6433 105.106 42.8237 105.106 40.5252C105.106 38.2267 103.287 36.407 100.988 36.407ZM100.988 43.2067C99.5515 43.2067 98.3065 42.0575 98.3065 40.5252C98.3065 39.0886 99.4557 37.8436 100.988 37.8436C102.425 37.8436 103.67 38.9928 103.67 40.5252C103.67 41.9617 102.425 43.2067 100.988 43.2067Z" fill="white"/>
<path d="M105.202 37.2689C105.731 37.2689 106.16 36.8402 106.16 36.3112C106.16 35.7823 105.731 35.3535 105.202 35.3535C104.673 35.3535 104.244 35.7823 104.244 36.3112C104.244 36.8402 104.673 37.2689 105.202 37.2689Z" fill="white"/>
<path d="M128.164 41.2135H131.123L131.587 38.1895H128.163V36.5368C128.163 35.2806 128.571 34.1666 129.739 34.1666H131.616V31.5276C131.286 31.4828 130.589 31.3848 129.271 31.3848C126.519 31.3848 124.906 32.8468 124.906 36.1778V38.1895H122.077V41.2135H124.906V49.5252C125.466 49.6099 126.034 49.6674 126.616 49.6674C127.143 49.6674 127.656 49.619 128.164 49.55V41.2135Z" fill="white"/>
<path d="M159.86 34.2482L157.471 46.7202C157.471 46.7202 157.137 47.585 156.218 47.1702L150.706 42.7937L150.681 42.7808C151.425 42.0885 157.199 36.7128 157.451 36.4691C157.842 36.0917 157.599 35.8671 157.146 36.1521L148.617 41.7606L145.327 40.6142C145.327 40.6142 144.81 40.4235 144.76 40.0088C144.709 39.5934 145.344 39.3687 145.344 39.3687L158.757 33.9197C158.757 33.9197 159.86 33.4181 159.86 34.2482Z" fill="#FEFEFE"/>
<rect x="173" y="40.3203" width="50" height="0.410288" fill="white"/>
</svg>
