<svg xmlns="http://www.w3.org/2000/svg" width="100" height="100" viewBox="0 0 100 100" fill="none">
<path d="M81.9285 100H18.0715C8.08977 100 0 91.9102 0 81.9285V18.0715C0 8.08977 8.08977 0 18.0715 0H81.9285C91.9102 0 100 8.08977 100 18.0715V81.9285C100 91.9102 91.9102 100 81.9285 100Z" fill="#0738D2"/>
<path d="M32.1443 50.3587C30.1675 50.3587 28.3017 50.8349 26.6381 51.6569C26.3379 48.0687 23.3369 45.2438 19.6704 45.2438V62.8326C19.6704 69.7089 25.268 75.3065 32.1443 75.3065C39.0206 75.3065 44.6182 69.7089 44.6182 62.8326C44.6182 55.9497 39.0271 50.3587 32.1443 50.3587Z" fill="#09FCC1"/>
<path d="M73.3635 51.6569C71.6998 50.8349 69.834 50.3587 67.8572 50.3587C60.9809 50.3587 55.3833 55.9563 55.3833 62.8326C55.3833 69.7089 60.9809 75.3065 67.8572 75.3065C74.7335 75.3065 80.3311 69.7089 80.3311 62.8326V45.2373C76.6646 45.2373 73.657 48.0622 73.3635 51.6569Z" fill="#09FCC1"/>
<path d="M46.6272 56.3607V74.6344H53.6275V63.361C53.6275 59.4922 50.4959 56.3607 46.6272 56.3607Z" fill="#09FCC1"/>
<path d="M50.1225 55.9758C52.1871 55.9758 53.8608 54.3021 53.8608 52.2375C53.8608 50.1729 52.1871 48.4993 50.1225 48.4993C48.058 48.4993 46.3843 50.1729 46.3843 52.2375C46.3843 54.3021 48.058 55.9758 50.1225 55.9758Z" fill="#09FCC1"/>
<path d="M32.1443 50.3587C30.1675 50.3587 28.3017 50.8349 26.6381 51.6569C26.3379 48.0687 23.3369 45.2438 19.6704 45.2438V62.8326C19.6704 69.7089 25.268 75.3065 32.1443 75.3065C39.0206 75.3065 44.6182 69.7089 44.6182 62.8326C44.6182 55.9497 39.0271 50.3587 32.1443 50.3587Z" stroke="#0738D2" stroke-width="2" stroke-miterlimit="10"/>
<path d="M73.3635 51.6569C71.6998 50.8349 69.834 50.3587 67.8572 50.3587C60.9809 50.3587 55.3833 55.9563 55.3833 62.8326C55.3833 69.7089 60.9809 75.3065 67.8572 75.3065C74.7335 75.3065 80.3311 69.7089 80.3311 62.8326V45.2373C76.6646 45.2373 73.657 48.0622 73.3635 51.6569Z" stroke="#0738D2" stroke-width="2" stroke-miterlimit="10"/>
<path d="M46.6272 56.3607V74.6344H53.6275V63.361C53.6275 59.4922 50.4959 56.3607 46.6272 56.3607Z" stroke="#0738D2" stroke-width="2" stroke-miterlimit="10"/>
<path d="M50.1225 55.9758C52.1871 55.9758 53.8608 54.3021 53.8608 52.2375C53.8608 50.1729 52.1871 48.4993 50.1225 48.4993C48.058 48.4993 46.3843 50.1729 46.3843 52.2375C46.3843 54.3021 48.058 55.9758 50.1225 55.9758Z" stroke="#0738D2" stroke-width="2" stroke-miterlimit="10"/>
<path d="M67.8556 68.8088C64.5609 68.8088 61.873 66.1274 61.873 62.8263C61.873 59.5316 64.5544 56.8438 67.8556 56.8438C71.1502 56.8438 73.8381 59.5251 73.8381 62.8263C73.8316 66.1274 71.1502 68.8088 67.8556 68.8088Z" fill="#0738D2"/>
<path d="M32.1427 68.8088C28.848 68.8088 26.1602 66.1274 26.1602 62.8263C26.1602 59.5316 28.8415 56.8438 32.1427 56.8438C35.4373 56.8438 38.1252 59.5251 38.1252 62.8263C38.1252 66.1274 35.4438 68.8088 32.1427 68.8088Z" fill="#0738D2"/>
<path d="M34.467 39.3327C33.5993 39.3327 32.8621 39.1762 32.2619 38.863C31.6551 38.5499 31.1136 38.0932 30.6309 37.4865L31.8508 36.2665C32.151 36.7036 32.5163 37.0493 32.9338 37.2907C33.3514 37.5386 33.8863 37.6561 34.5322 37.6561C35.1389 37.6561 35.6217 37.5321 35.9805 37.2777C36.3394 37.0298 36.522 36.684 36.522 36.2469C36.522 35.8815 36.4307 35.5814 36.2415 35.3531C36.0523 35.1248 35.8044 34.9356 35.4978 34.779C35.1911 34.6289 34.8519 34.4919 34.48 34.3745C34.1082 34.2571 33.7363 34.1201 33.3709 33.97C32.9991 33.82 32.6598 33.6308 32.3532 33.3959C32.0466 33.1676 31.7987 32.8675 31.6095 32.5021C31.4203 32.1368 31.3289 31.6736 31.3289 31.106C31.3289 30.4601 31.4855 29.9056 31.8052 29.4554C32.1249 28.9987 32.5554 28.6529 33.0969 28.4116C33.6384 28.1702 34.2452 28.0527 34.9106 28.0527C35.6282 28.0527 36.2741 28.1963 36.8417 28.4768C37.4093 28.7573 37.8725 29.1161 38.2248 29.5598L37.0048 30.7798C36.6917 30.4275 36.3655 30.16 36.0262 29.9904C35.687 29.8207 35.2955 29.7294 34.8584 29.7294C34.3169 29.7294 33.8929 29.8403 33.5797 30.0556C33.2731 30.2774 33.1165 30.5841 33.1165 30.982C33.1165 31.3147 33.2078 31.5822 33.397 31.791C33.5862 31.9998 33.8341 32.1694 34.1408 32.3064C34.4474 32.4499 34.7867 32.5804 35.1585 32.7044C35.5304 32.8283 35.9023 32.9718 36.2676 33.1284C36.6395 33.285 36.9787 33.4872 37.2853 33.7286C37.592 33.97 37.8399 34.2897 38.0291 34.6746C38.2183 35.0595 38.3096 35.5488 38.3096 36.1295C38.3096 37.1081 37.9638 37.8909 37.2658 38.4651C36.5873 39.0457 35.6478 39.3327 34.467 39.3327Z" fill="white"/>
<path d="M39.5542 39.1762L44.0623 28.2159H45.3149L49.7904 39.1762H47.8462L44.3363 30.297H44.9952L41.4592 39.1762H39.5542ZM41.7789 37.0624V35.4966H47.5853V37.0624H41.7789Z" fill="white"/>
<path d="M51.865 39.1762V28.2159H53.6656V39.1762H51.865ZM53.098 39.1762V37.5321H58.8261V39.1762H53.098Z" fill="white"/>
<path d="M61.1033 39.1762V28.2159H62.9039V39.1762H61.1033ZM62.3363 29.8599V28.2159H68.3971V29.8599H62.3363ZM62.3363 34.3745V32.7957H67.9404V34.3745H62.3363ZM62.3363 39.1762V37.5321H68.4754V39.1762H62.3363Z" fill="white"/>
</svg>