<svg xmlns="http://www.w3.org/2000/svg" width="78" height="79" viewBox="0 0 78 79" fill="none">
<g clip-path="url(#clip0_1204_7649)">
<path d="M63.9042 78.8184H14.0958C6.31002 78.8184 0 72.5083 0 64.7226V14.9141C0 7.12838 6.31002 0.818359 14.0958 0.818359H63.9042C71.69 0.818359 78 7.12838 78 14.9141V64.7226C78 72.5083 71.69 78.8184 63.9042 78.8184Z" fill="#0738D2"/>
<path d="M25.0724 40.0982C23.5305 40.0982 22.0752 40.4696 20.7775 41.1108C20.5435 38.312 18.2026 36.1086 15.3428 36.1086V49.8278C15.3428 55.1913 19.7089 59.5575 25.0724 59.5575C30.4359 59.5575 34.8021 55.1913 34.8021 49.8278C34.8021 44.4592 30.441 40.0982 25.0724 40.0982Z" fill="#09FCC1"/>
<path d="M57.2234 41.1108C55.9257 40.4696 54.4704 40.0982 52.9285 40.0982C47.565 40.0982 43.1988 44.4643 43.1988 49.8278C43.1988 55.1913 47.565 59.5575 52.9285 59.5575C58.292 59.5575 62.6581 55.1913 62.6581 49.8278V36.1035C59.7983 36.1035 57.4524 38.3069 57.2234 41.1108Z" fill="#09FCC1"/>
<path d="M36.3691 44.7798V59.0333H41.8293V50.24C41.8293 47.2224 39.3867 44.7798 36.3691 44.7798Z" fill="#09FCC1"/>
<path d="M39.0954 44.4795C40.7058 44.4795 42.0113 43.1741 42.0113 41.5637C42.0113 39.9533 40.7058 38.6478 39.0954 38.6478C37.4851 38.6478 36.1796 39.9533 36.1796 41.5637C36.1796 43.1741 37.4851 44.4795 39.0954 44.4795Z" fill="#09FCC1"/>
<path d="M25.0724 40.0982C23.5305 40.0982 22.0752 40.4696 20.7775 41.1108C20.5435 38.312 18.2026 36.1086 15.3428 36.1086V49.8278C15.3428 55.1913 19.7089 59.5575 25.0724 59.5575C30.4359 59.5575 34.8021 55.1913 34.8021 49.8278C34.8021 44.4592 30.441 40.0982 25.0724 40.0982Z" stroke="#0738D2" stroke-width="2" stroke-miterlimit="10"/>
<path d="M57.2234 41.1108C55.9257 40.4696 54.4704 40.0982 52.9285 40.0982C47.565 40.0982 43.1988 44.4643 43.1988 49.8278C43.1988 55.1913 47.565 59.5575 52.9285 59.5575C58.292 59.5575 62.6581 55.1913 62.6581 49.8278V36.1035C59.7983 36.1035 57.4524 38.3069 57.2234 41.1108Z" stroke="#0738D2" stroke-width="2" stroke-miterlimit="10"/>
<path d="M36.3691 44.7798V59.0333H41.8293V50.24C41.8293 47.2224 39.3867 44.7798 36.3691 44.7798Z" stroke="#0738D2" stroke-width="2" stroke-miterlimit="10"/>
<path d="M39.0954 44.4795C40.7058 44.4795 42.0113 43.1741 42.0113 41.5637C42.0113 39.9533 40.7058 38.6478 39.0954 38.6478C37.4851 38.6478 36.1796 39.9533 36.1796 41.5637C36.1796 43.1741 37.4851 44.4795 39.0954 44.4795Z" stroke="#0738D2" stroke-width="2" stroke-miterlimit="10"/>
<path d="M52.9277 54.489C50.3579 54.489 48.2613 52.3975 48.2613 49.8226C48.2613 47.2528 50.3528 45.1562 52.9277 45.1562C55.4975 45.1562 57.5941 47.2477 57.5941 49.8226C57.589 52.3975 55.4975 54.489 52.9277 54.489Z" fill="#0738D2"/>
<path d="M25.0716 54.489C22.5018 54.489 20.4053 52.3975 20.4053 49.8226C20.4053 47.2528 22.4967 45.1562 25.0716 45.1562C27.6414 45.1562 29.738 47.2477 29.738 49.8226C29.738 52.3975 27.6465 54.489 25.0716 54.489Z" fill="#0738D2"/>
<path d="M26.8847 31.4986C26.2079 31.4986 25.6329 31.3765 25.1648 31.1322C24.6915 30.888 24.2691 30.5317 23.8926 30.0585L24.8442 29.1069C25.0783 29.4478 25.3632 29.7175 25.6889 29.9058C26.0146 30.0992 26.4319 30.1908 26.9356 30.1908C27.4089 30.1908 27.7855 30.0941 28.0653 29.8957C28.3452 29.7023 28.4877 29.4326 28.4877 29.0916C28.4877 28.8067 28.4165 28.5726 28.2689 28.3945C28.1213 28.2164 27.9279 28.0688 27.6888 27.9467C27.4496 27.8296 27.185 27.7228 26.8949 27.6312C26.6049 27.5396 26.3148 27.4327 26.0298 27.3157C25.7398 27.1986 25.4752 27.0511 25.236 26.8679C24.9968 26.6898 24.8035 26.4557 24.6559 26.1707C24.5083 25.8857 24.4371 25.5244 24.4371 25.0817C24.4371 24.5779 24.5592 24.1454 24.8085 23.7943C25.0579 23.4381 25.3938 23.1684 25.8161 22.9801C26.2385 22.7918 26.7117 22.7002 27.2308 22.7002C27.7905 22.7002 28.2943 22.8121 28.737 23.031C29.1798 23.2498 29.5411 23.5297 29.8159 23.8757L28.8643 24.8273C28.62 24.5525 28.3656 24.3439 28.101 24.2115C27.8363 24.0792 27.531 24.008 27.1901 24.008C26.7677 24.008 26.4369 24.0945 26.1927 24.2624C25.9535 24.4355 25.8314 24.6746 25.8314 24.985C25.8314 25.2446 25.9026 25.4532 26.0502 25.616C26.1978 25.7789 26.3911 25.9112 26.6303 26.018C26.8695 26.13 27.1341 26.2318 27.4242 26.3285C27.7142 26.4251 28.0043 26.5371 28.2892 26.6592C28.5793 26.7814 28.8439 26.9391 29.0831 27.1274C29.3222 27.3157 29.5156 27.565 29.6632 27.8653C29.8108 28.1655 29.882 28.5471 29.882 29C29.882 29.7633 29.6123 30.374 29.0678 30.8218C28.5386 31.2747 27.8058 31.4986 26.8847 31.4986Z" fill="white"/>
<path d="M30.8528 31.3765L34.3691 22.8274H35.3461L38.837 31.3765H37.3206L34.5828 24.4507H35.0968L32.3387 31.3765H30.8528ZM32.588 29.7277V28.5064H37.117V29.7277H32.588Z" fill="white"/>
<path d="M40.4552 31.3765V22.8274H41.8597V31.3765H40.4552ZM41.417 31.3765V30.0941H45.8849V31.3765H41.417Z" fill="white"/>
<path d="M47.6611 31.3765V22.8274H49.0655V31.3765H47.6611ZM48.6228 24.1098V22.8274H53.3503V24.1098H48.6228ZM48.6228 27.6312V26.3997H52.994V27.6312H48.6228ZM48.6228 31.3765V30.0941H53.4113V31.3765H48.6228Z" fill="white"/>
</g>
<defs>
<clipPath id="clip0_1204_7649">
<rect y="0.818359" width="78" height="78" rx="22" fill="white"/>
</clipPath>
</defs>
</svg>