<svg width="200" height="200" viewBox="0 0 200 200" fill="none" xmlns="http://www.w3.org/2000/svg">
<path d="M162.283 100.5C162.283 114.08 157.72 126.673 150.073 136.796C145.88 142.228 140.823 147.043 135.027 150.747C125.654 156.92 114.43 160.5 102.344 160.5C69.1676 160.377 42.2812 133.463 42.2812 100.5C42.2812 67.2901 69.1676 40.5 102.221 40.5C114.307 40.5 125.53 44.0802 134.903 50.1296C140.7 53.8333 145.757 58.6481 149.95 64.0802C157.72 74.2037 162.283 86.7963 162.283 100.5Z" fill="#EAEEF9"/>
<path d="M38.9502 144.821C40.0601 144.821 41.0468 143.956 41.0468 142.722C41.0468 141.611 40.1835 140.623 38.9502 140.623C37.8402 140.623 36.8535 141.487 36.8535 142.722C36.9768 143.956 37.8402 144.821 38.9502 144.821Z" fill="url(#paint0_linear_1739_7174)"/>
<path d="M138.354 46.179C139.464 46.179 140.451 45.3148 140.451 44.0802C140.451 42.9691 139.588 41.9814 138.354 41.9814C137.244 41.9814 136.258 42.8456 136.258 44.0802C136.258 45.1913 137.244 46.179 138.354 46.179Z" fill="url(#paint1_linear_1739_7174)"/>
<path d="M175.479 82.1052C177.329 80.3768 177.452 77.5373 175.725 75.6855C173.999 73.8336 171.162 73.7102 169.189 75.4385C167.339 77.1669 167.216 80.0064 168.942 81.8583C170.669 83.7102 173.629 83.8336 175.479 82.1052Z" fill="#EAEEF9"/>
<path d="M174.491 62.1049C175.601 62.1049 176.464 61.2407 176.464 60.1296C176.464 59.0185 175.601 58.1543 174.491 58.1543C173.381 58.1543 172.518 59.0185 172.518 60.1296C172.518 61.2407 173.381 62.1049 174.491 62.1049Z" fill="url(#paint2_linear_1739_7174)"/>
<g filter="url(#filter0_d_1739_7174)">
<path d="M145.703 71.2792L146.618 150.629C146.618 153.262 144.445 155.438 141.814 155.438H64.7183C62.0874 155.438 59.9141 153.262 59.9141 150.629V48.6079C59.9141 45.9744 62.0874 43.7988 64.7183 43.7988H120.653L145.703 71.2792Z" fill="white"/>
</g>
<path d="M120.652 43.9131V65.7829C120.652 68.7599 123.283 71.3934 126.372 71.3934H145.817" fill="#F0F4F8"/>
<path d="M75.0127 83.416C74.5552 83.416 74.0977 82.958 74.0977 82.5C74.0977 82.042 74.5552 81.584 75.0127 81.584H129.918C130.375 81.584 130.833 82.042 130.833 82.5C130.833 82.958 130.375 83.416 129.918 83.416H75.0127Z" fill="#CED7E2"/>
<path d="M75.0127 90.5156C74.5552 90.5156 74.0977 90.0576 74.0977 89.5996C74.0977 89.1416 74.5552 88.6836 75.0127 88.6836H129.918C130.375 88.6836 130.833 89.1416 130.833 89.5996C130.833 90.0576 130.375 90.5156 129.918 90.5156H75.0127Z" fill="#CED7E2"/>
<path d="M75.0127 97.5C74.5552 97.5 74.0977 97.042 74.0977 96.584C74.0977 96.126 74.5552 95.668 75.0127 95.668H129.918C130.375 95.668 130.833 96.126 130.833 96.584C130.833 97.042 130.375 97.5 129.918 97.5H75.0127Z" fill="#CED7E2"/>
<path d="M75.0127 104.6C74.5552 104.6 74.0977 104.142 74.0977 103.684C74.0977 103.226 74.5552 102.768 75.0127 102.768H129.918C130.375 102.768 130.833 103.226 130.833 103.684C130.833 104.142 130.375 104.6 129.918 104.6H75.0127Z" fill="#CED7E2"/>
<path d="M75.0127 111.584C74.5552 111.584 74.0977 111.126 74.0977 110.668C74.0977 110.21 74.5552 109.752 75.0127 109.752H129.918C130.375 109.752 130.833 110.21 130.833 110.668C130.833 111.126 130.375 111.584 129.918 111.584H75.0127Z" fill="#CED7E2"/>
<path d="M75.0127 118.568C74.5552 118.568 74.0977 118.11 74.0977 117.652C74.0977 117.194 74.5552 116.736 75.0127 116.736H99.1481C99.6056 116.736 100.063 117.194 100.063 117.652C100.063 118.11 99.6056 118.568 99.1481 118.568H75.0127Z" fill="#CED7E2"/>
<path d="M100.749 65.8979H75.1271C74.5552 65.8979 74.0977 65.4399 74.0977 64.8674C74.0977 64.2949 74.5552 63.8369 75.1271 63.8369H100.749C101.321 63.8369 101.779 64.2949 101.779 64.8674C101.779 65.3254 101.321 65.8979 100.749 65.8979Z" fill="#CED7E2"/>
<path d="M87.8239 71.2798H75.1271C74.5552 71.2798 74.0977 70.8218 74.0977 70.2493C74.0977 69.6768 74.5552 69.2188 75.1271 69.2188H87.8239C88.3959 69.2188 88.8534 69.6768 88.8534 70.2493C88.8534 70.8218 88.3959 71.2798 87.8239 71.2798Z" fill="#CED7E2"/>
<path d="M125.571 139.98C125.342 138.377 125.228 137.232 124.084 136.774C122.254 136.316 121.682 138.721 119.852 140.667C119.28 141.24 118.479 141.698 117.793 142.156C117.564 142.27 117.106 142.499 116.992 142.041C116.534 140.667 116.992 141.354 118.937 139.179C119.852 138.148 120.424 136.889 120.195 135.286C120.08 134.37 119.508 133.568 118.593 133.225C117.678 132.881 116.763 132.996 116.077 133.797C114.475 135.744 114.933 137.003 114.819 139.866C114.819 140.095 114.704 140.324 114.475 140.438C112.874 141.354 111.158 141.927 109.099 142.156C109.099 142.041 109.099 142.041 109.099 142.041C110.129 140.667 112.188 138.148 112.645 134.026C112.874 132.423 112.874 130.82 112.073 129.331C110.586 126.583 106.468 126.927 104.638 130.247C102.808 133.912 103.151 139.408 105.668 142.614C105.096 143.072 104.638 143.53 104.066 143.873C103.723 144.102 103.609 144.675 103.838 145.018C104.066 145.476 104.753 145.591 105.21 145.247C107.04 143.759 106.926 143.873 107.155 143.759C107.498 143.644 107.841 143.759 108.184 143.759C109.443 143.759 110.243 143.644 111.158 143.53C111.616 143.415 114.704 142.27 114.819 142.27C114.819 142.27 114.819 142.385 114.933 142.499C115.276 143.759 115.962 144.217 117.335 144.102C118.365 143.988 119.28 143.53 120.08 142.843C120.995 141.927 122.482 140.095 123.283 138.95C123.512 139.751 123.512 140.438 123.741 141.125C124.198 142.385 125.456 142.614 126.257 141.583C127.172 140.553 127.515 139.179 128.545 138.606C128.888 138.492 129.117 138.148 129.117 137.805C129.117 137.118 128.431 136.774 127.859 137.003C126.943 137.576 126.257 138.721 125.571 139.98ZM107.155 141.583C106.24 140.438 105.897 139.179 105.668 137.69C105.21 135.629 105.439 133.454 106.24 131.507C106.697 130.476 107.269 129.675 108.413 129.446C109.557 129.217 110.358 129.446 110.586 130.591C111.616 134.599 110.014 138.377 107.155 141.583ZM116.878 135.515C117.564 134.141 118.365 135.4 118.25 135.973C118.021 136.66 117.678 137.232 117.335 137.805C117.106 138.148 116.878 138.377 116.534 138.721C116.42 137.576 116.42 136.545 116.878 135.515Z" fill="url(#paint3_linear_1739_7174)"/>
<path d="M84.6216 144.675C83.8209 145.476 82.6771 145.934 81.762 145.247C80.3894 144.217 79.9318 143.988 79.0167 143.873C77.8729 143.759 76.8434 143.644 76.5003 142.385C76.3859 142.041 76.3859 141.812 76.3859 141.469C76.2715 140.667 75.9283 139.866 75.3564 139.178C74.5557 138.262 73.9838 137.461 74.5557 136.43C75.242 135.285 75.9283 134.827 75.9283 133.453C75.9283 132.995 75.9283 132.652 76.0427 132.308C76.2715 131.392 77.0722 130.705 77.9873 130.705C78.3304 130.705 78.6736 130.591 79.0167 130.591C80.1606 130.476 80.5037 129.675 81.9908 129.102C82.4483 128.873 82.9058 128.988 83.3634 129.217C83.7065 129.446 84.0497 129.675 84.5072 130.018C85.5367 130.82 86.223 130.476 87.71 130.934C88.3964 131.163 88.7395 131.736 88.8539 132.308C88.8539 132.995 89.0827 133.797 89.3114 134.369C89.8834 135.514 91.0272 136.087 90.9128 137.346C90.9128 137.575 90.7984 137.919 90.6841 138.033C90.1121 138.72 89.6546 139.636 89.3114 140.553C89.1971 140.896 89.1971 141.125 89.1971 141.469C89.1971 142.156 88.9683 142.728 88.5107 143.072C87.1381 144.446 85.8799 143.415 84.6216 144.675ZM77.4153 140.438C79.2455 143.072 82.7915 143.873 85.5367 142.041C88.1676 140.438 88.8539 136.774 87.2525 134.255C87.2525 134.255 87.2525 134.14 87.1381 134.14C85.4223 131.507 81.6476 130.705 79.0167 132.537C76.3859 134.14 75.6996 137.804 77.301 140.324C77.4153 140.324 77.4153 140.438 77.4153 140.438Z" fill="#CED7E2"/>
<path d="M79.589 133.339C81.7623 131.85 84.8507 132.423 86.4521 134.713C87.9391 136.774 87.3672 139.751 85.3083 141.239L85.1939 141.354C83.0206 142.842 79.9321 142.155 78.3307 139.98C76.8437 137.919 77.4157 134.942 79.4746 133.453C79.4746 133.339 79.4746 133.339 79.589 133.339Z" fill="#CED7E2"/>
<path d="M143.783 100.623C144.647 100.376 145.14 99.3885 144.893 98.5243C144.647 97.6601 143.66 97.1663 142.797 97.4132C141.933 97.6601 141.44 98.6477 141.687 99.5119C141.933 100.376 142.92 100.87 143.783 100.623Z" fill="#EAEEF9"/>
<g filter="url(#filter1_d_1739_7174)">
<path d="M180.412 98.648V153.216C180.412 154.08 179.919 154.821 179.179 155.191C173.629 157.66 166.229 159.265 157.966 159.265C149.826 159.265 142.426 157.784 136.753 155.191C136.013 154.821 135.52 154.08 135.52 153.216V98.648C135.52 97.1665 136.753 96.0554 138.233 96.0554H177.699C179.179 95.9319 180.412 97.1665 180.412 98.648Z" fill="#CED7E2"/>
</g>
<path d="M180.412 98.648V115.191H135.52V98.648C135.52 97.1665 136.753 96.0554 138.233 96.0554H177.699C179.179 95.9319 180.412 97.1665 180.412 98.648Z" fill="#CED7E2"/>
<path d="M177.081 99.6357H138.848V111.611H176.957V99.6357H177.081Z" fill="white"/>
<path d="M176.096 100.747V110.747H139.837V100.747H176.096ZM178.069 98.6484H176.096H139.837H137.863V100.624V110.624V112.599H139.837H175.973H177.946V110.624V100.624V98.6484H178.069Z" fill="#A3AFC2"/>
<path d="M146.496 125.191H141.933C141.07 125.191 140.453 124.574 140.453 123.709V121.24C140.453 120.376 141.07 119.759 141.933 119.759H146.496C147.36 119.759 147.976 120.376 147.976 121.24V123.709C148.1 124.45 147.36 125.191 146.496 125.191Z" fill="url(#paint4_linear_1739_7174)"/>
<path d="M146.496 131.982H141.933C141.07 131.982 140.453 131.365 140.453 130.5V128.031C140.453 127.167 141.07 126.55 141.933 126.55H146.496C147.36 126.55 147.976 127.167 147.976 128.031V130.5C148.1 131.241 147.36 131.982 146.496 131.982Z" fill="#A3AFC2"/>
<path d="M146.496 138.772H141.933C141.07 138.772 140.453 138.155 140.453 137.29V134.821C140.453 133.957 141.07 133.34 141.933 133.34H146.496C147.36 133.34 147.976 133.957 147.976 134.821V137.29C148.1 138.155 147.36 138.772 146.496 138.772Z" fill="#A3AFC2"/>
<path d="M146.496 145.561H141.933C141.07 145.561 140.453 144.944 140.453 144.08V141.61C140.453 140.746 141.07 140.129 141.933 140.129H146.496C147.36 140.129 147.976 140.746 147.976 141.61V144.08C148.1 144.82 147.36 145.561 146.496 145.561Z" fill="#A3AFC2"/>
<path d="M146.496 152.352H141.933C141.07 152.352 140.453 151.735 140.453 150.871V148.401C140.453 147.537 141.07 146.92 141.933 146.92H146.496C147.36 146.92 147.976 147.537 147.976 148.401V150.871C148.1 151.735 147.36 152.352 146.496 152.352Z" fill="#A3AFC2"/>
<path d="M156.116 125.192H151.552C150.689 125.192 150.072 124.575 150.072 123.71V121.241C150.072 120.377 150.689 119.76 151.552 119.76H156.116C156.979 119.76 157.596 120.377 157.596 121.241V123.71C157.596 124.451 156.979 125.192 156.116 125.192Z" fill="#A3AFC2"/>
<path d="M156.116 131.981H151.552C150.689 131.981 150.072 131.364 150.072 130.499V128.03C150.072 127.166 150.689 126.549 151.552 126.549H156.116C156.979 126.549 157.596 127.166 157.596 128.03V130.499C157.596 131.24 156.979 131.981 156.116 131.981Z" fill="#A3AFC2"/>
<path d="M156.116 138.772H151.552C150.689 138.772 150.072 138.155 150.072 137.29V134.821C150.072 133.957 150.689 133.34 151.552 133.34H156.116C156.979 133.34 157.596 133.957 157.596 134.821V137.29C157.596 138.155 156.979 138.772 156.116 138.772Z" fill="#A3AFC2"/>
<path d="M156.116 145.561H151.552C150.689 145.561 150.072 144.944 150.072 144.08V141.61C150.072 140.746 150.689 140.129 151.552 140.129H156.116C156.979 140.129 157.596 140.746 157.596 141.61V144.08C157.596 144.82 156.979 145.561 156.116 145.561Z" fill="#A3AFC2"/>
<path d="M156.116 152.352H151.552C150.689 152.352 150.072 151.735 150.072 150.871V148.401C150.072 147.537 150.689 146.92 151.552 146.92H156.116C156.979 146.92 157.596 147.537 157.596 148.401V150.871C157.596 151.735 156.979 152.352 156.116 152.352Z" fill="#A3AFC2"/>
<path d="M165.614 125.191H161.05C160.187 125.191 159.57 124.574 159.57 123.709V121.24C159.57 120.376 160.187 119.759 161.05 119.759H165.614C166.477 119.759 167.094 120.376 167.094 121.24V123.709C167.217 124.45 166.477 125.191 165.614 125.191Z" fill="#A3AFC2"/>
<path d="M165.614 131.982H161.05C160.187 131.982 159.57 131.365 159.57 130.5V128.031C159.57 127.167 160.187 126.55 161.05 126.55H165.614C166.477 126.55 167.094 127.167 167.094 128.031V130.5C167.217 131.241 166.477 131.982 165.614 131.982Z" fill="#A3AFC2"/>
<path d="M165.614 138.772H161.05C160.187 138.772 159.57 138.155 159.57 137.29V134.821C159.57 133.957 160.187 133.34 161.05 133.34H165.614C166.477 133.34 167.094 133.957 167.094 134.821V137.29C167.217 138.155 166.477 138.772 165.614 138.772Z" fill="#A3AFC2"/>
<path d="M165.614 145.561H161.05C160.187 145.561 159.57 144.944 159.57 144.08V141.61C159.57 140.746 160.187 140.129 161.05 140.129H165.614C166.477 140.129 167.094 140.746 167.094 141.61V144.08C167.217 144.82 166.477 145.561 165.614 145.561Z" fill="#A3AFC2"/>
<path d="M165.614 152.352H161.05C160.187 152.352 159.57 151.735 159.57 150.871V148.401C159.57 147.537 160.187 146.92 161.05 146.92H165.614C166.477 146.92 167.094 147.537 167.094 148.401V150.871C167.217 151.735 166.477 152.352 165.614 152.352Z" fill="#A3AFC2"/>
<path d="M175.108 125.191H170.544C169.681 125.191 169.064 124.574 169.064 123.709V121.24C169.064 120.376 169.681 119.759 170.544 119.759H175.108C175.971 119.759 176.588 120.376 176.588 121.24V123.709C176.588 124.45 175.971 125.191 175.108 125.191Z" fill="#A3AFC2"/>
<path d="M175.108 131.982H170.544C169.681 131.982 169.064 131.365 169.064 130.5V128.031C169.064 127.167 169.681 126.55 170.544 126.55H175.108C175.971 126.55 176.588 127.167 176.588 128.031V130.5C176.588 131.241 175.971 131.982 175.108 131.982Z" fill="#A3AFC2"/>
<path d="M175.108 138.772H170.544C169.681 138.772 169.064 138.155 169.064 137.29V134.821C169.064 133.957 169.681 133.34 170.544 133.34H175.108C175.971 133.34 176.588 133.957 176.588 134.821V137.29C176.588 138.155 175.971 138.772 175.108 138.772Z" fill="#A3AFC2"/>
<path d="M175.108 145.561H170.544C169.681 145.561 169.064 144.944 169.064 144.08V141.61C169.064 140.746 169.681 140.129 170.544 140.129H175.108C175.971 140.129 176.588 140.746 176.588 141.61V144.08C176.588 144.82 175.971 145.561 175.108 145.561Z" fill="#A3AFC2"/>
<path d="M175.108 152.352H170.544C169.681 152.352 169.064 151.735 169.064 150.871V148.401C169.064 147.537 169.681 146.92 170.544 146.92H175.108C175.971 146.92 176.588 147.537 176.588 148.401V150.871C176.588 151.735 175.971 152.352 175.108 152.352Z" fill="#A3AFC2"/>
<path d="M173.013 102.72L173.753 101.98H170.053L170.793 102.72H173.013Z" fill="#A3AFC2"/>
<path d="M170.916 108.401L170.176 109.141H173.876L173.136 108.401H170.916Z" fill="#A3AFC2"/>
<path d="M173.135 106.179V108.278L173.875 109.019V106.056L173.505 105.686L173.135 106.179Z" fill="#A3AFC2"/>
<path d="M173.135 102.846V105.068L173.628 105.439L173.998 105.068V102.105L173.135 102.846Z" fill="#A3AFC2"/>
<path d="M170.793 105.068V102.846L170.053 102.105V105.068L170.299 105.439L170.793 105.068Z" fill="#A3AFC2"/>
<path d="M170.793 106.179L170.299 105.686L170.053 106.056V109.142L170.793 108.402V106.179Z" fill="#A3AFC2"/>
<g filter="url(#filter2_d_1739_7174)">
<path d="M70.7687 101.117C70.7687 104.327 70.152 107.537 69.042 110.376C66.3287 117.537 60.4088 123.092 53.1322 125.438C50.6656 126.302 47.9523 126.673 45.239 126.673C31.0558 126.796 19.5859 115.315 19.5859 101.117C19.5859 86.9195 31.0558 75.5615 45.239 75.5615C59.2988 75.5615 70.7687 87.043 70.7687 101.117Z" fill="url(#paint5_linear_1739_7174)"/>
</g>
<path d="M68.4268 107.536C65.5901 114.697 58.8069 122.104 51.5303 124.573L36.7305 109.141L51.777 108.894L41.7871 96.5484L44.747 90.7459L45.117 88.8941L47.5837 86.6719L68.4268 107.536Z" fill="url(#paint6_linear_1739_7174)"/>
<path d="M52.6397 92.5984L49.8031 95.5613C49.8031 95.5613 48.1998 93.7095 45.7331 93.7095C43.8831 93.7095 42.7732 94.8206 42.7732 96.0552C42.7732 100.129 53.7497 97.7836 53.7497 105.685C53.7497 109.018 51.6531 111.734 47.7064 112.475V115.561H43.6365V112.598C39.1965 111.981 36.9766 109.142 36.9766 109.142L39.8132 106.302C39.8132 106.302 41.6632 108.648 44.9931 108.648C47.3364 108.648 48.6931 107.413 48.6931 105.808C48.6931 101.734 37.7166 104.08 37.7166 96.1786C37.7166 93.2157 39.9365 90.4996 43.5132 89.8823V86.7959H47.5831V89.8823C50.9131 90.4996 52.6397 92.5984 52.6397 92.5984Z" fill="url(#paint7_linear_1739_7174)"/>
<defs>
<filter id="filter0_d_1739_7174" x="32.6976" y="30.1906" width="141.138" height="166.072" filterUnits="userSpaceOnUse" color-interpolation-filters="sRGB">
<feFlood flood-opacity="0" result="BackgroundImageFix"/>
<feColorMatrix in="SourceAlpha" type="matrix" values="0 0 0 0 0 0 0 0 0 0 0 0 0 0 0 0 0 0 127 0" result="hardAlpha"/>
<feOffset dy="13.6082"/>
<feGaussianBlur stdDeviation="13.6082"/>
<feColorMatrix type="matrix" values="0 0 0 0 0.397708 0 0 0 0 0.47749 0 0 0 0 0.575 0 0 0 0.26 0"/>
<feBlend mode="normal" in2="BackgroundImageFix" result="effect1_dropShadow_1739_7174"/>
<feBlend mode="normal" in="SourceGraphic" in2="effect1_dropShadow_1739_7174" result="shape"/>
</filter>
<filter id="filter1_d_1739_7174" x="108.303" y="82.4386" width="99.3256" height="117.652" filterUnits="userSpaceOnUse" color-interpolation-filters="sRGB">
<feFlood flood-opacity="0" result="BackgroundImageFix"/>
<feColorMatrix in="SourceAlpha" type="matrix" values="0 0 0 0 0 0 0 0 0 0 0 0 0 0 0 0 0 0 127 0" result="hardAlpha"/>
<feOffset dy="13.6082"/>
<feGaussianBlur stdDeviation="13.6082"/>
<feColorMatrix type="matrix" values="0 0 0 0 0.397708 0 0 0 0 0.47749 0 0 0 0 0.575 0 0 0 0.18 0"/>
<feBlend mode="normal" in2="BackgroundImageFix" result="effect1_dropShadow_1739_7174"/>
<feBlend mode="normal" in="SourceGraphic" in2="effect1_dropShadow_1739_7174" result="shape"/>
</filter>
<filter id="filter2_d_1739_7174" x="9.68903" y="71.8502" width="70.9774" height="70.9061" filterUnits="userSpaceOnUse" color-interpolation-filters="sRGB">
<feFlood flood-opacity="0" result="BackgroundImageFix"/>
<feColorMatrix in="SourceAlpha" type="matrix" values="0 0 0 0 0 0 0 0 0 0 0 0 0 0 0 0 0 0 127 0" result="hardAlpha"/>
<feOffset dy="6.18557"/>
<feGaussianBlur stdDeviation="4.94845"/>
<feColorMatrix type="matrix" values="0 0 0 0 0.1125 0 0 0 0 0.295916 0 0 0 0 1 0 0 0 0.22 0"/>
<feBlend mode="normal" in2="BackgroundImageFix" result="effect1_dropShadow_1739_7174"/>
<feBlend mode="normal" in="SourceGraphic" in2="effect1_dropShadow_1739_7174" result="shape"/>
</filter>
<linearGradient id="paint0_linear_1739_7174" x1="36.9579" y1="142.804" x2="40.9446" y2="142.804" gradientUnits="userSpaceOnUse">
<stop stop-color="#FF66A9"/>
<stop offset="1" stop-color="#F53689"/>
</linearGradient>
<linearGradient id="paint1_linear_1739_7174" x1="136.269" y1="44.0851" x2="140.256" y2="44.0851" gradientUnits="userSpaceOnUse">
<stop stop-color="#FF66A9"/>
<stop offset="1" stop-color="#F53689"/>
</linearGradient>
<linearGradient id="paint2_linear_1739_7174" x1="172.595" y1="60.1307" x2="176.339" y2="60.1307" gradientUnits="userSpaceOnUse">
<stop stop-color="#83A6FF"/>
<stop offset="1" stop-color="#5A78FF"/>
</linearGradient>
<linearGradient id="paint3_linear_1739_7174" x1="103.544" y1="136.467" x2="129.43" y2="136.467" gradientUnits="userSpaceOnUse">
<stop stop-color="#83A6FF"/>
<stop offset="1" stop-color="#5A78FF"/>
</linearGradient>
<linearGradient id="paint4_linear_1739_7174" x1="140.374" y1="122.649" x2="148.154" y2="122.099" gradientUnits="userSpaceOnUse">
<stop stop-color="#FF66A9"/>
<stop offset="1" stop-color="#F53689"/>
</linearGradient>
<linearGradient id="paint5_linear_1739_7174" x1="31.4036" y1="80.1823" x2="59.6395" y2="123.14" gradientUnits="userSpaceOnUse">
<stop stop-color="#83A6FF"/>
<stop offset="1" stop-color="#5A78FF"/>
</linearGradient>
<linearGradient id="paint6_linear_1739_7174" x1="49.6591" y1="105.034" x2="62.6847" y2="119.692" gradientUnits="userSpaceOnUse">
<stop stop-color="#4F6AFF"/>
<stop offset="1" stop-color="#657EFF" stop-opacity="0"/>
</linearGradient>
<linearGradient id="paint7_linear_1739_7174" x1="52.1592" y1="115.671" x2="39.7698" y2="91.1236" gradientUnits="userSpaceOnUse">
<stop offset="0.0113208" stop-color="#C2D1FF"/>
<stop offset="1" stop-color="white"/>
</linearGradient>
</defs>
</svg>
