<svg width="120" height="98" viewBox="0 0 120 98" fill="none" xmlns="http://www.w3.org/2000/svg">
<path d="M101.642 53.2095C101.642 59.3692 100.342 65.2687 98.0888 70.5609C94.8822 78.0221 89.6823 84.4421 83.0957 89.127C75.9024 94.2457 67.1492 97.1954 57.616 97.1954C33.3496 97.1954 13.5898 77.5015 13.5898 53.2095C13.5898 48.1775 14.4565 43.3191 16.0165 38.8077C17.1431 35.5977 18.5298 32.648 20.3498 29.8717C28.1497 17.4654 41.8428 9.22348 57.4426 9.13672H57.7026C58.3093 9.13672 58.916 9.13672 59.5226 9.13672C62.6426 9.22348 65.6759 9.74402 68.6225 10.4381C73.1291 11.5659 77.2891 13.3878 81.1024 15.817C88.9023 20.6754 95.0555 27.9631 98.5221 36.552L99.5621 39.5018C100.949 43.8397 101.642 48.4378 101.642 53.2095Z" fill="#C5D3E8"/>
<path d="M98.4347 36.6388C98.1748 36.3785 97.8281 36.205 97.6548 36.205C96.9614 35.9447 95.3148 36.2918 95.1414 34.3831C95.1414 34.2964 95.0548 34.2096 94.9681 34.0361C94.6215 34.4699 94.2748 34.8169 93.7548 35.4242C93.3215 34.5566 92.9748 33.7758 92.6282 32.9082C92.3681 33.1685 92.1948 33.4288 91.9348 33.5155C91.5882 33.6891 91.1548 33.9493 90.8948 33.7758C90.2015 33.4288 90.2015 31.8671 90.1149 31.4334C88.4682 32.0407 87.6015 30.6525 86.2149 30.3923C86.0416 31.4334 85.8682 32.5612 85.6949 33.6891C81.1883 34.8169 81.4483 34.3831 78.8483 29.8717C79.8016 29.0909 80.8416 28.6571 81.9683 28.6571C84.0483 28.7439 86.0416 26.0544 85.6949 25.4471C85.0882 24.5795 85.3482 23.6252 85.5216 22.5841C85.1749 22.4974 84.8282 22.3238 84.4816 22.4106C83.6149 22.4974 83.1816 22.1503 82.8349 21.3695C82.3149 19.9814 80.4083 21.543 79.975 18.9403C79.455 15.817 80.1483 15.9038 81.1016 15.817C77.2883 13.3878 73.1284 11.5659 68.6218 10.4381C68.4484 10.6984 68.1018 11.1321 68.0151 11.3924C66.8885 13.7349 65.9351 12.26 64.6352 13.7349C63.5085 15.0362 62.3819 16.3376 61.2552 17.7257C59.6086 16.8581 59.0886 15.2965 58.6552 13.6481C58.1352 11.7394 59.6086 10.4381 59.5219 9.13672C58.7419 9.13672 57.7886 9.13672 57.4419 9.13672C58.7419 11.0454 58.8286 10.5248 55.4486 13.2143C53.1953 9.91753 51.0287 13.8216 49.902 11.4792C48.602 12.3467 47.3887 13.1276 46.1754 14.0819C45.6554 14.4289 45.6554 16.3376 46.0887 16.7714C46.2621 17.0316 46.782 17.2052 47.042 17.1184C48.2554 16.6846 49.382 16.0773 49.902 14.6892C51.0287 15.47 51.8953 14.8627 52.6753 14.0819C53.802 12.954 54.1486 14.1686 55.1886 14.9495C56.3153 15.817 55.7953 16.1641 54.9286 17.8125C54.9286 17.8992 54.9286 17.986 54.9286 18.1595C55.2753 18.0727 55.6219 17.986 56.1419 17.8992C55.7086 19.4608 55.3619 22.7576 52.9353 21.196C51.8953 20.5019 51.462 20.5019 50.8553 21.543C50.5087 22.1503 49.902 22.2371 49.2953 22.2371C44.1821 22.4974 45.2221 23.0179 43.0554 23.712C41.4088 24.2325 43.3154 22.5841 36.8155 26.3147C36.5555 26.4882 36.2955 26.8352 36.2088 27.0955C35.7755 29.3512 35.6888 31.2598 35.2555 31.3466C33.4355 31.5201 34.9089 26.922 30.8356 26.8352C28.4956 26.7485 26.6756 27.8763 25.1156 29.5247C23.9023 30.8261 23.3823 34.7301 26.4156 34.1228C26.7623 34.0361 27.1089 33.8626 27.3689 33.9493C28.0623 34.1228 28.4089 34.9904 27.8889 35.511C27.1956 36.2918 25.3756 36.9858 26.6756 37.8534C27.3689 38.2872 27.0223 38.5475 27.0223 41.0634C27.0223 42.4515 28.0623 43.2324 29.7956 43.9264C32.3089 44.794 32.0489 40.8899 34.4755 42.3648C35.5155 42.9721 36.6422 43.5794 37.8555 44.0132C38.8955 44.447 39.8488 44.9675 40.6288 45.8351C41.7554 47.0497 45.6554 47.31 47.562 52.3419C47.822 53.1227 48.602 53.73 48.9487 54.5108C49.382 55.5519 50.0753 55.8989 51.1153 56.1592C53.7153 56.7665 56.0553 58.5884 56.0553 59.8898C56.0553 61.5382 55.3619 62.8395 54.062 63.8806C52.9353 64.8349 52.6753 67.1774 51.2887 69.3463C48.9487 72.9034 46.782 71.602 45.6554 73.2504C44.7021 74.6385 43.7487 75.9399 42.8821 77.328C41.9288 78.9764 38.4621 80.4513 37.2488 82.1864C36.2955 83.5745 35.1689 84.9627 35.6888 86.9581C35.9488 87.8256 36.3822 89.9078 36.3822 91.0357C34.8222 90.6019 33.8689 89.5608 32.8289 88.5197C31.2689 86.8713 30.8356 84.8759 30.6622 82.707C30.5756 82.0997 30.2289 81.4924 30.1422 80.8851C30.1422 79.6705 30.2289 78.3691 30.3156 77.1545C30.4022 76.2869 30.6622 75.4193 30.2289 74.465C30.0556 74.0312 30.1422 73.3372 30.2289 72.8166C30.9222 67.9582 31.0956 67.6112 30.9222 67.3509C29.7956 66.2231 29.7956 65.0085 30.1422 63.8806C28.6689 62.2322 27.3689 60.7574 26.069 59.2825C25.4623 58.5884 25.2023 57.7208 25.2023 56.7665C25.2023 56.0725 24.9423 55.4652 24.8556 54.7711C24.5956 51.9949 26.069 50.7803 27.5423 48.6113C29.1023 46.3556 28.1489 44.6205 27.6289 44.2735C24.9423 42.7986 26.069 40.8032 24.769 39.8488C23.469 38.8945 23.9023 38.0269 23.989 37.2461C21.389 35.3374 19.7424 34.9037 20.5224 31.4334C20.5224 31.3466 20.609 31.0863 20.609 30.9996C20.6957 30.6525 20.609 30.3055 20.4357 29.9585V29.8717C20.4357 29.8717 20.4357 29.785 20.349 29.785C16.1024 36.552 13.6758 44.5337 13.6758 53.2095C13.6758 76.5472 31.8756 95.7206 54.8419 97.1087C55.7953 97.1954 56.7486 97.1954 57.7019 97.1954C67.1485 97.1954 75.9884 94.1589 83.1816 89.127V89.0403C83.1816 88.9535 83.2683 88.8667 83.2683 88.6932V88.6065C83.2683 88.6065 83.2683 88.6065 83.2683 88.5197C83.7883 87.1316 84.3949 85.7435 85.0882 84.4421C87.6015 80.0175 83.0949 79.6705 87.2549 74.6385C87.7749 73.9445 90.2882 72.1226 88.8149 68.9993C88.2082 67.6979 88.1215 66.6569 88.2949 65.7025C88.6415 63.8806 89.8549 62.4925 89.3349 60.4103C89.1615 59.5428 88.9882 59.456 88.2082 59.803C87.6882 60.0633 87.4282 59.8898 86.9949 59.6295C86.2149 59.1957 85.1749 58.8487 84.3083 59.0222C78.0683 60.1501 74.9484 55.3784 73.8217 54.5976C71.6551 53.1227 72.5217 51.3008 73.995 44.447C74.0817 44.1867 74.1684 43.8397 74.0817 43.5794C73.3884 41.6707 74.6017 40.7164 75.815 39.6753C75.9017 39.5886 75.9884 39.5018 76.075 39.5018C77.635 39.068 78.5883 37.9402 79.5416 36.8123C79.6283 36.7256 79.715 36.552 79.8883 36.552C82.4883 35.5977 85.0882 34.8169 87.7749 35.858C89.3349 36.4653 90.2015 34.8169 94.1015 38.1137C96.2681 40.1091 96.4414 39.1548 99.4747 39.5886L98.4347 36.6388ZM31.8756 34.4699C32.5689 33.0818 33.5222 32.995 34.6489 33.6891C35.2555 34.0361 35.6022 34.0361 38.2021 34.8169C38.2021 34.9904 38.1155 35.0772 38.1155 35.2507C35.9488 35.511 33.9555 34.9037 31.8756 34.4699ZM40.5421 38.2004C39.0688 38.0269 37.8555 37.9402 36.6422 37.7666C37.5088 36.6388 39.6755 36.3785 40.5421 37.2461C40.7155 37.4196 40.5421 37.9402 40.5421 38.2004ZM65.3285 15.3832C67.1485 14.6024 67.8418 14.2554 68.6218 15.123C68.7951 15.2965 68.6218 15.7303 68.5351 16.0773C68.3618 16.6846 67.8418 17.2052 67.4951 17.5522C66.6285 17.2052 65.8485 17.0316 65.1552 16.5979C64.6352 16.2508 64.7218 15.6435 65.3285 15.3832ZM77.5483 23.6252C77.2883 23.2782 77.115 22.9311 76.855 22.4974C77.7217 21.8033 78.2417 21.6298 77.9817 20.849C77.895 20.6754 77.9817 20.2417 78.0683 20.1549C78.2417 20.0681 78.675 19.9814 78.8483 20.1549C79.8883 21.2828 81.535 21.8901 82.0549 23.4517C82.0549 23.5384 82.1416 23.5384 82.1416 23.6252C82.2283 24.1457 82.4883 24.9266 82.3149 25.0133C81.7083 25.4471 81.015 25.7941 80.3216 25.7941C79.6283 25.7941 79.2816 25.1001 79.2816 24.406C79.2816 23.9722 79.1083 23.5384 79.0217 23.0179C78.3283 23.2782 77.9817 23.4517 77.5483 23.6252Z" fill="#EBF0FD"/>
<path opacity="0.08" d="M85.4361 78.2829C85.5228 77.3286 85.9561 76.2007 87.2561 74.6391C87.7761 73.945 90.2894 72.1231 88.8161 68.9998C88.2094 67.6985 88.1228 66.6574 88.2961 65.7031H57.0965C55.8832 65.7031 54.9298 66.6574 54.9298 67.872V81.1459C33.6968 76.808 17.577 59.6301 16.1903 38.6348C14.6303 43.1461 13.7637 48.0046 13.7637 53.0365C13.7637 76.3742 31.9635 95.4608 54.9298 96.9357C55.0165 96.9357 55.1032 96.9357 55.1898 96.9357C55.4498 96.9357 55.7098 96.9357 55.8832 96.9357C56.4898 96.9357 57.0965 97.0225 57.7898 97.0225C67.2364 97.0225 76.0763 93.986 83.2695 88.954C89.8561 84.2691 95.056 77.8491 98.2626 70.388C94.3627 73.6847 90.1161 76.3742 85.4361 78.2829Z" fill="#4E5F78"/>
<path d="M103.462 65.0957V94.3329C103.462 95.5475 102.508 96.5886 101.208 96.5886H61.6889C60.4755 96.5886 59.4355 95.6343 59.4355 94.3329V65.0957C59.4355 63.8811 60.3889 62.9268 61.6889 62.9268H101.208C102.422 62.9268 103.462 63.8811 103.462 65.0957Z" fill="url(#paint0_linear_1794_8515)"/>
<path d="M103.464 88.694V94.2464C103.464 95.5478 102.424 96.5889 101.124 96.5889H89.2505L85.0039 92.3378L89.6839 91.7305L86.8239 88.9542L87.1705 87.2191L85.0906 85.0501L87.7772 84.0091L88.2105 82.5342C88.2972 82.5342 91.4172 84.7899 91.4172 84.7899L95.4038 88.7807L96.0104 84.0091L98.4371 83.315L103.464 88.694Z" fill="url(#paint1_linear_1794_8515)"/>
<path opacity="0.3" d="M85.8687 62.9268V72.8171L81.8821 74.8993L79.0221 72.6436L76.8555 74.4655V62.9268H85.8687Z" fill="white"/>
<path d="M85.5227 85.3101H86.8227V88.7804C86.8227 88.8672 86.9093 89.0407 87.0827 89.0407H88.9026H89.336C89.4226 89.0407 89.596 88.9539 89.596 88.7804V85.3101H90.8093C90.9826 85.3101 91.0693 85.2234 91.2426 85.1366C91.5026 84.8763 91.5893 84.5293 91.3293 84.1823L88.7293 80.8855L88.6426 80.7988C88.3826 80.5385 87.9493 80.6252 87.6893 80.8855L85.0893 84.1823C85.0027 84.269 84.916 84.4426 84.916 84.6161C84.916 84.9631 85.176 85.3101 85.5227 85.3101Z" fill="url(#paint2_linear_1794_8515)"/>
<path d="M93.3242 85.3101H94.5375V88.7804C94.5375 88.8672 94.6242 89.0407 94.7975 89.0407H96.6175H97.0508C97.1375 89.0407 97.3108 88.9539 97.3108 88.7804V85.3101H98.5241C98.6975 85.3101 98.7841 85.2234 98.9575 85.1366C99.2174 84.8763 99.3041 84.5293 99.0441 84.1823L96.4441 80.8855L96.3575 80.7988C96.0975 80.5385 95.6642 80.6252 95.4042 80.8855L92.8042 84.1823C92.7175 84.269 92.6309 84.4426 92.6309 84.6161C92.6309 84.9631 92.9775 85.3101 93.3242 85.3101Z" fill="url(#paint3_linear_1794_8515)"/>
<path d="M99.1292 91.123H85.0893C85.0027 91.123 84.916 91.2098 84.916 91.2966V92.1641C84.916 92.2509 85.0027 92.3376 85.0893 92.3376H99.1292C99.2158 92.3376 99.3025 92.2509 99.3025 92.1641V91.2966C99.3025 91.2098 99.2158 91.123 99.1292 91.123Z" fill="url(#paint4_linear_1794_8515)"/>
<g filter="url(#filter0_d_1794_8515)">
<path d="M42.9684 13.9954C42.9684 15.3835 42.7084 16.7716 42.275 18.2465C41.4084 21.1963 39.7617 24.3195 38.1151 27.356C36.2951 30.6528 34.3018 33.9496 33.0885 36.7258C32.9152 37.2464 32.3952 37.5067 31.8752 37.5067C31.3552 37.5067 30.8352 37.1596 30.6619 36.7258C27.7152 30.1323 20.6953 21.0228 20.6953 13.9954C20.6953 7.83564 25.7219 2.80371 31.8752 2.80371C38.0284 2.80371 42.9684 7.83564 42.9684 13.9954Z" fill="url(#paint5_linear_1794_8515)"/>
</g>
<path d="M42.2752 18.1593C41.4085 21.1091 39.7619 24.2324 38.1152 27.2689L28.582 17.7256L32.742 13.7347L35.5153 11.2188L42.2752 18.1593Z" fill="url(#paint6_linear_1794_8515)"/>
<path d="M31.876 19.1146C34.476 19.1146 36.6426 17.0324 36.6426 14.3429C36.6426 11.6535 34.5626 9.57129 31.876 9.57129C29.276 9.57129 27.1094 11.6535 27.1094 14.3429C27.1094 17.0324 29.1893 19.1146 31.876 19.1146Z" fill="url(#paint7_linear_1794_8515)"/>
<g filter="url(#filter1_d_1794_8515)">
<path d="M94.5356 26.0549C94.5356 27.2695 94.2756 28.5709 93.929 29.8722C93.149 32.5617 91.6756 35.4247 90.1157 38.2009C88.3824 41.2374 86.649 44.1872 85.5224 46.7032C85.3491 47.1369 84.9157 47.3972 84.3957 47.3972C83.9624 47.3972 83.4424 47.1369 83.2691 46.7032C80.6691 40.8037 74.2559 32.475 74.2559 26.0549C74.2559 20.4157 78.8491 15.9043 84.3957 15.9043C89.9423 15.9043 94.5356 20.4157 94.5356 26.0549Z" fill="url(#paint8_linear_1794_8515)"/>
</g>
<path d="M93.8412 29.8725C93.0612 32.562 91.5879 35.425 90.0279 38.2012L81.3613 29.5255L85.1746 25.8817L87.6879 23.626L93.8412 29.8725Z" fill="url(#paint9_linear_1794_8515)"/>
<path d="M84.3958 30.7392C86.8224 30.7392 88.7291 28.8306 88.7291 26.4013C88.7291 23.9721 86.8224 22.0635 84.3958 22.0635C81.9691 22.0635 80.0625 23.9721 80.0625 26.4013C80.0625 28.8306 81.9691 30.7392 84.3958 30.7392Z" fill="url(#paint10_linear_1794_8515)"/>
<path d="M16.7096 24.146C17.4896 24.146 18.183 23.5387 18.183 22.6712C18.183 21.8903 17.5763 21.1963 16.7096 21.1963C15.9297 21.1963 15.2363 21.8036 15.2363 22.6712C15.323 23.5387 15.9297 24.146 16.7096 24.146Z" fill="url(#paint11_linear_1794_8515)"/>
<path d="M16.8835 89.9947C17.6635 89.9947 18.3568 89.3874 18.3568 88.5198C18.3568 87.6522 17.7501 87.0449 16.8835 87.0449C16.1035 87.0449 15.4102 87.6522 15.4102 88.5198C15.4102 89.3874 16.1035 89.9947 16.8835 89.9947Z" fill="url(#paint12_linear_1794_8515)"/>
<path d="M103.201 26.1415C103.981 26.1415 104.588 25.5342 104.588 24.7534C104.588 23.9725 103.981 23.3652 103.201 23.3652C102.421 23.3652 101.814 23.9725 101.814 24.7534C101.901 25.5342 102.508 26.1415 103.201 26.1415Z" fill="url(#paint13_linear_1794_8515)"/>
<path d="M19.916 96.8486H106.408" stroke="#B1B9CC" stroke-width="1.5732" stroke-miterlimit="10" stroke-linecap="round" stroke-linejoin="round"/>
<path d="M13.5898 96.8486H16.8831" stroke="#B1B9CC" stroke-width="1.5732" stroke-miterlimit="10" stroke-linecap="round" stroke-linejoin="round"/>
<defs>
<filter id="filter0_d_1794_8515" x="14.4025" y="0.44391" width="34.859" height="47.2887" filterUnits="userSpaceOnUse" color-interpolation-filters="sRGB">
<feFlood flood-opacity="0" result="BackgroundImageFix"/>
<feColorMatrix in="SourceAlpha" type="matrix" values="0 0 0 0 0 0 0 0 0 0 0 0 0 0 0 0 0 0 127 0" result="hardAlpha"/>
<feOffset dy="3.933"/>
<feGaussianBlur stdDeviation="3.1464"/>
<feColorMatrix type="matrix" values="0 0 0 0 0.968627 0 0 0 0 0.254902 0 0 0 0 0.564706 0 0 0 0.3 0"/>
<feBlend mode="normal" in2="BackgroundImageFix" result="effect1_dropShadow_1794_8515"/>
<feBlend mode="normal" in="SourceGraphic" in2="effect1_dropShadow_1794_8515" result="shape"/>
</filter>
<filter id="filter1_d_1794_8515" x="67.9631" y="13.5445" width="32.8649" height="44.0788" filterUnits="userSpaceOnUse" color-interpolation-filters="sRGB">
<feFlood flood-opacity="0" result="BackgroundImageFix"/>
<feColorMatrix in="SourceAlpha" type="matrix" values="0 0 0 0 0 0 0 0 0 0 0 0 0 0 0 0 0 0 127 0" result="hardAlpha"/>
<feOffset dy="3.933"/>
<feGaussianBlur stdDeviation="3.1464"/>
<feColorMatrix type="matrix" values="0 0 0 0 0.968627 0 0 0 0 0.254902 0 0 0 0 0.564706 0 0 0 0.3 0"/>
<feBlend mode="normal" in2="BackgroundImageFix" result="effect1_dropShadow_1794_8515"/>
<feBlend mode="normal" in="SourceGraphic" in2="effect1_dropShadow_1794_8515" result="shape"/>
</filter>
<linearGradient id="paint0_linear_1794_8515" x1="76.6864" y1="61.3789" x2="85.2692" y2="94.0743" gradientUnits="userSpaceOnUse">
<stop stop-color="#83A6FF"/>
<stop offset="1" stop-color="#5A78FF"/>
</linearGradient>
<linearGradient id="paint1_linear_1794_8515" x1="91.5985" y1="87.7715" x2="100.622" y2="97.1687" gradientUnits="userSpaceOnUse">
<stop stop-color="#4F6AFF"/>
<stop offset="1" stop-color="#657EFF" stop-opacity="0"/>
</linearGradient>
<linearGradient id="paint2_linear_1794_8515" x1="97.431" y1="94.6001" x2="85.9061" y2="83.0874" gradientUnits="userSpaceOnUse">
<stop offset="0.0113208" stop-color="#C2D1FF"/>
<stop offset="1" stop-color="white"/>
</linearGradient>
<linearGradient id="paint3_linear_1794_8515" x1="101.318" y1="90.7104" x2="89.7934" y2="79.1977" gradientUnits="userSpaceOnUse">
<stop offset="0.0113208" stop-color="#C2D1FF"/>
<stop offset="1" stop-color="white"/>
</linearGradient>
<linearGradient id="paint4_linear_1794_8515" x1="96.1871" y1="95.8455" x2="84.6623" y2="84.3328" gradientUnits="userSpaceOnUse">
<stop offset="0.0113208" stop-color="#C2D1FF"/>
<stop offset="1" stop-color="white"/>
</linearGradient>
<linearGradient id="paint5_linear_1794_8515" x1="20.7048" y1="20.1085" x2="42.9924" y2="20.1085" gradientUnits="userSpaceOnUse">
<stop stop-color="#FF66A9"/>
<stop offset="1" stop-color="#F53689"/>
</linearGradient>
<linearGradient id="paint6_linear_1794_8515" x1="31.7931" y1="14.252" x2="39.4131" y2="21.8664" gradientUnits="userSpaceOnUse">
<stop stop-color="#E81778"/>
<stop offset="1" stop-color="#E01F79" stop-opacity="0"/>
</linearGradient>
<linearGradient id="paint7_linear_1794_8515" x1="35.0538" y1="17.5496" x2="28.587" y2="11.0877" gradientUnits="userSpaceOnUse">
<stop offset="0.0113208" stop-color="#FFC9E3"/>
<stop offset="1" stop-color="white"/>
</linearGradient>
<linearGradient id="paint8_linear_1794_8515" x1="74.2113" y1="31.6387" x2="94.5268" y2="31.6387" gradientUnits="userSpaceOnUse">
<stop stop-color="#FF66A9"/>
<stop offset="1" stop-color="#F53689"/>
</linearGradient>
<linearGradient id="paint9_linear_1794_8515" x1="84.3171" y1="26.3009" x2="91.263" y2="33.2417" gradientUnits="userSpaceOnUse">
<stop stop-color="#E81778"/>
<stop offset="1" stop-color="#E01F79" stop-opacity="0"/>
</linearGradient>
<linearGradient id="paint10_linear_1794_8515" x1="87.2899" y1="29.3051" x2="81.3953" y2="23.415" gradientUnits="userSpaceOnUse">
<stop offset="0.0113208" stop-color="#FFC9E3"/>
<stop offset="1" stop-color="white"/>
</linearGradient>
<linearGradient id="paint11_linear_1794_8515" x1="15.2981" y1="22.7474" x2="18.0997" y2="22.7474" gradientUnits="userSpaceOnUse">
<stop stop-color="#83A6FF"/>
<stop offset="1" stop-color="#5A78FF"/>
</linearGradient>
<linearGradient id="paint12_linear_1794_8515" x1="15.4454" y1="88.5788" x2="18.247" y2="88.5788" gradientUnits="userSpaceOnUse">
<stop stop-color="#FF66A9"/>
<stop offset="1" stop-color="#F53689"/>
</linearGradient>
<linearGradient id="paint13_linear_1794_8515" x1="101.91" y1="24.7763" x2="104.541" y2="24.7763" gradientUnits="userSpaceOnUse">
<stop stop-color="#83A6FF"/>
<stop offset="1" stop-color="#5A78FF"/>
</linearGradient>
</defs>
</svg>
