<svg width="200" height="200" viewBox="0 0 200 200" fill="none" xmlns="http://www.w3.org/2000/svg">
<path d="M160.925 100.415C160.925 116.129 155 130.36 145.223 141.034C145.223 141.034 145.223 141.034 145.223 141.33C131.299 157.637 105.228 167.125 77.676 157.341C67.307 153.19 56.938 144.888 56.0492 142.813C19.3131 104.566 45.9764 39.6348 99.8954 39.6348C133.669 39.6348 160.925 66.9117 160.925 100.415Z" fill="#EAEEF9"/>
<path d="M144.926 141.33C124.781 165.643 82.4158 169.795 56.0488 142.813L144.926 141.33Z" fill="#E9F0F8"/>
<path d="M145.223 141.331C131.298 157.934 105.228 167.125 77.6757 157.341C67.3066 153.19 56.9376 144.889 56.0488 142.813C58.7152 139.848 66.4179 137.773 82.1196 131.25C87.4522 129.175 86.2672 123.542 86.2672 112.275C85.0821 110.793 83.8971 108.421 83.6009 105.752L82.4158 105.159C79.157 106.049 79.4532 102.491 78.5645 95.6716C78.2682 92.7067 78.5645 92.4102 80.0458 91.8172L79.9105 91.3579C75.7629 81.8703 75.0094 69.4177 84.1934 64.9704C83.6009 63.7845 82.1196 59.9301 82.1196 58.7441C86.5634 59.3371 94.4272 60.8196 99.1673 59.9301C106.278 58.4477 114.276 61.1161 117.239 67.9353C130.867 73.2721 124.053 86.3176 122.572 91.6544C122.275 91.9509 122.275 92.5439 122.275 92.5439C122.275 92.5439 122.275 92.8404 122.572 92.8404C123.46 93.1368 124.781 93.0032 124.485 95.3751C123.892 101.898 123.892 105.752 120.633 104.863L117.671 109.903C117.671 112.275 116.782 123.838 117.671 126.506C118.263 128.582 119.744 130.064 121.522 130.657C136.631 137.477 141.964 138.959 145.223 141.331Z" fill="white"/>
<path d="M145.223 141.33C131.298 157.933 105.228 167.124 77.6757 157.34C67.3066 153.189 56.9376 144.888 56.0488 142.812C60.1964 138.365 81.8233 133.028 84.7859 129.174C93.0811 140.44 110.264 140.44 118.559 129.174C119.152 130.063 120.041 130.656 120.929 130.953C136.631 137.476 141.964 138.958 145.223 141.33Z" fill="url(#paint0_linear_1753_7128)"/>
<path d="M122.734 91.8147C123.038 90.289 122.126 88.153 121.518 86.6273C121.518 86.3221 121.214 86.017 121.214 86.017C118.477 80.8295 112.7 78.6935 107.227 78.3884C92.9364 77.7781 91.7202 80.5244 87.1593 76.2524C89.2877 79.3038 88.6796 87.8478 79.5579 90.5941C73.1728 75.9472 76.2133 66.4878 82.5985 63.4363C80.4701 58.8592 80.4701 57.0283 80.4701 57.0283C80.4701 57.0283 94.1526 59.4695 98.7134 58.2489C104.795 57.0283 113.916 58.554 117.261 66.4878C132.464 71.9804 123.95 87.2376 122.734 91.8147Z" fill="#1C3754"/>
<path d="M85.8605 111.775C85.5513 111.466 85.5513 111.157 85.2422 110.848V110.23C87.097 113.319 88.3336 113.628 98.5352 120.733C101.008 122.895 104.409 122.895 106.882 120.733C107.191 120.424 117.393 111.466 117.702 110.848C117.702 112.084 117.393 125.057 118.011 126.601H85.5513C85.8605 125.675 85.8605 113.628 85.8605 111.775Z" fill="url(#paint1_linear_1753_7128)"/>
<path d="M44.1787 137.761C45.208 137.761 46.123 136.962 46.123 135.82C46.123 134.792 45.3224 133.879 44.1787 133.879C43.1493 133.879 42.2344 134.678 42.2344 135.82C42.2344 136.962 43.035 137.761 44.1787 137.761Z" fill="url(#paint2_linear_1753_7128)"/>
<path d="M152.496 66.6628C153.525 66.6628 154.326 65.8635 154.326 64.8358C154.326 63.8081 153.525 63.0088 152.496 63.0088C151.467 63.0088 150.666 63.8081 150.666 64.8358C150.666 65.8635 151.581 66.6628 152.496 66.6628Z" fill="url(#paint3_linear_1753_7128)"/>
<path d="M44.4159 56.5905C45.4452 56.5905 46.2458 55.7912 46.2458 54.7635C46.2458 53.7358 45.4452 52.9365 44.4159 52.9365C43.3865 52.9365 42.5859 53.7358 42.5859 54.7635C42.5859 55.7912 43.3865 56.5905 44.4159 56.5905Z" fill="url(#paint4_linear_1753_7128)"/>
<defs>
<linearGradient id="paint0_linear_1753_7128" x1="56.0512" y1="145.123" x2="145.166" y2="145.123" gradientUnits="userSpaceOnUse">
<stop stop-color="#FF66A9"/>
<stop offset="1" stop-color="#F53689"/>
</linearGradient>
<linearGradient id="paint1_linear_1753_7128" x1="101.563" y1="126.092" x2="101.563" y2="117.516" gradientUnits="userSpaceOnUse">
<stop stop-color="white"/>
<stop offset="0.9913" stop-color="#D6DEEA"/>
</linearGradient>
<linearGradient id="paint2_linear_1753_7128" x1="42.2344" y1="135.918" x2="45.9315" y2="135.918" gradientUnits="userSpaceOnUse">
<stop stop-color="#83A6FF"/>
<stop offset="1" stop-color="#5A78FF"/>
</linearGradient>
<linearGradient id="paint3_linear_1753_7128" x1="150.777" y1="64.8631" x2="154.249" y2="64.8631" gradientUnits="userSpaceOnUse">
<stop stop-color="#83A6FF"/>
<stop offset="1" stop-color="#5A78FF"/>
</linearGradient>
<linearGradient id="paint4_linear_1753_7128" x1="42.6446" y1="54.8317" x2="46.1169" y2="54.8317" gradientUnits="userSpaceOnUse">
<stop stop-color="#FF66A9"/>
<stop offset="1" stop-color="#F53689"/>
</linearGradient>
</defs>
</svg>
