<svg width="200" height="200" viewBox="0 0 200 200" fill="none" xmlns="http://www.w3.org/2000/svg">
<path d="M170.589 100.5C170.589 116.344 165.297 131.035 156.428 142.846C151.565 149.183 145.7 154.801 138.978 159.122C128.107 166.323 115.091 170.5 101.073 170.5C62.5961 170.356 31.4141 138.957 31.4141 100.356C31.4141 61.7552 62.5961 30.5 100.93 30.5C114.948 30.5 127.964 34.677 138.835 41.7346C145.557 46.0556 151.422 51.6729 156.285 58.0103C165.297 69.9651 170.589 84.5124 170.589 100.5Z" fill="#EAEEF9"/>
<path d="M167.097 62.4743C168.385 62.4743 169.386 61.4661 169.386 60.1698C169.386 58.8735 168.385 57.8652 167.097 57.8652C165.81 57.8652 164.809 58.8735 164.809 60.1698C164.952 61.4661 165.953 62.4743 167.097 62.4743Z" fill="url(#paint0_linear_1739_7175)"/>
<path d="M41.8823 54.5143C43.1697 54.5143 44.1709 53.5061 44.1709 52.2098C44.1709 50.9135 43.1697 49.9053 41.8823 49.9053C40.595 49.9053 39.5938 50.9135 39.5938 52.2098C39.5938 53.5061 40.738 54.5143 41.8823 54.5143Z" fill="url(#paint1_linear_1739_7175)"/>
<path d="M76.615 154.367C83.6458 154.367 89.3453 148.435 89.3453 141.116C89.3453 133.798 83.6458 127.865 76.615 127.865C69.5843 127.865 63.8848 133.798 63.8848 141.116C63.8848 148.435 69.5843 154.367 76.615 154.367Z" fill="#1C3754"/>
<path d="M83.1952 147.742H80.1914V154.224H83.1952V147.742Z" fill="#1C3754"/>
<path d="M80.4764 154.367C87.5071 154.367 93.2066 148.435 93.2066 141.116C93.2066 133.798 87.5071 127.865 80.4764 127.865C73.4456 127.865 67.7461 133.798 67.7461 141.116C67.7461 148.435 73.4456 154.367 80.4764 154.367Z" fill="#112133"/>
<path d="M109.228 144.428H106.367V154.366H109.228V144.428Z" fill="#112133"/>
<path d="M117.81 38.1327L111.516 39.2849L86.7707 136.507L82.7656 135.499L107.368 38.5648C107.654 37.5565 108.655 36.9804 109.657 37.1244L117.81 38.1327Z" fill="#D9E0EB"/>
<path d="M128.537 40.5819C128.537 39.7177 127.536 38.9975 126.821 38.9975L112.66 37.7012C111.373 37.5572 110.228 38.4214 109.942 39.7177L85.3398 136.22L89.3449 137.228L113.089 43.8946C113.375 42.5983 114.519 41.7341 115.807 41.8782L126.248 42.8864C127.536 43.0304 128.537 42.0222 128.537 40.5819Z" fill="#AAB3BF"/>
<path d="M98.3559 137.227L97.2116 142.268L50.0094 130.313L29.4121 124.984L30.5564 120.087L51.2967 125.272L98.3559 137.227Z" fill="#AAB3BF"/>
<path d="M51.2967 125.272L50.0094 130.313L29.4121 124.984L30.5564 120.087L51.2967 125.272Z" fill="#D9E0EB"/>
<path d="M148.134 38.5648L141.84 39.7171L117.095 136.939L113.09 135.931L137.692 38.8529C137.978 37.8446 138.98 37.2685 139.981 37.4125L148.134 38.5648Z" fill="#D9E0EB"/>
<path d="M158.861 41.0145C158.861 40.1503 157.86 39.4301 157.145 39.4301L143.127 38.1338C141.84 37.9898 140.696 38.854 140.409 40.1503L115.664 136.652L119.669 137.661L143.556 44.3272C143.842 43.0309 144.987 42.1667 146.274 42.3108L156.716 43.319C157.86 43.463 158.861 42.4548 158.861 41.0145Z" fill="#AAB3BF"/>
<path d="M133.544 55.7052L106.367 53.5447L107.225 50.0879L134.402 52.3924L133.544 55.7052Z" fill="#BEC9D7"/>
<path d="M135.404 58.0098L105.08 54.8411L105.938 51.5283L136.262 54.553L135.404 58.0098Z" fill="#D9E0EB"/>
<path d="M122.245 100.499L95.2109 98.3386L96.0692 94.8818L123.103 97.1864L122.245 100.499Z" fill="#BEC9D7"/>
<path d="M124.105 102.804L93.7812 99.635L94.6395 96.3223L124.963 99.347L124.105 102.804Z" fill="#D9E0EB"/>
<path d="M113.803 132.908L86.7695 130.604L87.6278 127.291L114.662 129.452L113.803 132.908Z" fill="#AAB3BF"/>
<path d="M115.664 135.068L85.3398 132.044L86.1981 128.587L116.522 131.612L115.664 135.068Z" fill="#D9E0EB"/>
<path d="M37.5352 154.801H170.447" stroke="#B1B9CC" stroke-width="2.35295" stroke-miterlimit="10" stroke-linecap="round" stroke-linejoin="round"/>
<path d="M29.9824 154.8H32.5571" stroke="#B1B9CC" stroke-width="2.35295" stroke-miterlimit="10" stroke-linecap="round" stroke-linejoin="round"/>
<path d="M123.389 54.2646L121.243 62.4745L64.3145 48.0712L66.317 39.8613L123.389 54.2646Z" fill="url(#paint2_linear_1739_7175)"/>
<path d="M120.24 62.1866L111.801 96.1784L56.875 82.2072L65.3142 48.3594L120.24 62.1866Z" fill="url(#paint3_linear_1739_7175)"/>
<path d="M84.195 44.3264L73.6103 86.5281L56.875 82.2071L65.3142 48.3593L64.3129 48.0712L66.3154 39.8613L84.195 44.3264Z" fill="url(#paint4_linear_1739_7175)"/>
<path d="M65.3321 48.2605L65.0879 49.2383L120.02 63.1496L120.264 62.1719L65.3321 48.2605Z" fill="#4B64E3"/>
<path opacity="0.3" d="M97.9772 47.8957L87.4414 90.0801L92.4352 91.3447L102.971 49.1604L97.9772 47.8957Z" fill="white"/>
<path d="M117.379 97.3311L115.376 105.541L114.232 105.253L91.4892 99.4915L58.3047 91.1376L60.4502 82.9277L78.1868 87.3928L117.379 97.3311Z" fill="url(#paint5_linear_1739_7175)"/>
<path d="M114.232 105.253L111.229 117.352L105.793 139.245L50.8672 125.418L59.4494 91.4258L91.4896 99.4916L114.232 105.253Z" fill="url(#paint6_linear_1739_7175)"/>
<path d="M78.1872 87.3928L67.6025 129.594L50.8672 125.418L59.4494 91.4257L58.3051 91.1376L60.4507 82.9277L78.1872 87.3928Z" fill="url(#paint7_linear_1739_7175)"/>
<path d="M59.4571 91.4334L59.2129 92.4111L114.145 106.322L114.389 105.345L59.4571 91.4334Z" fill="#4B64E3"/>
<path opacity="0.3" d="M92.0084 90.9711L81.7168 132.178L86.7106 133.442L97.0022 92.2358L92.0084 90.9711Z" fill="white"/>
<path d="M111.945 128.297L112.088 127.865H108.655C101.361 127.865 95.4961 133.771 95.4961 141.116C95.4961 157.968 121.386 159.264 121.672 141.404C121.815 134.923 117.667 129.738 111.945 128.297Z" fill="#112133"/>
<path d="M111.802 154.367C119.07 154.367 124.961 148.435 124.961 141.116C124.961 133.798 119.07 127.865 111.802 127.865C104.534 127.865 98.6426 133.798 98.6426 141.116C98.6426 148.435 104.534 154.367 111.802 154.367Z" fill="#1C3754"/>
<path d="M111.801 147.165C115.118 147.165 117.808 144.457 117.808 141.116C117.808 137.775 115.118 135.066 111.801 135.066C108.483 135.066 105.793 137.775 105.793 141.116C105.793 144.457 108.483 147.165 111.801 147.165Z" fill="#112133"/>
<path opacity="0.5" d="M117.38 97.3309L115.377 105.541L114.233 105.253L111.229 117.351L91.4899 99.4914L78.1875 87.3926L117.38 97.3309Z" fill="url(#paint8_linear_1739_7175)"/>
<path d="M156.092 104.181C155.932 104.501 155.933 104.822 155.773 105.143C155.455 105.945 155.136 106.907 154.659 107.708C152.907 111.717 148.449 116.687 142.08 119.092C140.169 119.893 138.258 120.375 136.189 120.535C133.959 120.856 131.412 120.695 129.023 120.214C116.285 117.489 108.165 105.143 110.872 92.3162C114.693 73.8778 137.303 67.1439 150.359 80.4516C156.569 86.865 158.48 96.1641 156.092 104.181Z" fill="url(#paint9_linear_1739_7175)"/>
<path d="M155.751 105.126C155.433 105.928 155.114 106.89 154.637 107.691C152.885 111.7 148.427 116.67 142.058 119.075C140.147 119.877 138.237 120.358 136.167 120.518L123.588 107.852L125.976 106.088L136.963 104.484L128.524 96.1471L127.569 90.5354L129.32 85.8857L134.893 91.4974L142.536 92.2991L155.751 105.126Z" fill="url(#paint10_linear_1739_7175)"/>
<path d="M144.764 98.7125C144.764 93.2611 140.306 88.9321 134.892 88.9321H129.956V87.0081C129.956 86.3667 129.479 85.8857 128.842 85.8857C128.523 85.8857 128.364 86.0461 128.205 86.0461L123.11 90.0544C122.632 90.3751 122.473 91.1768 122.951 91.6578L123.11 91.8181L128.205 95.8265C128.683 96.1471 129.32 96.1471 129.797 95.6661C129.956 95.5058 129.956 95.1851 129.956 95.0248V93.1008H134.892C137.918 93.1008 140.306 95.5058 140.306 98.5521C140.306 101.598 137.918 104.003 134.892 104.003H125.02C123.906 104.003 122.791 104.965 122.791 106.088C122.791 107.21 123.747 108.333 124.861 108.333H134.892C140.306 108.653 144.764 104.164 144.764 98.7125Z" fill="url(#paint11_linear_1739_7175)"/>
<defs>
<linearGradient id="paint0_linear_1739_7175" x1="164.956" y1="60.2164" x2="169.299" y2="60.2164" gradientUnits="userSpaceOnUse">
<stop stop-color="#83A6FF"/>
<stop offset="1" stop-color="#5A78FF"/>
</linearGradient>
<linearGradient id="paint1_linear_1739_7175" x1="39.7102" y1="52.2594" x2="44.0528" y2="52.2594" gradientUnits="userSpaceOnUse">
<stop stop-color="#FF66A9"/>
<stop offset="1" stop-color="#F53689"/>
</linearGradient>
<linearGradient id="paint2_linear_1739_7175" x1="64.3149" y1="51.1622" x2="123.344" y2="51.1622" gradientUnits="userSpaceOnUse">
<stop stop-color="#83A6FF"/>
<stop offset="1" stop-color="#5A78FF"/>
</linearGradient>
<linearGradient id="paint3_linear_1739_7175" x1="56.8894" y1="72.2418" x2="120.239" y2="72.2418" gradientUnits="userSpaceOnUse">
<stop stop-color="#83A6FF"/>
<stop offset="1" stop-color="#5A78FF"/>
</linearGradient>
<linearGradient id="paint4_linear_1739_7175" x1="67.2751" y1="66.2309" x2="42.7417" y2="92.7846" gradientUnits="userSpaceOnUse">
<stop stop-color="#A4BDFF"/>
<stop offset="1" stop-color="#5A78FF"/>
</linearGradient>
<linearGradient id="paint5_linear_1739_7175" x1="58.3515" y1="94.2701" x2="117.373" y2="94.2701" gradientUnits="userSpaceOnUse">
<stop stop-color="#83A6FF"/>
<stop offset="1" stop-color="#5A78FF"/>
</linearGradient>
<linearGradient id="paint6_linear_1739_7175" x1="50.9197" y1="115.352" x2="114.268" y2="115.352" gradientUnits="userSpaceOnUse">
<stop stop-color="#83A6FF"/>
<stop offset="1" stop-color="#5A78FF"/>
</linearGradient>
<linearGradient id="paint7_linear_1739_7175" x1="61.2672" y1="109.297" x2="36.7339" y2="135.851" gradientUnits="userSpaceOnUse">
<stop stop-color="#A4BDFF"/>
<stop offset="1" stop-color="#5A78FF"/>
</linearGradient>
<linearGradient id="paint8_linear_1739_7175" x1="86.9248" y1="82.2708" x2="111.928" y2="105.353" gradientUnits="userSpaceOnUse">
<stop offset="0.00289017" stop-color="#121E5C"/>
<stop offset="1" stop-color="#3D4B6D" stop-opacity="0.2"/>
</linearGradient>
<linearGradient id="paint9_linear_1739_7175" x1="110.192" y1="97.2337" x2="157.098" y2="97.2337" gradientUnits="userSpaceOnUse">
<stop stop-color="#FF66A9"/>
<stop offset="1" stop-color="#F53689"/>
</linearGradient>
<linearGradient id="paint10_linear_1739_7175" x1="124.429" y1="91.2962" x2="148.66" y2="115.36" gradientUnits="userSpaceOnUse">
<stop stop-color="#E81778"/>
<stop offset="1" stop-color="#E01F79" stop-opacity="0"/>
</linearGradient>
<linearGradient id="paint11_linear_1739_7175" x1="140.842" y1="108.278" x2="123.721" y2="90.9692" gradientUnits="userSpaceOnUse">
<stop offset="0.0113208" stop-color="#FFC9E3"/>
<stop offset="1" stop-color="white"/>
</linearGradient>
</defs>
</svg>
