<svg width="200" height="200" viewBox="0 0 200 200" fill="none" xmlns="http://www.w3.org/2000/svg">
<path d="M20.0096 112.266C21.2606 112.266 22.3726 111.274 22.3726 109.856C22.3726 108.58 21.3996 107.446 20.0096 107.446C18.7585 107.446 17.6465 108.439 17.6465 109.856C17.6465 111.132 18.6195 112.266 20.0096 112.266Z" fill="url(#paint0_linear_1739_7172)"/>
<path d="M180.697 83.0622C182.782 81.0775 182.921 77.8169 180.975 75.6905C179.029 73.564 175.832 73.4223 173.608 75.407C171.523 77.3917 171.384 80.6522 173.33 82.7787C175.276 84.9051 178.473 85.0469 180.697 83.0622Z" fill="#EAEEF9"/>
<path d="M179.587 60.097C180.838 60.097 181.811 59.1046 181.811 57.8288C181.811 56.5529 180.838 55.5605 179.587 55.5605C178.336 55.5605 177.363 56.5529 177.363 57.8288C177.363 59.1046 178.336 60.097 179.587 60.097Z" fill="url(#paint1_linear_1739_7172)"/>
<path d="M171.105 99.3652C170.688 99.3652 170.41 99.0817 170.41 98.6564V96.6717C170.41 96.2464 170.688 95.9629 171.105 95.9629C171.522 95.9629 171.8 96.2464 171.8 96.6717V98.6564C171.8 99.0817 171.383 99.3652 171.105 99.3652Z" fill="#BCC5D6"/>
<path d="M171.105 139.769C170.688 139.769 170.41 139.486 170.41 139.061V111.417C170.41 110.992 170.688 110.708 171.105 110.708C171.522 110.708 171.8 110.992 171.8 111.417V138.919C171.8 139.486 171.383 139.769 171.105 139.769Z" fill="#BCC5D6"/>
<path d="M171.525 112.551H170.552C170.135 112.551 169.857 112.268 169.718 111.842L169.162 108.865C169.023 108.298 169.44 107.873 169.996 107.873H172.081C172.637 107.873 173.054 108.298 172.915 108.865L172.359 111.842C172.22 112.268 171.942 112.551 171.525 112.551Z" fill="#BCC5D6"/>
<path d="M162.488 141.895C162.488 140.619 162.071 139.626 161.237 138.776C161.793 137.925 162.21 136.933 162.21 135.799C162.21 132.964 159.986 130.554 157.067 130.554C156.928 130.554 156.928 130.554 156.789 130.554C156.928 130.128 157.067 129.561 157.067 129.136C157.067 126.868 155.26 124.883 152.897 124.883C152.897 124.883 152.897 124.883 152.758 124.883C152.758 124.883 152.758 124.883 152.619 124.883C150.256 124.741 146.086 127.577 146.086 127.577L147.615 143.738L149.005 146.289L157.901 146.431C160.542 146.431 162.488 144.446 162.488 141.895Z" fill="#BCC5D6"/>
<path opacity="0.3" d="M162.488 141.895C162.488 140.619 162.071 139.626 161.237 138.776C161.793 137.925 162.21 136.933 162.21 135.799C162.21 132.964 159.986 130.554 157.067 130.554C156.928 130.554 156.928 130.554 156.789 130.554C156.928 130.128 157.067 129.561 157.067 129.136C157.067 126.868 155.26 124.883 152.897 124.883C152.897 124.883 152.897 124.883 152.758 124.883C152.758 124.883 152.758 124.883 152.619 124.883C150.256 124.741 146.086 127.577 146.086 127.577L147.615 143.738L149.005 146.289L157.901 146.431C160.542 146.431 162.488 144.446 162.488 141.895Z" fill="url(#paint2_linear_1739_7172)"/>
<path d="M179.586 149.409H20.8432C20.0091 149.409 19.4531 148.841 19.4531 147.991C19.4531 147.14 20.0091 146.573 20.8432 146.573H179.447C180.281 146.573 180.837 147.14 180.837 147.991C180.837 148.841 180.281 149.409 179.586 149.409Z" fill="#BCC5D6"/>
<path d="M127.044 146.43H43.2246V67.3262H150.814V146.43H139.416H127.044Z" fill="#EAEEF9"/>
<path opacity="0.5" d="M127.044 146.43H43.2246V67.3262H150.814V146.43H139.416H127.044Z" fill="url(#paint3_linear_1739_7172)"/>
<path d="M161.795 75.5494V75.1241C161.795 74.6988 161.656 74.2735 161.517 73.7065C161.239 73.1394 160.822 72.5724 160.266 72.1471L151.092 65.626H43.6412L29.6018 72.2889C28.9068 72.5724 28.3507 73.1394 28.0727 73.7065C27.7947 74.2735 27.6557 74.8406 27.6557 75.5494C27.0997 81.0782 31.4088 86.4652 37.247 86.4652C42.5292 86.4652 46.8383 81.9288 46.8383 76.5418C46.8383 82.0705 51.1474 86.4652 56.4296 86.4652C61.7118 86.4652 66.1599 81.5035 66.1599 75.9747C66.1599 81.5035 70.33 86.4652 75.6122 86.4652C80.6164 86.4652 84.7865 82.354 85.2035 77.2506C85.8985 82.9211 90.4857 86.6069 94.7948 86.6069C100.077 86.6069 104.247 82.2123 104.386 76.8253C104.386 76.967 104.386 77.1088 104.386 77.2506V76.8253C106.888 91.2851 123.43 87.8828 123.43 76.4C123.43 76.5418 123.43 76.8253 123.43 76.967C123.43 76.5418 123.569 76.1165 123.569 75.6912C123.569 80.6529 127.183 85.1893 131.909 86.0399C133.438 86.1817 134.967 86.0399 136.496 85.6146C136.774 85.4728 137.052 85.4728 137.191 85.3311C139.554 84.3387 141.639 82.354 142.473 79.377C142.473 79.2353 142.612 79.0935 142.612 78.9517C142.751 78.6682 142.751 78.2429 142.89 77.9594C143.863 82.4958 147.616 86.1817 152.204 86.1817C158.459 86.4652 162.49 80.6529 161.795 75.5494Z" fill="url(#paint4_linear_1739_7172)"/>
<path d="M143.168 76.5416C143.168 77.1086 143.167 77.8175 143.028 78.3845C143.028 78.668 142.889 79.0933 142.75 79.3769C142.75 79.5186 142.611 79.6604 142.611 79.8021C141.777 82.4957 139.831 84.6221 137.329 85.7562C137.051 85.898 136.773 85.898 136.634 86.0397C135.661 86.465 134.549 86.6068 133.576 86.6068C133.02 86.6068 132.603 86.6068 132.047 86.465C127.46 85.6144 123.707 81.078 123.707 76.1163C123.707 76.5416 123.707 76.9669 123.568 77.3922C123.568 77.3922 123.568 77.3922 123.568 77.5339V77.2504L123.707 73.4228L119.676 65.7676H135.105L136.912 67.7523L143.028 73.8481L143.168 76.5416Z" fill="white"/>
<path d="M66.1575 73.281L66.2965 77.2504C66.2965 76.8251 66.1575 76.3998 66.1575 75.8328C66.1575 81.3615 61.7094 86.3233 56.4272 86.3233C51.1451 86.3233 46.8359 82.0704 46.8359 76.5416C46.8359 76.8251 46.8359 76.9669 46.8359 77.1086L46.9749 73.7063L53.0911 67.7523L55.1762 65.7676H70.1887L66.1575 73.281Z" fill="white"/>
<path d="M85.0609 73.5647L84.9219 77.5341C84.9219 77.1088 85.0609 76.6835 85.0609 76.1165C85.0609 81.6452 89.509 86.6069 94.7912 86.6069C100.073 86.6069 104.382 82.0705 104.382 76.6835C104.382 76.967 104.382 77.1088 104.382 77.2506L104.243 73.8483L102.714 67.8942L102.019 65.626H87.2849L85.0609 73.5647Z" fill="white"/>
<path d="M150.811 59.5294V65.767H43.6387V59.5294C43.6387 57.1195 45.5847 55.1348 47.9478 55.1348H146.641C148.865 55.1348 150.811 57.1195 150.811 59.5294Z" fill="#D4DAE8"/>
<path opacity="0.4" d="M100.91 93.5527H53.6484V135.373H100.91V93.5527Z" fill="#1C3754"/>
<path d="M98.1274 96.3877H56.2871V132.537H98.1274V96.3877Z" fill="white"/>
<path d="M68.6585 96.3877L56.2871 123.464V110.139L62.5423 96.3877H68.6585Z" fill="#EAEEF9"/>
<path d="M93.9581 96.3896L77.4166 132.539H71.8565L71.4395 132.398L87.842 96.3896H93.9581Z" fill="#EAEEF9"/>
<path d="M98.1276 97.8073L82.1421 132.539H79.084L95.7645 96.3896L98.1276 97.8073Z" fill="#EAEEF9"/>
<path opacity="0.4" d="M110.084 93.5537V146.573H140.943V93.5537H110.084Z" fill="#1C3754"/>
<path d="M138.162 96.3877H112.863V120.487H138.162V96.3877Z" fill="white"/>
<path d="M138.162 123.324H112.863V143.738H138.162V123.324Z" fill="white"/>
<path opacity="0.4" d="M82.8382 111.416L75.749 106.312C75.749 106.029 75.749 105.745 75.749 105.603C75.61 104.894 74.915 104.327 74.2199 104.469C73.3859 104.469 72.6909 105.178 72.6909 106.029C72.6909 106.454 72.8299 106.879 73.1079 107.163L69.2158 114.96C69.0768 115.101 69.2158 115.385 69.3548 115.385H69.4938C69.6328 115.385 69.7718 115.243 69.7718 115.243L73.6639 107.446C73.8029 107.446 73.9419 107.588 74.0809 107.588C74.4979 107.588 74.915 107.304 75.193 107.021L82.2822 112.124C82.4212 112.266 82.6992 112.266 82.8382 111.983C82.9772 111.699 82.9772 111.416 82.8382 111.416Z" fill="#1C3754"/>
<path d="M86.5914 120.489L70.1889 124.742C69.4939 124.884 68.7989 124.459 68.5209 123.75L66.8528 116.945C66.7138 116.236 67.1308 115.527 67.8258 115.244L84.2283 110.991C84.9234 110.849 85.6184 111.275 85.8964 111.983L87.5644 118.788C87.7034 119.497 87.2864 120.206 86.5914 120.489Z" fill="#BCC5D6"/>
<path d="M71.5758 118.223L82.2791 115.529C82.8352 115.388 83.3912 115.671 83.5302 116.238C83.6692 116.805 83.3912 117.372 82.8352 117.514L72.1318 120.207C71.5758 120.349 71.0198 120.066 70.8808 119.499C70.7418 118.79 71.1588 118.365 71.5758 118.223Z" fill="white"/>
<path d="M111.752 122.615C112.29 122.615 112.725 122.17 112.725 121.622C112.725 121.074 112.29 120.63 111.752 120.63C111.215 120.63 110.779 121.074 110.779 121.622C110.779 122.17 111.215 122.615 111.752 122.615Z" fill="white"/>
<path d="M140.804 143.737H110.084V147.707H140.804V143.737Z" fill="#EAEEF9"/>
<path d="M142.61 147.707H107.859V151.676H142.61V147.707Z" fill="white"/>
<path d="M171.105 109.148C174.176 109.148 176.665 106.609 176.665 103.477C176.665 100.345 174.176 97.8066 171.105 97.8066C168.034 97.8066 165.545 100.345 165.545 103.477C165.545 106.609 168.034 109.148 171.105 109.148Z" fill="#EAEEF9"/>
<path opacity="0.1" d="M171.105 109.148C174.176 109.148 176.665 106.609 176.665 103.477C176.665 100.345 174.176 97.8066 171.105 97.8066C168.034 97.8066 165.545 100.345 165.545 103.477C165.545 106.609 168.034 109.148 171.105 109.148Z" fill="url(#paint5_linear_1739_7172)"/>
<path d="M172.357 136.79H169.716C169.16 136.79 168.604 137.215 168.465 137.782L166.797 146.572H175.276L173.608 137.782C173.469 137.215 172.913 136.79 172.357 136.79Z" fill="#D4DAE8"/>
<path d="M32.2419 99.3662C31.8249 99.3662 31.5469 99.0827 31.5469 98.6574V96.6727C31.5469 96.2474 31.8249 95.9639 32.2419 95.9639C32.6589 95.9639 32.9369 96.2474 32.9369 96.6727V98.6574C32.9369 99.0827 32.6589 99.3662 32.2419 99.3662Z" fill="#BCC5D6"/>
<path d="M32.2419 139.769C31.8249 139.769 31.5469 139.486 31.5469 139.061V111.417C31.5469 110.992 31.8249 110.708 32.2419 110.708C32.6589 110.708 32.9369 110.992 32.9369 111.417V138.919C32.9369 139.486 32.6589 139.769 32.2419 139.769Z" fill="#BCC5D6"/>
<path d="M32.7979 112.551H31.9639C31.5468 112.551 31.2688 112.268 31.1298 111.842L30.5738 108.865C30.4348 108.298 30.8518 107.873 31.4078 107.873H33.4929C34.0489 107.873 34.4659 108.298 34.3269 108.865L33.4929 111.842C33.4929 112.268 33.0759 112.551 32.7979 112.551Z" fill="#BCC5D6"/>
<path d="M32.2438 109.148C35.3146 109.148 37.8039 106.609 37.8039 103.477C37.8039 100.345 35.3146 97.8066 32.2438 97.8066C29.173 97.8066 26.6836 100.345 26.6836 103.477C26.6836 106.609 29.173 109.148 32.2438 109.148Z" fill="#EAEEF9"/>
<path opacity="0.1" d="M32.2438 109.148C35.3146 109.148 37.8039 106.609 37.8039 103.477C37.8039 100.345 35.3146 97.8066 32.2438 97.8066C29.173 97.8066 26.6836 100.345 26.6836 103.477C26.6836 106.609 29.173 109.148 32.2438 109.148Z" fill="url(#paint6_linear_1739_7172)"/>
<path d="M33.6324 136.791H30.9914C30.4353 136.791 29.8793 137.216 29.7403 137.783L28.0723 146.573H36.5515L34.8835 137.783C34.7445 137.216 34.1885 136.791 33.6324 136.791Z" fill="#D4DAE8"/>
<path opacity="0.3" d="M161.655 73.8481H28.0723C28.3503 73.281 28.9063 72.714 29.6013 72.4305L43.6407 65.7676H151.23L160.404 72.2887C160.96 72.714 161.377 73.281 161.655 73.8481Z" fill="url(#paint7_linear_1739_7172)"/>
<path d="M110.085 68.604H82.5617C77.2795 68.604 73.1094 64.2094 73.1094 58.9641C73.1094 53.5771 77.4185 49.3242 82.5617 49.3242H110.085C115.367 49.3242 119.537 53.7189 119.537 58.9641C119.676 64.2094 115.367 68.604 110.085 68.604Z" fill="#F3F6FF"/>
<path d="M76.167 150.826C76.167 150.967 76.167 150.967 76.167 150.826H30.9906C30.8516 150.259 30.8516 149.55 30.8516 148.983C30.8516 146.856 31.4076 144.872 32.3806 143.17C32.1026 142.462 31.9636 141.611 31.9636 140.761C31.9636 137.5 34.6047 134.665 37.9408 134.665C39.4698 134.665 40.9989 135.374 42.1109 136.366C42.2499 133.105 44.891 130.695 48.0881 130.695C51.4242 130.695 54.0653 133.389 54.0653 136.791C54.0653 137.925 53.7873 138.918 53.2313 139.768C54.6213 140.335 55.7333 141.469 56.2893 142.887C57.8184 142.887 59.2084 143.596 60.3205 144.588C60.5985 142.603 62.2665 141.186 64.3516 141.186C65.4636 141.186 66.4367 141.611 67.1317 142.32C67.5487 140.477 69.0777 139.201 71.0238 139.201C73.2479 139.201 75.0549 141.044 75.0549 143.312C75.0549 144.588 74.4989 145.58 73.6649 146.431C75.1939 147.14 76.445 148.983 76.167 150.826Z" fill="#BCC5D6"/>
<path d="M63.6998 135.125C63.8718 133.569 62.7743 132.166 61.2486 131.99C59.7229 131.815 58.3466 132.934 58.1747 134.49C58.0027 136.046 59.1001 137.45 60.6259 137.625C62.1516 137.801 63.5278 136.681 63.6998 135.125Z" fill="#EAEEF9"/>
<path d="M50.8656 149.268C50.8656 149.835 50.8656 150.402 50.5876 150.97H37.9382C37.7992 150.402 37.6602 149.835 37.6602 149.268C37.6602 148.418 37.7992 147.567 38.0772 146.717C39.0502 144.307 41.4133 142.605 44.1934 142.605C46.9734 142.605 49.3365 144.448 50.3095 146.858C50.7266 147.567 50.8656 148.418 50.8656 149.268Z" fill="#EAEEF9"/>
<path d="M56.7084 150.26C56.7084 150.543 56.7084 150.827 56.7084 150.968H48.9242C48.9242 150.685 48.7852 150.543 48.7852 150.26C48.7852 148.842 49.4802 147.708 50.5922 146.857C51.2872 146.432 51.9823 146.148 52.8163 146.148C54.9013 146.148 56.7084 147.991 56.7084 150.26Z" fill="#EAEEF9"/>
<path d="M39.4701 149.692C39.4701 150.117 39.3311 150.543 39.1921 150.968H31.6859C31.6859 150.543 31.5469 150.117 31.5469 149.692C31.5469 147.424 33.3539 145.581 35.439 145.581C36.551 145.581 37.5241 146.006 38.2191 146.715C39.0531 147.424 39.4701 148.558 39.4701 149.692Z" fill="#EAEEF9"/>
<path d="M69.6342 150.968H61.7109C61.7109 148.699 63.518 146.856 65.7421 146.856C67.9661 146.856 69.6342 148.699 69.6342 150.968Z" fill="#EAEEF9"/>
<path d="M124.818 96.3887L113.697 120.488H112.863V110.14L119.118 96.3887H124.818Z" fill="#EAEEF9"/>
<path d="M128.572 96.3887L117.591 120.488H115.645L126.626 96.3887H128.572Z" fill="#EAEEF9"/>
<path d="M138.159 100.357V107.729L132.32 120.488H128.984L138.159 100.357Z" fill="#EAEEF9"/>
<path d="M123.706 123.323L115.365 143.737H112.863V140.477L119.813 123.323H123.706Z" fill="#EAEEF9"/>
<path d="M138.161 127.009L131.35 143.737H133.018L138.161 131.403V127.009Z" fill="#EAEEF9"/>
<path d="M135.383 123.323L127.043 143.737H124.68L133.159 123.323H135.383Z" fill="#EAEEF9"/>
<defs>
<linearGradient id="paint0_linear_1739_7172" x1="17.6465" y1="109.852" x2="22.1399" y2="109.852" gradientUnits="userSpaceOnUse">
<stop stop-color="#83A6FF"/>
<stop offset="1" stop-color="#5A78FF"/>
</linearGradient>
<linearGradient id="paint1_linear_1739_7172" x1="177.417" y1="57.8792" x2="181.638" y2="57.8792" gradientUnits="userSpaceOnUse">
<stop stop-color="#83A6FF"/>
<stop offset="1" stop-color="#5A78FF"/>
</linearGradient>
<linearGradient id="paint2_linear_1739_7172" x1="156.605" y1="135.456" x2="146.371" y2="137.667" gradientUnits="userSpaceOnUse">
<stop offset="0.00289017" stop-color="#606673" stop-opacity="0"/>
<stop offset="1" stop-color="#373C47"/>
</linearGradient>
<linearGradient id="paint3_linear_1739_7172" x1="96.9791" y1="125.056" x2="96.9791" y2="65.8467" gradientUnits="userSpaceOnUse">
<stop offset="0.00289017" stop-color="#606673" stop-opacity="0"/>
<stop offset="1" stop-color="#373C47"/>
</linearGradient>
<linearGradient id="paint4_linear_1739_7172" x1="27.5994" y1="76.1902" x2="161.94" y2="76.1902" gradientUnits="userSpaceOnUse">
<stop stop-color="#FF66A9"/>
<stop offset="1" stop-color="#F53689"/>
</linearGradient>
<linearGradient id="paint5_linear_1739_7172" x1="166.92" y1="98.5766" x2="174.576" y2="107.202" gradientUnits="userSpaceOnUse">
<stop offset="0.00289017" stop-color="#606673" stop-opacity="0"/>
<stop offset="1" stop-color="#373C47"/>
</linearGradient>
<linearGradient id="paint6_linear_1739_7172" x1="28.1556" y1="98.5766" x2="35.8121" y2="107.202" gradientUnits="userSpaceOnUse">
<stop offset="0.00289017" stop-color="#606673" stop-opacity="0"/>
<stop offset="1" stop-color="#373C47"/>
</linearGradient>
<linearGradient id="paint7_linear_1739_7172" x1="94.8631" y1="73.8367" x2="94.8631" y2="65.6123" gradientUnits="userSpaceOnUse">
<stop offset="0.00289017" stop-color="#3F5073" stop-opacity="0"/>
<stop offset="1" stop-color="#283247"/>
</linearGradient>
</defs>
</svg>
